font.ufo
<glyph name="dollar" format="2">
	<unicode hex="0024"/>
	<advance width="600"/>
	<outline>
		<contour>
			<point x="256" y="48" type="curve" smooth="yes"/>
			<point x="208" y="48"/>
			<point x="172" y="56"/>
			<point x="132" y="64" type="curve"/>
			<point x="212" y="36" type="line"/>
			<point x="196" y="132" type="line" smooth="yes"/>
			<point x="190" y="168"/>
			<point x="168" y="188"/>
			<point x="124" y="188" type="curve" smooth="yes"/>
			<point x="80" y="188"/>
			<point x="64" y="160"/>
			<point x="60" y="116" type="curve"/>
			<point x="84" y="36"/>
			<point x="160" y="-12"/>
			<point x="288" y="-12" type="curve" smooth="yes"/>
			<point x="436" y="-12"/>
			<point x="544" y="60"/>
			<point x="544" y="188" type="curve" smooth="yes"/>
			<point x="544" y="304"/>
			<point x="460" y="352"/>
			<point x="320" y="392" type="curve" smooth="yes"/>
			<point x="306" y="396" type="line" smooth="yes"/>
			<point x="236" y="416"/>
			<point x="200" y="438"/>
			<point x="200" y="492" type="curve" smooth="yes"/>
			<point x="200" y="545"/>
			<point x="236" y="580"/>
			<point x="312" y="580" type="curve" smooth="yes"/>
			<point x="360" y="580"/>
			<point x="408" y="572"/>
			<point x="448" y="564" type="curve"/>
			<point x="368" y="600" type="line"/>
			<point x="384" y="504" type="line" smooth="yes"/>
			<point x="390" y="468"/>
			<point x="412" y="448"/>
			<point x="456" y="448" type="curve" smooth="yes"/>
			<point x="500" y="448"/>
			<point x="516" y="476"/>
			<point x="520" y="520" type="curve"/>
			<point x="496" y="600"/>
			<point x="420" y="640"/>
			<point x="296" y="640" type="curve" smooth="yes"/>
			<point x="164" y="640"/>
			<point x="60" y="576"/>
			<point x="60" y="452" type="curve" smooth="yes"/>
			<point x="60" y="340"/>
			<point x="144" y="288"/>
			<point x="284" y="248" type="curve" smooth="yes"/>
			<point x="298" y="244" type="line" smooth="yes"/>
			<point x="368" y="224"/>
			<point x="404" y="202"/>
			<point x="404" y="148" type="curve" smooth="yes"/>
			<point x="404" y="88"/>
			<point x="360" y="48"/>
		</contour>
		<contour>
			<point x="332" y="316" type="line"/>
			<point x="332" y="740" type="line"/>
			<point x="264" y="740" type="line"/>
			<point x="280" y="316" type="line"/>
		</contour>
		<contour>
			<point x="260" y="-112" type="line"/>
			<point x="328" y="-112" type="line"/>
			<point x="312" y="312" type="line"/>
			<point x="260" y="312" type="line"/>
		</contour>
	</outline>
</glyph>
<glyph name="parenleft" format="2">
	<unicode hex="0028"/>
	<advance width="444"/>
	<outline>
		<contour>
			<point x="262" y="278" type="curve" smooth="yes"/>
			<point x="262" y="432"/>
			<point x="302" y="544"/>
			<point x="394" y="664" type="curve"/>
			<point x="338" y="716" type="line"/>
			<point x="174" y="600"/>
			<point x="86" y="464"/>
			<point x="86" y="278" type="curve" smooth="yes"/>
			<point x="86" y="92"/>
			<point x="174" y="-44"/>
			<point x="338" y="-160" type="curve"/>
			<point x="394" y="-108" type="line"/>
			<point x="302" y="12"/>
			<point x="262" y="124"/>
		</contour>
	</outline>
</glyph>
<glyph name="hyphen" format="2">
	<unicode hex="002D"/>
	<unicode hex="00AD"/>
	<unicode hex="2010"/>
	<advance width="380"/>
	<outline>
		<contour>
			<point x="50" y="218" type="line"/>
			<point x="330" y="218" type="line"/>
			<point x="330" y="338" type="line"/>
			<point x="50" y="338" type="line"/>
		</contour>
	</outline>
</glyph>
<glyph name="period" format="2">
	<unicode hex="002E"/>
	<advance width="332"/>
	<outline>
		<contour>
			<point x="166" y="-12" type="curve" smooth="yes"/>
			<point x="228" y="-12"/>
			<point x="274" y="34"/>
			<point x="274" y="96" type="curve" smooth="yes"/>
			<point x="274" y="158"/>
			<point x="228" y="204"/>
			<point x="166" y="204" type="curve" smooth="yes"/>
			<point x="104" y="204"/>
			<point x="58" y="158"/>
			<point x="58" y="96" type="curve" smooth="yes"/>
			<point x="58" y="34"/>
			<point x="104" y="-12"/>
		</contour>
	</outline>
</glyph>
<glyph name="zero" format="2">
	<unicode hex="0030"/>
	<advance width="612"/>
	<outline>
		<contour>
			<point x="306" y="-12" type="curve" smooth="yes"/>
			<point x="450" y="-12"/>
			<point x="578" y="88"/>
			<point x="578" y="316" type="curve" smooth="yes"/>
			<point x="578" y="544"/>
			<point x="450" y="640"/>
			<point x="306" y="640" type="curve" smooth="yes"/>
			<point x="162" y="640"/>
			<point x="34" y="540"/>
			<point x="34" y="312" type="curve" smooth="yes"/>
			<point x="34" y="84"/>
			<point x="162" y="-12"/>
		</contour>
		<contour>
			<point x="306" y="60" type="curve" smooth="yes"/>
			<point x="249" y="60"/>
			<point x="238" y="130"/>
			<point x="238" y="314" type="curve" smooth="yes"/>
			<point x="238" y="498"/>
			<point x="249" y="568"/>
			<point x="306" y="568" type="curve" smooth="yes"/>
			<point x="363" y="568"/>
			<point x="374" y="498"/>
			<point x="374" y="314" type="curve" smooth="yes"/>
			<point x="374" y="130"/>
			<point x="363" y="60"/>
		</contour>
	</outline>
</glyph>
<glyph name="less" format="2">
	<unicode hex="003C"/>
	<advance width="600"/>
	<outline>
		<contour>
			<point x="61" y="276" type="line"/>
			<point x="489" y="60" type="line"/>
			<point x="541" y="164" type="line"/>
			<point x="109" y="352" type="line"/>
			<point x="109" y="288" type="line"/>
			<point x="541" y="476" type="line"/>
			<point x="489" y="580" type="line"/>
			<point x="61" y="364" type="line"/>
		</contour>
	</outline>
</glyph>
<glyph name="C" format="2">
	<unicode hex="0043"/>
	<advance width="712"/>
	<outline>
		<contour>
			<point x="428" y="-16" type="curve" smooth="yes"/>
			<point x="540" y="-16"/>
			<point x="612" y="8"/>
			<point x="664" y="32" type="curve"/>
			<point x="672" y="192" type="line"/>
			<point x="584" y="192" type="line"/>
			<point x="532" y="48" type="line"/>
			<point x="612" y="48" type="line"/>
			<point x="612" y="112" type="line"/>
			<point x="564" y="80"/>
			<point x="524" y="64"/>
			<point x="468" y="64" type="curve" smooth="yes"/>
			<point x="348" y="64"/>
			<point x="268" y="152"/>
			<point x="268" y="328" type="curve" smooth="yes"/>
			<point x="268" y="504"/>
			<point x="356" y="588"/>
			<point x="464" y="588" type="curve" smooth="yes"/>
			<point x="524" y="588"/>
			<point x="564" y="572"/>
			<point x="608" y="540" type="curve"/>
			<point x="608" y="604" type="line"/>
			<point x="528" y="604" type="line"/>
			<point x="580" y="460" type="line"/>
			<point x="668" y="460" type="line"/>
			<point x="660" y="620" type="line"/>
			<point x="620" y="644"/>
			<point x="540" y="668"/>
			<point x="432" y="668" type="curve" smooth="yes"/>
			<point x="228" y="668"/>
			<point x="44" y="568"/>
			<point x="44" y="324" type="curve" smooth="yes"/>
			<point x="44" y="80"/>
			<point x="220" y="-16"/>
		</contour>
	</outline>
	<anchor name="aboveUC" x="445" y="672"/>
	<anchor name="baseLC" x="434" y="0"/>
	<anchor name="belowLC" x="440" y="-20"/>
</glyph>
<glyph name="D" format="2">
	<unicode hex="0044"/>
	<advance width="808"/>
	<outline>
		<contour>
			<point x="28" y="0" type="line"/>
			<point x="168" y="0" type="line"/>
			<point x="168" y="80" type="line"/>
			<point x="136" y="80" type="line"/>
			<point x="28" y="80" type="line"/>
		</contour>
		<contour>
			<point x="104" y="0" type="curve"/>
			<point x="320" y="0" type="line"/>
			<point x="320" y="95"/>
			<point x="320" y="189"/>
			<point x="320" y="284" type="curve" smooth="yes"/>
			<point x="320" y="368" type="line" smooth="yes"/>
			<point x="320" y="463"/>
			<point x="320" y="557"/>
			<point x="320" y="652" type="curve"/>
			<point x="104" y="652" type="line"/>
			<point x="104" y="557"/>
			<point x="104" y="463"/>
			<point x="104" y="368" type="curve" smooth="yes"/>
			<point x="104" y="284" type="line" smooth="yes"/>
			<point x="104" y="189"/>
			<point x="104" y="95"/>
		</contour>
		<contour>
			<point x="256" y="0" type="line"/>
			<point x="368" y="0" type="line" smooth="yes"/>
			<point x="620" y="0"/>
			<point x="764" y="116"/>
			<point x="764" y="332" type="curve" smooth="yes"/>
			<point x="764" y="548"/>
			<point x="620" y="652"/>
			<point x="376" y="652" type="curve" smooth="yes"/>
			<point x="256" y="652" type="line"/>
			<point x="256" y="576" type="line"/>
			<point x="360" y="576" type="line" smooth="yes"/>
			<point x="484" y="576"/>
			<point x="540" y="504"/>
			<point x="540" y="328" type="curve" smooth="yes"/>
			<point x="540" y="152"/>
			<point x="484" y="76"/>
			<point x="360" y="76" type="curve" smooth="yes"/>
			<point x="256" y="76" type="line"/>
		</contour>
		<contour>
			<point x="28" y="572" type="line"/>
			<point x="136" y="572" type="line"/>
			<point x="168" y="572" type="line"/>
			<point x="168" y="652" type="line"/>
			<point x="28" y="652" type="line"/>
		</contour>
	</outline>
	<anchor name="aboveUC" x="404" y="672"/>
	<anchor name="belowLC" x="404" y="-20"/>
</glyph>
<glyph name="E" format="2">
	<unicode hex="0045"/>
	<advance width="664"/>
	<outline>
		<contour>
			<point x="28" y="0" type="line"/>
			<point x="152" y="0" type="line"/>
			<point x="152" y="80" type="line"/>
			<point x="136" y="80" type="line"/>
			<point x="28" y="80" type="line"/>
		</contour>
		<contour>
			<point x="104" y="0" type="curve"/>
			<point x="320" y="0" type="line"/>
			<point x="320" y="95"/>
			<point x="320" y="189"/>
			<point x="320" y="284" type="curve" smooth="yes"/>
			<point x="320" y="368" type="line" smooth="yes"/>
			<point x="320" y="463"/>
			<point x="320" y="557"/>
			<point x="320" y="652" type="curve"/>
			<point x="104" y="652" type="line"/>
			<point x="104" y="557"/>
			<point x="104" y="463"/>
			<point x="104" y="368" type="curve" smooth="yes"/>
			<point x="104" y="284" type="line" smooth="yes"/>
			<point x="104" y="189"/>
			<point x="104" y="95"/>
		</contour>
		<contour>
			<point x="240" y="0" type="line"/>
			<point x="608" y="0" type="line"/>
			<point x="616" y="180" type="line"/>
			<point x="532" y="180" type="line"/>
			<point x="492" y="28" type="line"/>
			<point x="532" y="76" type="line"/>
			<point x="240" y="76" type="line"/>
		</contour>
		<contour>
			<point x="208" y="292" type="line"/>
			<point x="448" y="292" type="line"/>
			<point x="448" y="372" type="line"/>
			<point x="208" y="372" type="line"/>
		</contour>
		<contour>
			<point x="420" y="228" type="line"/>
			<point x="500" y="228" type="line"/>
			<point x="500" y="436" type="line"/>
			<point x="420" y="436" type="line"/>
			<point x="406" y="348" type="line"/>
			<point x="406" y="316" type="line"/>
		</contour>
		<contour>
			<point x="28" y="572" type="line"/>
			<point x="136" y="572" type="line"/>
			<point x="152" y="572" type="line"/>
			<point x="152" y="652" type="line"/>
			<point x="28" y="652" type="line"/>
		</contour>
		<contour>
			<point x="512" y="480" type="line"/>
			<point x="596" y="480" type="line"/>
			<point x="588" y="652" type="line"/>
			<point x="240" y="652" type="line"/>
			<point x="240" y="576" type="line"/>
			<point x="520" y="576" type="line"/>
			<point x="472" y="624" type="line"/>
		</contour>
	</outline>
	<anchor name="aboveUC" x="346" y="672"/>
	<anchor name="belowLC" x="348" y="-20"/>
	<anchor name="ogonek" x="488" y="0"/>
</glyph>
<glyph name="F" format="2">
	<unicode hex="0046"/>
	<advance width="632"/>
	<outline>
		<contour>
			<point x="28" y="0" type="line"/>
			<point x="412" y="0" type="line"/>
			<point x="412" y="80" type="line"/>
			<point x="288" y="80" type="line"/>
			<point x="136" y="80" type="line"/>
			<point x="28" y="80" type="line"/>
		</contour>
		<contour>
			<point x="104" y="0" type="curve"/>
			<point x="320" y="0" type="line"/>
			<point x="320" y="95"/>
			<point x="320" y="189"/>
			<point x="320" y="284" type="curve" smooth="yes"/>
			<point x="320" y="368" type="line" smooth="yes"/>
			<point x="320" y="463"/>
			<point x="320" y="557"/>
			<point x="320" y="652" type="curve"/>
			<point x="104" y="652" type="line"/>
			<point x="104" y="557"/>
			<point x="104" y="463"/>
			<point x="104" y="368" type="curve" smooth="yes"/>
			<point x="104" y="284" type="line" smooth="yes"/>
			<point x="104" y="189"/>
			<point x="104" y="95"/>
		</contour>
		<contour>
			<point x="208" y="288" type="line"/>
			<point x="448" y="288" type="line"/>
			<point x="448" y="368" type="line"/>
			<point x="208" y="368" type="line"/>
		</contour>
		<contour>
			<point x="420" y="224" type="line"/>
			<point x="500" y="224" type="line"/>
			<point x="500" y="432" type="line"/>
			<point x="420" y="432" type="line"/>
			<point x="406" y="344" type="line"/>
			<point x="406" y="312" type="line"/>
		</contour>
		<contour>
			<point x="28" y="572" type="line"/>
			<point x="136" y="572" type="line"/>
			<point x="152" y="572" type="line"/>
			<point x="152" y="652" type="line"/>
			<point x="28" y="652" type="line"/>
		</contour>
		<contour>
			<point x="512" y="480" type="line"/>
			<point x="596" y="480" type="line"/>
			<point x="588" y="652" type="line"/>
			<point x="240" y="652" type="line"/>
			<point x="240" y="576" type="line"/>
			<point x="520" y="576" type="line"/>
			<point x="472" y="624" type="line"/>
		</contour>
	</outline>
	<anchor name="aboveUC" x="345" y="672"/>
	<anchor name="belowLC" x="220" y="-20"/>
</glyph>
<glyph name="G" format="2">
	<unicode hex="0047"/>
	<advance width="784"/>
	<outline>
		<contour>
			<point x="436" y="-16" type="curve" smooth="yes"/>
			<point x="548" y="-16"/>
			<point x="636" y="8"/>
			<point x="696" y="40" type="curve"/>
			<point x="696" y="88" type="line" smooth="yes"/>
			<point x="696" y="165"/>
			<point x="696" y="247"/>
			<point x="696" y="328" type="curve"/>
			<point x="492" y="328" type="line"/>
			<point x="492" y="247"/>
			<point x="492" y="165"/>
			<point x="492" y="88" type="curve" smooth="yes"/>
			<point x="492" y="16" type="line"/>
			<point x="588" y="104" type="line"/>
			<point x="556" y="80"/>
			<point x="524" y="64"/>
			<point x="468" y="64" type="curve" smooth="yes"/>
			<point x="352" y="64"/>
			<point x="268" y="152"/>
			<point x="268" y="328" type="curve" smooth="yes"/>
			<point x="268" y="504"/>
			<point x="360" y="588"/>
			<point x="476" y="588" type="curve" smooth="yes"/>
			<point x="536" y="588"/>
			<point x="580" y="572"/>
			<point x="624" y="540" type="curve"/>
			<point x="624" y="604" type="line"/>
			<point x="544" y="604" type="line"/>
			<point x="596" y="460" type="line"/>
			<point x="684" y="460" type="line"/>
			<point x="676" y="620" type="line"/>
			<point x="636" y="644"/>
			<point x="552" y="668"/>
			<point x="444" y="668" type="curve" smooth="yes"/>
			<point x="232" y="668"/>
			<point x="44" y="568"/>
			<point x="44" y="324" type="curve" smooth="yes"/>
			<point x="44" y="80"/>
			<point x="216" y="-16"/>
		</contour>
		<contour>
			<point x="404" y="248" type="line"/>
			<point x="540" y="248" type="line"/>
			<point x="648" y="248" type="line"/>
			<point x="752" y="248" type="line"/>
			<point x="752" y="328" type="line"/>
			<point x="404" y="328" type="line"/>
		</contour>
	</outline>
	<anchor name="aboveUC" x="447" y="672"/>
	<anchor name="belowLC" x="445" y="-20"/>
</glyph>
<glyph name="K" format="2">
	<unicode hex="004B"/>
	<advance width="808"/>
	<outline>
		<contour>
			<point x="104" y="0" type="curve"/>
			<point x="320" y="0" type="line"/>
			<point x="320" y="95"/>
			<point x="320" y="189"/>
			<point x="320" y="284" type="curve" smooth="yes"/>
			<point x="320" y="368" type="line" smooth="yes"/>
			<point x="320" y="463"/>
			<point x="320" y="557"/>
			<point x="320" y="652" type="curve"/>
			<point x="104" y="652" type="line"/>
			<point x="104" y="557"/>
			<point x="104" y="463"/>
			<point x="104" y="368" type="curve" smooth="yes"/>
			<point x="104" y="284" type="line" smooth="yes"/>
			<point x="104" y="189"/>
			<point x="104" y="95"/>
		</contour>
		<contour>
			<point x="28" y="0" type="line"/>
			<point x="380" y="0" type="line"/>
			<point x="380" y="80" type="line"/>
			<point x="272" y="80" type="line"/>
			<point x="152" y="80" type="line"/>
			<point x="28" y="80" type="line"/>
		</contour>
		<contour>
			<point x="28" y="572" type="line"/>
			<point x="152" y="572" type="line"/>
			<point x="272" y="572" type="line"/>
			<point x="392" y="572" type="line"/>
			<point x="392" y="652" type="line"/>
			<point x="28" y="652" type="line"/>
		</contour>
		<contour>
			<point x="432" y="0" type="line"/>
			<point x="788" y="0" type="line"/>
			<point x="788" y="80" type="line"/>
			<point x="664" y="80" type="line"/>
			<point x="516" y="80" type="line"/>
			<point x="432" y="80" type="line"/>
		</contour>
		<contour>
			<point x="472" y="572" type="line"/>
			<point x="584" y="572" type="line"/>
			<point x="644" y="572" type="line"/>
			<point x="756" y="572" type="line"/>
			<point x="756" y="652" type="line"/>
			<point x="472" y="652" type="line"/>
		</contour>
		<contour>
			<point x="264" y="192" type="line"/>
			<point x="748" y="652" type="line"/>
			<point x="632" y="652" type="line"/>
			<point x="455" y="462" type="line"/>
			<point x="336" y="312" type="line"/>
			<point x="264" y="312" type="line"/>
		</contour>
		<contour>
			<point x="532" y="0" type="line"/>
			<point x="776" y="0" type="line"/>
			<point x="496" y="464" type="line"/>
			<point x="360" y="316" type="line"/>
		</contour>
	</outline>
	<anchor name="aboveUC" x="432" y="672"/>
	<anchor name="belowLC" x="404" y="-20"/>
</glyph>
<glyph name="L" format="2">
	<unicode hex="004C"/>
	<advance width="652"/>
	<outline>
		<contour>
			<point x="28" y="0" type="line"/>
			<point x="152" y="0" type="line"/>
			<point x="152" y="80" type="line"/>
			<point x="136" y="80" type="line"/>
			<point x="28" y="80" type="line"/>
		</contour>
		<contour>
			<point x="104" y="0" type="curve"/>
			<point x="320" y="0" type="line"/>
			<point x="320" y="95"/>
			<point x="320" y="189"/>
			<point x="320" y="284" type="curve" smooth="yes"/>
			<point x="320" y="368" type="line" smooth="yes"/>
			<point x="320" y="463"/>
			<point x="320" y="557"/>
			<point x="320" y="652" type="curve"/>
			<point x="104" y="652" type="line"/>
			<point x="104" y="557"/>
			<point x="104" y="463"/>
			<point x="104" y="368" type="curve" smooth="yes"/>
			<point x="104" y="284" type="line" smooth="yes"/>
			<point x="104" y="189"/>
			<point x="104" y="95"/>
		</contour>
		<contour>
			<point x="240" y="0" type="line"/>
			<point x="604" y="0" type="line"/>
			<point x="612" y="216" type="line"/>
			<point x="528" y="216" type="line"/>
			<point x="488" y="28" type="line"/>
			<point x="528" y="76" type="line"/>
			<point x="240" y="76" type="line"/>
		</contour>
		<contour>
			<point x="28" y="572" type="line"/>
			<point x="136" y="572" type="line"/>
			<point x="288" y="572" type="line"/>
			<point x="412" y="572" type="line"/>
			<point x="412" y="652" type="line"/>
			<point x="28" y="652" type="line"/>
		</contour>
	</outline>
	<anchor name="aboveUC" x="219" y="672"/>
	<anchor name="belowLC" x="326" y="-20"/>
</glyph>
<glyph name="M" format="2">
	<unicode hex="004D"/>
	<advance width="948"/>
	<outline>
		<contour>
			<point x="28" y="0" type="line"/>
			<point x="260" y="0" type="line"/>
			<point x="260" y="80" type="line"/>
			<point x="168" y="80" type="line"/>
			<point x="120" y="80" type="line"/>
			<point x="28" y="80" type="line"/>
		</contour>
		<contour>
			<point x="38" y="572" type="line"/>
			<point x="120" y="572" type="line"/>
			<point x="136" y="572" type="line"/>
			<point x="136" y="652" type="line"/>
			<point x="38" y="652" type="line"/>
		</contour>
		<contour>
			<point x="104" y="0" type="line"/>
			<point x="188" y="0" type="line"/>
			<point x="188" y="280" type="line"/>
			<point x="162" y="652" type="line"/>
			<point x="104" y="652" type="line"/>
		</contour>
		<contour>
			<point x="350" y="0" type="line"/>
			<point x="462" y="0" type="line"/>
			<point x="569" y="343" type="line"/>
			<point x="619" y="543" type="line"/>
			<point x="686" y="543" type="line"/>
			<point x="686" y="652" type="line"/>
			<point x="588" y="652" type="line"/>
			<point x="532" y="465" type="line"/>
			<point x="480" y="244" type="line"/>
			<point x="465" y="244" type="line"/>
			<point x="352" y="652" type="line"/>
			<point x="136" y="652" type="line"/>
			<point x="136" y="539" type="line"/>
			<point x="188" y="539" type="line"/>
		</contour>
		<contour>
			<point x="564" y="0" type="line"/>
			<point x="920" y="0" type="line"/>
			<point x="920" y="80" type="line"/>
			<point x="812" y="80" type="line"/>
			<point x="652" y="80" type="line"/>
			<point x="564" y="80" type="line"/>
		</contour>
		<contour>
			<point x="636" y="0" type="curve"/>
			<point x="844" y="0" type="line"/>
			<point x="844" y="95"/>
			<point x="844" y="189"/>
			<point x="844" y="284" type="curve" smooth="yes"/>
			<point x="844" y="368" type="line" smooth="yes"/>
			<point x="844" y="463"/>
			<point x="844" y="557"/>
			<point x="844" y="652" type="curve"/>
			<point x="635" y="652" type="line"/>
			<point x="635" y="280" type="line" smooth="yes"/>
			<point x="635" y="187"/>
			<point x="636" y="93"/>
		</contour>
		<contour>
			<point x="796" y="572" type="line"/>
			<point x="812" y="572" type="line"/>
			<point x="920" y="572" type="line"/>
			<point x="920" y="652" type="line"/>
			<point x="796" y="652" type="line"/>
		</contour>
	</outline>
	<anchor name="aboveUC" x="480" y="672"/>
	<anchor name="belowLC" x="430" y="-20"/>
</glyph>
<glyph name="N" format="2">
	<unicode hex="004E"/>
	<advance width="748"/>
	<outline>
		<contour>
			<point x="28" y="0" type="line"/>
			<point x="280" y="0" type="line"/>
			<point x="280" y="80" type="line"/>
			<point x="172" y="80" type="line"/>
			<point x="120" y="80" type="line"/>
			<point x="28" y="80" type="line"/>
		</contour>
		<contour>
			<point x="104" y="0" type="line"/>
			<point x="186" y="0" type="line"/>
			<point x="186" y="264" type="line"/>
			<point x="160" y="609" type="line"/>
			<point x="104" y="609" type="line"/>
		</contour>
		<contour>
			<point x="472" y="572" type="line"/>
			<point x="580" y="572" type="line"/>
			<point x="632" y="572" type="line"/>
			<point x="724" y="572" type="line"/>
			<point x="724" y="652" type="line"/>
			<point x="472" y="652" type="line"/>
		</contour>
		<contour>
			<point x="480" y="0" type="line"/>
			<point x="648" y="0" type="line"/>
			<point x="648" y="652" type="line"/>
			<point x="568" y="652" type="line"/>
			<point x="568" y="417" type="line"/>
			<point x="588" y="193" type="line"/>
			<point x="574" y="193" type="line"/>
			<point x="320" y="652" type="line"/>
			<point x="38" y="652" type="line"/>
			<point x="38" y="572" type="line"/>
			<point x="129" y="572" type="line"/>
			<point x="129" y="539" type="line"/>
			<point x="178" y="539" type="line"/>
		</contour>
	</outline>
	<anchor name="aboveUC" x="395" y="672"/>
	<anchor name="belowLC" x="360" y="-20"/>
</glyph>
<glyph name="R" format="2">
	<unicode hex="0052"/>
	<advance width="792"/>
	<outline>
		<contour>
			<point x="28" y="0" type="line"/>
			<point x="388" y="0" type="line"/>
			<point x="388" y="80" type="line"/>
			<point x="272" y="80" type="line"/>
			<point x="152" y="80" type="line"/>
			<point x="28" y="80" type="line"/>
		</contour>
		<contour>
			<point x="104" y="0" type="curve"/>
			<point x="320" y="0" type="line"/>
			<point x="320" y="98"/>
			<point x="320" y="196"/>
			<point x="320" y="304" type="curve" smooth="yes"/>
			<point x="320" y="348" type="line" smooth="yes"/>
			<point x="320" y="456"/>
			<point x="320" y="554"/>
			<point x="320" y="652" type="curve"/>
			<point x="104" y="652" type="line"/>
			<point x="104" y="554"/>
			<point x="104" y="456"/>
			<point x="104" y="368" type="curve" smooth="yes"/>
			<point x="104" y="284" type="line" smooth="yes"/>
			<point x="104" y="196"/>
			<point x="104" y="98"/>
		</contour>
		<contour>
			<point x="644" y="-12" type="curve" smooth="yes"/>
			<point x="700" y="-12"/>
			<point x="744" y="-4"/>
			<point x="768" y="0" type="curve"/>
			<point x="768" y="76" type="line"/>
			<point x="584" y="92" type="line"/>
			<point x="696" y="20" type="line"/>
			<point x="668" y="184" type="line" smooth="yes"/>
			<point x="644" y="324"/>
			<point x="600" y="339"/>
			<point x="440" y="339" type="curve"/>
			<point x="440" y="363" type="line"/>
			<point x="602" y="363"/>
			<point x="692" y="407"/>
			<point x="692" y="496" type="curve" smooth="yes"/>
			<point x="692" y="600"/>
			<point x="584" y="652"/>
			<point x="376" y="652" type="curve" smooth="yes"/>
			<point x="272" y="652" type="line"/>
			<point x="272" y="576" type="line"/>
			<point x="360" y="576" type="line" smooth="yes"/>
			<point x="432" y="576"/>
			<point x="472" y="544"/>
			<point x="472" y="468" type="curve" smooth="yes"/>
			<point x="472" y="392"/>
			<point x="432" y="364"/>
			<point x="360" y="364" type="curve" smooth="yes"/>
			<point x="216" y="364" type="line"/>
			<point x="216" y="292" type="line"/>
			<point x="368" y="292" type="line" smooth="yes"/>
			<point x="420" y="292"/>
			<point x="444" y="276"/>
			<point x="452" y="216" type="curve" smooth="yes"/>
			<point x="464" y="120" type="line" smooth="yes"/>
			<point x="476" y="28"/>
			<point x="532" y="-12"/>
		</contour>
		<contour>
			<point x="28" y="572" type="line"/>
			<point x="136" y="572" type="line"/>
			<point x="152" y="572" type="line"/>
			<point x="152" y="652" type="line"/>
			<point x="28" y="652" type="line"/>
		</contour>
	</outline>
	<anchor name="aboveUC" x="361" y="672"/>
	<anchor name="belowLC" x="402" y="-20"/>
</glyph>
<glyph name="U" format="2">
	<unicode hex="0055"/>
	<advance width="780"/>
	<outline>
		<contour>
			<point x="392" y="-16" type="curve" smooth="yes"/>
			<point x="584" y="-16"/>
			<point x="680" y="76"/>
			<point x="680" y="248" type="curve" smooth="yes"/>
			<point x="680" y="652" type="line"/>
			<point x="596" y="652" type="line"/>
			<point x="596" y="252" type="line" smooth="yes"/>
			<point x="596" y="124"/>
			<point x="544" y="72"/>
			<point x="456" y="72" type="curve" smooth="yes"/>
			<point x="368" y="72"/>
			<point x="316" y="124"/>
			<point x="316" y="252" type="curve" smooth="yes"/>
			<point x="316" y="368" type="line" smooth="yes"/>
			<point x="316" y="463"/>
			<point x="316" y="557"/>
			<point x="316" y="652" type="curve"/>
			<point x="100" y="652" type="line"/>
			<point x="100" y="557"/>
			<point x="100" y="463"/>
			<point x="100" y="368" type="curve" smooth="yes"/>
			<point x="100" y="248" type="line" smooth="yes"/>
			<point x="100" y="60"/>
			<point x="216" y="-16"/>
		</contour>
		<contour>
			<point x="29" y="572" type="line"/>
			<point x="148" y="572" type="line"/>
			<point x="268" y="572" type="line"/>
			<point x="400" y="572" type="line"/>
			<point x="400" y="652" type="line"/>
			<point x="29" y="652" type="line"/>
		</contour>
		<contour>
			<point x="512" y="572" type="line"/>
			<point x="628" y="572" type="line"/>
			<point x="648" y="572" type="line"/>
			<point x="756" y="572" type="line"/>
			<point x="756" y="652" type="line"/>
			<point x="512" y="652" type="line"/>
		</contour>
	</outline>
	<anchor name="aboveUC" x="448" y="672"/>
	<anchor name="belowLC" x="410" y="-20"/>
	<anchor name="hornLC" x="666" y="573"/>
	<anchor name="ogonek" x="485" y="0"/>
</glyph>
<glyph name="W" format="2">
	<unicode hex="0057"/>
	<advance width="1080"/>
	<outline>
		<contour>
			<point x="236" y="0" type="line"/>
			<point x="408" y="0" type="line"/>
			<point x="493" y="288" type="line"/>
			<point x="538" y="502" type="line"/>
			<point x="549" y="502" type="line"/>
			<point x="654" y="0" type="line"/>
			<point x="826" y="0" type="line"/>
			<point x="1032" y="652" type="line"/>
			<point x="940" y="652" type="line"/>
			<point x="871" y="378" type="line"/>
			<point x="809" y="100" type="line"/>
			<point x="798" y="100" type="line"/>
			<point x="672" y="652" type="line"/>
			<point x="534" y="652" type="line"/>
			<point x="433" y="323" type="line"/>
			<point x="385" y="97" type="line"/>
			<point x="374" y="97" type="line"/>
			<point x="266" y="652" type="line"/>
			<point x="48" y="652" type="line"/>
		</contour>
		<contour>
			<point x="12" y="572" type="line"/>
			<point x="108" y="572" type="line"/>
			<point x="252" y="572" type="line"/>
			<point x="358" y="572" type="line"/>
			<point x="358" y="652" type="line"/>
			<point x="12" y="652" type="line"/>
		</contour>
		<contour>
			<point x="438" y="572" type="line"/>
			<point x="550" y="572" type="line"/>
			<point x="684" y="572" type="line"/>
			<point x="772" y="572" type="line"/>
			<point x="772" y="652" type="line"/>
			<point x="438" y="652" type="line"/>
		</contour>
		<contour>
			<point x="844" y="572" type="line"/>
			<point x="952" y="572" type="line"/>
			<point x="976" y="572" type="line"/>
			<point x="1068" y="572" type="line"/>
			<point x="1068" y="652" type="line"/>
			<point x="844" y="652" type="line"/>
		</contour>
	</outline>
	<anchor name="aboveUC" x="596" y="672"/>
	<anchor name="belowLC" x="540" y="-20"/>
</glyph>
<glyph name="X" format="2">
	<unicode hex="0058"/>
	<advance width="724"/>
	<outline>
		<contour>
			<point x="12" y="0" type="line"/>
			<point x="252" y="0" type="line"/>
			<point x="252" y="80" type="line"/>
			<point x="156" y="80" type="line"/>
			<point x="132" y="80" type="line"/>
			<point x="12" y="80" type="line"/>
		</contour>
		<contour>
			<point x="24" y="0" type="line"/>
			<point x="124" y="0" type="line"/>
			<point x="223" y="163" type="line"/>
			<point x="265" y="279" type="line"/>
			<point x="333" y="279" type="line"/>
			<point x="268" y="348" type="line"/>
		</contour>
		<contour>
			<point x="340" y="0" type="line"/>
			<point x="712" y="0" type="line"/>
			<point x="712" y="80" type="line"/>
			<point x="588" y="80" type="line"/>
			<point x="456" y="80" type="line"/>
			<point x="340" y="80" type="line"/>
		</contour>
		<contour>
			<point x="424" y="304" type="line"/>
			<point x="668" y="652" type="line"/>
			<point x="569" y="652" type="line"/>
			<point x="484" y="511" type="line"/>
			<point x="444" y="397" type="line"/>
			<point x="365" y="397" type="line"/>
		</contour>
		<contour>
			<point x="464" y="0" type="line"/>
			<point x="696" y="0" type="line"/>
			<point x="260" y="652" type="line"/>
			<point x="28" y="652" type="line"/>
		</contour>
		<contour>
			<point x="12" y="572" type="line"/>
			<point x="128" y="572" type="line"/>
			<point x="264" y="572" type="line"/>
			<point x="380" y="572" type="line"/>
			<point x="380" y="652" type="line"/>
			<point x="12" y="652" type="line"/>
		</contour>
		<contour>
			<point x="444" y="572" type="line"/>
			<point x="536" y="572" type="line"/>
			<point x="568" y="572" type="line"/>
			<point x="680" y="572" type="line"/>
			<point x="680" y="652" type="line"/>
			<point x="444" y="652" type="line"/>
		</contour>
	</outline>
	<anchor name="aboveUC" x="409" y="672"/>
	<anchor name="belowLC" x="304" y="-20"/>
</glyph>
<glyph name="Z" format="2">
	<unicode hex="005A"/>
	<advance width="640"/>
	<outline>
		<contour>
			<point x="28" y="0" type="line"/>
			<point x="616" y="0" type="line"/>
			<point x="620" y="204" type="line"/>
			<point x="536" y="204" type="line"/>
			<point x="490" y="28" type="line"/>
			<point x="548" y="72" type="line"/>
			<point x="372" y="72" type="line"/>
			<point x="256" y="55" type="line"/>
			<point x="256" y="105" type="line"/>
			<point x="239" y="50" type="line"/>
			<point x="608" y="588" type="line"/>
			<point x="608" y="652" type="line"/>
			<point x="44" y="652" type="line"/>
			<point x="40" y="448" type="line"/>
			<point x="124" y="448" type="line"/>
			<point x="170" y="624" type="line"/>
			<point x="112" y="580" type="line"/>
			<point x="256" y="580" type="line"/>
			<point x="379" y="597" type="line"/>
			<point x="379" y="547" type="line"/>
			<point x="396" y="602" type="line"/>
			<point x="28" y="64" type="line"/>
		</contour>
	</outline>
	<anchor name="aboveUC" x="330" y="672"/>
	<anchor name="belowLC" x="333" y="-20"/>
</glyph>
<glyph name="underscore" format="2">
	<unicode hex="005F"/>
	<advance width="560"/>
	<outline>
		<contour>
			<point x="-5" y="-87" type="line"/>
			<point x="565" y="-87" type="line"/>
			<point x="565" y="33" type="line"/>
			<point x="-5" y="33" type="line"/>
		</contour>
	</outline>
</glyph>
<glyph name="c" format="2">
	<unicode hex="0063"/>
	<advance width="560"/>
	<outline>
		<contour>
			<point x="312" y="-16" type="curve" smooth="yes"/>
			<point x="448" y="-16"/>
			<point x="513" y="54"/>
			<point x="545" y="101" type="curve"/>
			<point x="490" y="146" type="line"/>
			<point x="464" y="120"/>
			<point x="432" y="96"/>
			<point x="380" y="96" type="curve" smooth="yes"/>
			<point x="300" y="96"/>
			<point x="246" y="156"/>
			<point x="246" y="274" type="curve" smooth="yes"/>
			<point x="246" y="401"/>
			<point x="292" y="468"/>
			<point x="368" y="468" type="curve" smooth="yes"/>
			<point x="408" y="468"/>
			<point x="432" y="460"/>
			<point x="456" y="452" type="curve"/>
			<point x="376" y="500" type="line"/>
			<point x="376" y="420" type="line" smooth="yes"/>
			<point x="376" y="365"/>
			<point x="412" y="328"/>
			<point x="464" y="328" type="curve" smooth="yes"/>
			<point x="512" y="328"/>
			<point x="541" y="361"/>
			<point x="544" y="415" type="curve"/>
			<point x="516" y="476"/>
			<point x="448" y="532"/>
			<point x="320" y="532" type="curve" smooth="yes"/>
			<point x="156" y="532"/>
			<point x="36" y="416"/>
			<point x="36" y="248" type="curve" smooth="yes"/>
			<point x="36" y="84"/>
			<point x="148" y="-16"/>
		</contour>
	</outline>
	<anchor name="aboveLC" x="328" y="536"/>
	<anchor name="baseLC" x="319" y="0"/>
	<anchor name="belowLC" x="317" y="-20"/>
</glyph>
<glyph name="g" format="2">
	<unicode hex="0067"/>
	<advance width="656"/>
	<outline>
		<contour>
			<point x="288" y="-232" type="curve" smooth="yes"/>
			<point x="448" y="-232"/>
			<point x="609" y="-160"/>
			<point x="609" y="-16" type="curve" smooth="yes"/>
			<point x="609" y="70"/>
			<point x="556" y="124"/>
			<point x="408" y="124" type="curve" smooth="yes"/>
			<point x="288" y="124" type="line" smooth="yes"/>
			<point x="240" y="124"/>
			<point x="220" y="142"/>
			<point x="220" y="170" type="curve" smooth="yes"/>
			<point x="220" y="198"/>
			<point x="226" y="208"/>
			<point x="232" y="224" type="curve"/>
			<point x="179" y="224" type="line"/>
			<point x="179" y="167" type="line"/>
			<point x="103" y="167"/>
			<point x="52" y="146"/>
			<point x="52" y="90" type="curve" smooth="yes"/>
			<point x="52" y="32"/>
			<point x="103" y="13"/>
			<point x="179" y="13" type="curve"/>
			<point x="179" y="-48" type="line"/>
			<point x="194" y="-48"/>
			<point x="205" y="-48"/>
			<point x="220" y="-48" type="curve" smooth="yes"/>
			<point x="392" y="-48" type="line" smooth="yes"/>
			<point x="436" y="-48"/>
			<point x="452" y="-64"/>
			<point x="452" y="-90" type="curve" smooth="yes"/>
			<point x="452" y="-136"/>
			<point x="396" y="-164"/>
			<point x="316" y="-164" type="curve" smooth="yes"/>
			<point x="236" y="-164"/>
			<point x="188" y="-140"/>
			<point x="188" y="-96" type="curve" smooth="yes"/>
			<point x="188" y="-68"/>
			<point x="200" y="-43"/>
			<point x="207" y="-31" type="curve"/>
			<point x="200" y="-28" type="line"/>
			<point x="100" y="-28"/>
			<point x="24" y="-48"/>
			<point x="24" y="-112" type="curve" smooth="yes"/>
			<point x="24" y="-184"/>
			<point x="128" y="-232"/>
		</contour>
		<contour>
			<point x="284" y="197" type="curve" smooth="yes"/>
			<point x="436" y="197"/>
			<point x="524" y="258"/>
			<point x="524" y="366" type="curve" smooth="yes"/>
			<point x="524" y="390"/>
			<point x="520" y="408"/>
			<point x="516" y="416" type="curve"/>
			<point x="484" y="416" type="line"/>
			<point x="468" y="480"/>
			<point x="412" y="532"/>
			<point x="276" y="532" type="curve" smooth="yes"/>
			<point x="132" y="532"/>
			<point x="36" y="466"/>
			<point x="36" y="362" type="curve" smooth="yes"/>
			<point x="36" y="250"/>
			<point x="132" y="197"/>
		</contour>
		<contour>
			<point x="284" y="260" type="curve" smooth="yes"/>
			<point x="244" y="260"/>
			<point x="232" y="293"/>
			<point x="232" y="365" type="curve" smooth="yes"/>
			<point x="232" y="437"/>
			<point x="244" y="469"/>
			<point x="284" y="469" type="curve" smooth="yes"/>
			<point x="324" y="469"/>
			<point x="336" y="437"/>
			<point x="336" y="365" type="curve" smooth="yes"/>
			<point x="336" y="293"/>
			<point x="324" y="260"/>
		</contour>
		<contour>
			<point x="460" y="392" type="line"/>
			<point x="632" y="392" type="line"/>
			<point x="632" y="548" type="line"/>
			<point x="560" y="548" type="line"/>
			<point x="508" y="432" type="line"/>
			<point x="460" y="432" type="line"/>
		</contour>
	</outline>
	<anchor name="aboveLC" x="300" y="536"/>
	<anchor name="belowLC" x="318" y="-240"/>
</glyph>
<glyph name="i" format="2">
	<unicode hex="0069"/>
	<advance width="376"/>
	<outline>
		<contour>
			<point x="28" y="0" type="line"/>
			<point x="352" y="0" type="line"/>
			<point x="352" y="76" type="line"/>
			<point x="244" y="76" type="line"/>
			<point x="136" y="76" type="line"/>
			<point x="28" y="76" type="line"/>
		</contour>
		<contour>
			<point x="88" y="0" type="curve"/>
			<point x="292" y="0" type="line"/>
			<point x="292" y="73"/>
			<point x="292" y="147"/>
			<point x="292" y="220" type="curve" smooth="yes"/>
			<point x="292" y="370" type="line"/>
			<point x="292" y="516" type="line"/>
			<point x="228" y="516" type="line"/>
			<point x="24" y="456" type="line"/>
			<point x="24" y="384" type="line"/>
			<point x="88" y="384" type="line"/>
			<point x="88" y="348"/>
			<point x="88" y="312"/>
			<point x="88" y="276" type="curve" smooth="yes"/>
			<point x="88" y="220" type="line" smooth="yes"/>
			<point x="88" y="147"/>
			<point x="88" y="73"/>
		</contour>
		<contour>
			<point x="188" y="574" type="curve" smooth="yes"/>
			<point x="247" y="574"/>
			<point x="287" y="613"/>
			<point x="287" y="668" type="curve" smooth="yes"/>
			<point x="287" y="723"/>
			<point x="247" y="762"/>
			<point x="188" y="762" type="curve" smooth="yes"/>
			<point x="129" y="762"/>
			<point x="88" y="723"/>
			<point x="88" y="668" type="curve" smooth="yes"/>
			<point x="88" y="613"/>
			<point x="129" y="574"/>
		</contour>
	</outline>
	<anchor name="aboveLC" x="194" y="762"/>
	<anchor name="belowLC" x="197" y="-20"/>
	<anchor name="ogonek" x="230" y="0"/>
</glyph>
<glyph name="k" format="2">
	<unicode hex="006B"/>
	<advance width="700"/>
	<outline>
		<contour>
			<point x="24" y="0" type="line"/>
			<point x="340" y="0" type="line"/>
			<point x="340" y="76" type="line"/>
			<point x="240" y="76" type="line"/>
			<point x="132" y="76" type="line"/>
			<point x="24" y="76" type="line"/>
		</contour>
		<contour>
			<point x="84" y="0" type="curve"/>
			<point x="288" y="0" type="line"/>
			<point x="288" y="73"/>
			<point x="288" y="147"/>
			<point x="288" y="220" type="curve" smooth="yes"/>
			<point x="288" y="566" type="line"/>
			<point x="288" y="710" type="line"/>
			<point x="224" y="710" type="line"/>
			<point x="20" y="674" type="line"/>
			<point x="20" y="614" type="line"/>
			<point x="84" y="594" type="line"/>
			<point x="84" y="220" type="line" smooth="yes"/>
			<point x="84" y="147"/>
			<point x="84" y="73"/>
		</contour>
		<contour>
			<point x="208" y="140" type="line"/>
			<point x="668" y="500" type="line"/>
			<point x="536" y="500" type="line"/>
			<point x="422" y="392" type="line"/>
			<point x="308" y="264" type="line"/>
			<point x="208" y="264" type="line"/>
		</contour>
		<contour>
			<point x="448" y="0" type="line"/>
			<point x="684" y="0" type="line"/>
			<point x="684" y="76" type="line"/>
			<point x="636" y="76" type="line"/>
			<point x="472" y="396" type="line"/>
			<point x="340" y="272" type="line"/>
		</contour>
		<contour>
			<point x="380" y="444" type="line"/>
			<point x="504" y="428" type="line"/>
			<point x="536" y="428" type="line"/>
			<point x="668" y="444" type="line"/>
			<point x="668" y="516" type="line"/>
			<point x="380" y="516" type="line"/>
		</contour>
	</outline>
	<anchor name="aboveLC" x="187" y="720"/>
	<anchor name="belowLC" x="361" y="-20"/>
</glyph>
<glyph name="l" format="2">
	<unicode hex="006C"/>
	<advance width="372"/>
	<outline>
		<contour>
			<point x="24" y="0" type="line"/>
			<point x="348" y="0" type="line"/>
			<point x="348" y="76" type="line"/>
			<point x="240" y="76" type="line"/>
			<point x="132" y="76" type="line"/>
			<point x="24" y="76" type="line"/>
		</contour>
		<contour>
			<point x="84" y="0" type="curve"/>
			<point x="288" y="0" type="line"/>
			<point x="288" y="73"/>
			<point x="288" y="147"/>
			<point x="288" y="220" type="curve" smooth="yes"/>
			<point x="288" y="566" type="line"/>
			<point x="288" y="710" type="line"/>
			<point x="224" y="710" type="line"/>
			<point x="20" y="674" type="line"/>
			<point x="20" y="614" type="line"/>
			<point x="84" y="594" type="line"/>
			<point x="84" y="220" type="line" smooth="yes"/>
			<point x="84" y="147"/>
			<point x="84" y="73"/>
		</contour>
	</outline>
	<anchor name="aboveLC" x="186" y="720"/>
	<anchor name="belowLC" x="189" y="-20"/>
</glyph>
<glyph name="n" format="2">
	<unicode hex="006E"/>
	<advance width="720"/>
	<outline>
		<contour>
			<point x="32" y="0" type="line"/>
			<point x="340" y="0" type="line"/>
			<point x="340" y="76" type="line"/>
			<point x="248" y="76" type="line"/>
			<point x="140" y="76" type="line"/>
			<point x="32" y="76" type="line"/>
		</contour>
		<contour>
			<point x="92" y="0" type="curve"/>
			<point x="296" y="0" type="line"/>
			<point x="296" y="73"/>
			<point x="296" y="147"/>
			<point x="296" y="220" type="curve" smooth="yes"/>
			<point x="296" y="412" type="line"/>
			<point x="280" y="412" type="line"/>
			<point x="264" y="516" type="line"/>
			<point x="208" y="516" type="line"/>
			<point x="28" y="456" type="line"/>
			<point x="28" y="384" type="line"/>
			<point x="92" y="384" type="line"/>
			<point x="92" y="348"/>
			<point x="92" y="312"/>
			<point x="92" y="276" type="curve" smooth="yes"/>
			<point x="92" y="220" type="line" smooth="yes"/>
			<point x="92" y="147"/>
			<point x="92" y="73"/>
		</contour>
		<contour>
			<point x="392" y="0" type="line"/>
			<point x="700" y="0" type="line"/>
			<point x="700" y="76" type="line"/>
			<point x="592" y="76" type="line"/>
			<point x="484" y="76" type="line"/>
			<point x="392" y="76" type="line"/>
		</contour>
		<contour>
			<point x="436" y="0" type="curve"/>
			<point x="640" y="0" type="line"/>
			<point x="640" y="74"/>
			<point x="640" y="147"/>
			<point x="640" y="221" type="curve" smooth="yes"/>
			<point x="640" y="356" type="line" smooth="yes"/>
			<point x="640" y="472"/>
			<point x="584" y="532"/>
			<point x="484" y="532" type="curve" smooth="yes"/>
			<point x="392" y="532"/>
			<point x="352" y="476"/>
			<point x="312" y="420" type="curve"/>
			<point x="264" y="420" type="line"/>
			<point x="264" y="348" type="line"/>
			<point x="304" y="376"/>
			<point x="336" y="388"/>
			<point x="372" y="388" type="curve" smooth="yes"/>
			<point x="416" y="388"/>
			<point x="436" y="368"/>
			<point x="436" y="320" type="curve" smooth="yes"/>
			<point x="436" y="221" type="line" smooth="yes"/>
			<point x="436" y="147"/>
			<point x="436" y="74"/>
		</contour>
	</outline>
	<anchor name="aboveLC" x="389" y="536"/>
	<anchor name="belowLC" x="372" y="-20"/>
</glyph>
<glyph name="r" format="2">
	<unicode hex="0072"/>
	<advance width="545"/>
	<outline>
		<contour>
			<point x="28" y="0" type="line"/>
			<point x="372" y="0" type="line"/>
			<point x="372" y="76" type="line"/>
			<point x="244" y="76" type="line"/>
			<point x="136" y="76" type="line"/>
			<point x="28" y="76" type="line"/>
		</contour>
		<contour>
			<point x="88" y="0" type="curve"/>
			<point x="292" y="0" type="line"/>
			<point x="292" y="73"/>
			<point x="292" y="147"/>
			<point x="292" y="220" type="curve" smooth="yes"/>
			<point x="292" y="388" type="line"/>
			<point x="274" y="388" type="line"/>
			<point x="260" y="516" type="line"/>
			<point x="204" y="516" type="line"/>
			<point x="24" y="456" type="line"/>
			<point x="24" y="384" type="line"/>
			<point x="88" y="384" type="line"/>
			<point x="88" y="348"/>
			<point x="88" y="312"/>
			<point x="88" y="276" type="curve" smooth="yes"/>
			<point x="88" y="220" type="line" smooth="yes"/>
			<point x="88" y="147"/>
			<point x="88" y="73"/>
		</contour>
		<contour>
			<point x="260" y="276" type="line"/>
			<point x="283" y="342"/>
			<point x="330" y="384"/>
			<point x="400" y="400" type="curve"/>
			<point x="342" y="400" type="line"/>
			<point x="346" y="394" type="line" smooth="yes"/>
			<point x="369" y="360"/>
			<point x="399" y="344"/>
			<point x="436" y="344" type="curve" smooth="yes"/>
			<point x="488" y="344"/>
			<point x="526" y="382"/>
			<point x="534" y="440" type="curve"/>
			<point x="523" y="496"/>
			<point x="488" y="526"/>
			<point x="435" y="526" type="curve" smooth="yes"/>
			<point x="370" y="526"/>
			<point x="333" y="493"/>
			<point x="310" y="396" type="curve"/>
			<point x="260" y="396" type="line"/>
		</contour>
	</outline>
	<anchor name="aboveLC" x="320" y="536"/>
	<anchor name="belowLC" x="196" y="-20"/>
</glyph>
<glyph name="s" format="2">
	<unicode hex="0073"/>
	<advance width="528"/>
	<outline>
		<contour>
			<point x="236" y="-16" type="curve" smooth="yes"/>
			<point x="392" y="-16"/>
			<point x="492" y="54"/>
			<point x="492" y="168" type="curve" smooth="yes"/>
			<point x="492" y="268"/>
			<point x="420" y="312"/>
			<point x="328" y="340" type="curve" smooth="yes"/>
			<point x="302" y="348" type="line" smooth="yes"/>
			<point x="236" y="368"/>
			<point x="212" y="382"/>
			<point x="212" y="412" type="curve" smooth="yes"/>
			<point x="212" y="445"/>
			<point x="236" y="464"/>
			<point x="288" y="464" type="curve" smooth="yes"/>
			<point x="320" y="464"/>
			<point x="357" y="460"/>
			<point x="384" y="455" type="curve"/>
			<point x="384" y="508" type="line"/>
			<point x="344" y="508" type="line"/>
			<point x="355" y="386" type="line"/>
			<point x="449" y="386" type="line"/>
			<point x="460" y="496" type="line"/>
			<point x="407" y="516"/>
			<point x="344" y="532"/>
			<point x="280" y="532" type="curve" smooth="yes"/>
			<point x="128" y="532"/>
			<point x="36" y="462"/>
			<point x="36" y="352" type="curve" smooth="yes"/>
			<point x="36" y="252"/>
			<point x="112" y="212"/>
			<point x="196" y="184" type="curve" smooth="yes"/>
			<point x="222" y="176" type="line" smooth="yes"/>
			<point x="288" y="156"/>
			<point x="312" y="140"/>
			<point x="312" y="110" type="curve" smooth="yes"/>
			<point x="312" y="78"/>
			<point x="288" y="52"/>
			<point x="228" y="52" type="curve" smooth="yes"/>
			<point x="180" y="52"/>
			<point x="140" y="57"/>
			<point x="112" y="63" type="curve"/>
			<point x="112" y="24" type="line"/>
			<point x="155" y="28" type="line"/>
			<point x="140" y="138" type="line"/>
			<point x="46" y="138" type="line"/>
			<point x="40" y="20" type="line"/>
			<point x="81" y="4"/>
			<point x="156" y="-16"/>
		</contour>
	</outline>
	<anchor name="aboveLC" x="280" y="536"/>
	<anchor name="baseLC" x="248" y="0"/>
	<anchor name="belowLC" x="249" y="-20"/>
</glyph>
<glyph name="w" format="2">
	<unicode hex="0077"/>
	<advance width="956"/>
	<outline>
		<contour>
			<point x="220" y="0" type="line"/>
			<point x="384" y="0" type="line"/>
			<point x="463" y="255" type="line"/>
			<point x="472" y="392" type="line"/>
			<point x="490" y="392" type="line"/>
			<point x="593" y="0" type="line"/>
			<point x="744" y="0" type="line"/>
			<point x="926" y="516" type="line"/>
			<point x="826" y="516" type="line"/>
			<point x="776" y="304" type="line"/>
			<point x="757" y="116" type="line"/>
			<point x="735" y="116" type="line"/>
			<point x="622" y="516" type="line"/>
			<point x="468" y="516" type="line"/>
			<point x="396" y="280" type="line"/>
			<point x="386" y="116" type="line"/>
			<point x="364" y="116" type="line"/>
			<point x="266" y="516" type="line"/>
			<point x="44" y="516" type="line"/>
		</contour>
		<contour>
			<point x="20" y="444" type="line"/>
			<point x="124" y="428" type="line"/>
			<point x="244" y="428" type="line"/>
			<point x="344" y="444" type="line"/>
			<point x="344" y="516" type="line"/>
			<point x="20" y="516" type="line"/>
		</contour>
		<contour>
			<point x="388" y="444" type="line"/>
			<point x="504" y="432" type="line"/>
			<point x="614" y="432" type="line"/>
			<point x="702" y="444" type="line"/>
			<point x="702" y="516" type="line"/>
			<point x="388" y="516" type="line"/>
		</contour>
		<contour>
			<point x="746" y="444" type="line"/>
			<point x="834" y="428" type="line"/>
			<point x="862" y="428" type="line"/>
			<point x="946" y="444" type="line"/>
			<point x="946" y="516" type="line"/>
			<point x="746" y="516" type="line"/>
		</contour>
	</outline>
	<anchor name="aboveLC" x="542" y="536"/>
	<anchor name="belowLC" x="488" y="-20"/>
</glyph>
<glyph name="z" format="2">
	<unicode hex="007A"/>
	<advance width="556"/>
	<outline>
		<contour>
			<point x="24" y="0" type="line"/>
			<point x="520" y="0" type="line"/>
			<point x="528" y="180" type="line"/>
			<point x="440" y="180" type="line"/>
			<point x="400" y="20" type="line"/>
			<point x="428" y="70" type="line"/>
			<point x="331" y="70" type="line"/>
			<point x="239" y="50" type="line"/>
			<point x="239" y="75" type="line"/>
			<point x="233" y="57" type="line"/>
			<point x="520" y="448" type="line"/>
			<point x="520" y="516" type="line"/>
			<point x="44" y="516" type="line"/>
			<point x="36" y="344" type="line"/>
			<point x="124" y="344" type="line"/>
			<point x="164" y="496" type="line"/>
			<point x="136" y="446" type="line"/>
			<point x="222" y="446" type="line"/>
			<point x="304" y="466" type="line"/>
			<point x="304" y="441" type="line"/>
			<point x="310" y="459" type="line"/>
			<point x="24" y="68" type="line"/>
		</contour>
	</outline>
	<anchor name="aboveLC" x="281" y="536"/>
	<anchor name="belowLC" x="286" y="-20"/>
</glyph>
<glyph name="yen" format="2">
	<unicode hex="00A5"/>
	<advance width="600"/>
	<outline>
		<contour>
			<point x="380" y="241" type="line"/>
			<point x="560" y="628" type="line"/>
			<point x="468" y="628" type="line"/>
			<point x="403" y="454" type="line"/>
			<point x="376" y="336" type="line"/>
			<point x="360" y="336" type="line"/>
			<point x="256" y="628" type="line"/>
			<point x="40" y="628" type="line"/>
			<point x="228" y="241" type="line"/>
		</contour>
		<contour>
			<point x="88" y="556" type="line"/>
			<point x="260" y="556" type="line"/>
			<point x="332" y="556" type="line"/>
			<point x="332" y="628" type="line"/>
			<point x="20" y="628" type="line"/>
			<point x="20" y="556" type="line"/>
		</contour>
		<contour>
			<point x="252" y="72" type="line"/>
			<point x="120" y="72" type="line"/>
			<point x="120" y="0" type="line"/>
			<point x="488" y="0" type="line"/>
			<point x="488" y="72" type="line"/>
			<point x="356" y="72" type="line"/>
		</contour>
		<contour>
			<point x="217" y="169" type="line" smooth="yes"/>
			<point x="217" y="113"/>
			<point x="217" y="56"/>
			<point x="217" y="0" type="curve"/>
			<point x="391" y="0" type="line"/>
			<point x="391" y="56"/>
			<point x="391" y="112"/>
			<point x="391" y="168" type="curve" smooth="yes"/>
			<point x="391" y="312" type="line"/>
			<point x="217" y="312" type="line"/>
		</contour>
		<contour>
			<point x="460" y="556" type="line"/>
			<point x="508" y="556" type="line"/>
			<point x="580" y="556" type="line"/>
			<point x="580" y="628" type="line"/>
			<point x="392" y="628" type="line"/>
			<point x="392" y="556" type="line"/>
		</contour>
		<contour>
			<point x="88" y="138" type="line"/>
			<point x="520" y="138" type="line"/>
			<point x="520" y="202" type="line"/>
			<point x="88" y="202" type="line"/>
		</contour>
		<contour>
			<point x="88" y="268" type="line"/>
			<point x="520" y="268" type="line"/>
			<point x="520" y="332" type="line"/>
			<point x="88" y="332" type="line"/>
		</contour>
	</outline>
</glyph>
<glyph name="brokenbar" format="2">
	<unicode hex="00A6"/>
	<advance width="330"/>
	<outline>
		<contour>
			<point x="100" y="-250" type="line"/>
			<point x="230" y="-250" type="line"/>
			<point x="230" y="200" type="line"/>
			<point x="100" y="200" type="line"/>
		</contour>
		<contour>
			<point x="230" y="320" type="line"/>
			<point x="230" y="750" type="line"/>
			<point x="100" y="750" type="line"/>
			<point x="100" y="320" type="line"/>
		</contour>
	</outline>
</glyph>
<glyph name="registered" format="2">
	<unicode hex="00AE"/>
	<advance width="476"/>
	<outline>
		<contour>
			<point x="348" y="444" type="line"/>
			<point x="296" y="444" type="line"/>
			<point x="328" y="428" type="line"/>
			<point x="320" y="468" type="line" smooth="yes"/>
			<point x="314" y="496"/>
			<point x="304" y="504"/>
			<point x="248" y="504" type="curve"/>
			<point x="248" y="518" type="line"/>
			<point x="304" y="518"/>
			<point x="332" y="532"/>
			<point x="332" y="566" type="curve" smooth="yes"/>
			<point x="332" y="596"/>
			<point x="304" y="616"/>
			<point x="240" y="616" type="curve" smooth="yes"/>
			<point x="208" y="616" type="line"/>
			<point x="208" y="588" type="line"/>
			<point x="232" y="588" type="line" smooth="yes"/>
			<point x="254" y="588"/>
			<point x="264" y="576"/>
			<point x="264" y="556" type="curve" smooth="yes"/>
			<point x="264" y="536"/>
			<point x="254" y="522"/>
			<point x="232" y="520" type="curve" smooth="yes"/>
			<point x="208" y="518" type="line"/>
			<point x="208" y="502" type="line"/>
			<point x="234" y="500" type="line" smooth="yes"/>
			<point x="248" y="499"/>
			<point x="254" y="492"/>
			<point x="256" y="476" type="curve" smooth="yes"/>
			<point x="260" y="448" type="line" smooth="yes"/>
			<point x="264" y="422"/>
			<point x="276" y="409"/>
			<point x="312" y="409" type="curve" smooth="yes"/>
			<point x="328" y="409"/>
			<point x="340" y="412"/>
			<point x="348" y="414" type="curve"/>
		</contour>
		<contour>
			<point x="176" y="444" type="line"/>
			<point x="140" y="444" type="line"/>
			<point x="140" y="412" type="line"/>
			<point x="244" y="412" type="line"/>
			<point x="244" y="444" type="line"/>
			<point x="208" y="444" type="line"/>
		</contour>
		<contour>
			<point x="176" y="584" type="line"/>
			<point x="184" y="584" type="line"/>
			<point x="184" y="616" type="line"/>
			<point x="140" y="616" type="line"/>
			<point x="140" y="584" type="line"/>
		</contour>
		<contour>
			<point x="82" y="511" type="curve" smooth="yes"/>
			<point x="82" y="609"/>
			<point x="152" y="667"/>
			<point x="237" y="667" type="curve" smooth="yes"/>
			<point x="322" y="667"/>
			<point x="391" y="609"/>
			<point x="391" y="511" type="curve" smooth="yes"/>
			<point x="391" y="413"/>
			<point x="322" y="353"/>
			<point x="237" y="353" type="curve" smooth="yes"/>
			<point x="152" y="353"/>
			<point x="82" y="413"/>
		</contour>
		<contour>
			<point x="160" y="412" type="line"/>
			<point x="224" y="412" type="line"/>
			<point x="224" y="616" type="line"/>
			<point x="160" y="616" type="line"/>
		</contour>
		<contour>
			<point x="30" y="511" type="curve" smooth="yes"/>
			<point x="30" y="384"/>
			<point x="126" y="305"/>
			<point x="237" y="305" type="curve" smooth="yes"/>
			<point x="349" y="305"/>
			<point x="444" y="384"/>
			<point x="444" y="511" type="curve" smooth="yes"/>
			<point x="444" y="638"/>
			<point x="349" y="715"/>
			<point x="237" y="715" type="curve" smooth="yes"/>
			<point x="126" y="715"/>
			<point x="30" y="638"/>
		</contour>
	</outline>
</glyph>
<glyph name="degree" format="2">
	<unicode hex="00B0"/>
	<advance width="360"/>
	<outline>
		<contour>
			<point x="180" y="436" type="curve" smooth="yes"/>
			<point x="132" y="436"/>
			<point x="96" y="466"/>
			<point x="96" y="522" type="curve" smooth="yes"/>
			<point x="96" y="578"/>
			<point x="132" y="612"/>
			<point x="180" y="612" type="curve" smooth="yes"/>
			<point x="228" y="612"/>
			<point x="264" y="578"/>
			<point x="264" y="522" type="curve" smooth="yes"/>
			<point x="264" y="466"/>
			<point x="228" y="436"/>
		</contour>
		<contour>
			<point x="180" y="380" type="curve" smooth="yes"/>
			<point x="262" y="380"/>
			<point x="328" y="432"/>
			<point x="328" y="522" type="curve" smooth="yes"/>
			<point x="328" y="612"/>
			<point x="262" y="668"/>
			<point x="180" y="668" type="curve" smooth="yes"/>
			<point x="98" y="668"/>
			<point x="32" y="612"/>
			<point x="32" y="522" type="curve" smooth="yes"/>
			<point x="32" y="432"/>
			<point x="98" y="380"/>
		</contour>
	</outline>
</glyph>
<glyph name="three.sups" format="2">
	<unicode hex="00B3"/>
	<advance width="459"/>
	<outline>
		<contour>
			<point x="229" y="395" type="curve" smooth="yes"/>
			<point x="355" y="395"/>
			<point x="414" y="451"/>
			<point x="414" y="516" type="curve" smooth="yes"/>
			<point x="414" y="589"/>
			<point x="363" y="622"/>
			<point x="235" y="622" type="curve"/>
			<point x="235" y="642" type="line"/>
			<point x="349" y="642"/>
			<point x="402" y="685"/>
			<point x="402" y="749" type="curve" smooth="yes"/>
			<point x="402" y="805"/>
			<point x="350" y="853"/>
			<point x="226" y="853" type="curve" smooth="yes"/>
			<point x="134" y="853"/>
			<point x="78" y="811"/>
			<point x="66" y="738" type="curve"/>
			<point x="72" y="720"/>
			<point x="88" y="703"/>
			<point x="117" y="703" type="curve" smooth="yes"/>
			<point x="145" y="703"/>
			<point x="174" y="715"/>
			<point x="179" y="759" type="curve" smooth="yes"/>
			<point x="187" y="834" type="line"/>
			<point x="142" y="806" type="line"/>
			<point x="153" y="809"/>
			<point x="164" y="812"/>
			<point x="188" y="812" type="curve" smooth="yes"/>
			<point x="229" y="812"/>
			<point x="252" y="789"/>
			<point x="252" y="734" type="curve" smooth="yes"/>
			<point x="252" y="679"/>
			<point x="229" y="656"/>
			<point x="178" y="656" type="curve" smooth="yes"/>
			<point x="155" y="656" type="line"/>
			<point x="155" y="601" type="line"/>
			<point x="178" y="601" type="line" smooth="yes"/>
			<point x="235" y="601"/>
			<point x="257" y="572"/>
			<point x="257" y="524" type="curve" smooth="yes"/>
			<point x="257" y="476"/>
			<point x="235" y="448"/>
			<point x="171" y="448" type="curve" smooth="yes"/>
			<point x="155" y="448"/>
			<point x="138" y="451"/>
			<point x="126" y="454" type="curve"/>
			<point x="162" y="414" type="line"/>
			<point x="157" y="505" type="line" smooth="yes"/>
			<point x="155" y="550"/>
			<point x="127" y="569"/>
			<point x="96" y="569" type="curve" smooth="yes"/>
			<point x="69" y="569"/>
			<point x="50" y="552"/>
			<point x="44" y="523" type="curve"/>
			<point x="56" y="449"/>
			<point x="113" y="395"/>
		</contour>
	</outline>
</glyph>
<glyph name="one.sups" format="2">
	<unicode hex="00B9"/>
	<advance width="459"/>
	<outline>
		<contour>
			<point x="60" y="404" type="line"/>
			<point x="398" y="404" type="line"/>
			<point x="398" y="465" type="line"/>
			<point x="280" y="465" type="line"/>
			<point x="184" y="465" type="line"/>
			<point x="60" y="465" type="line"/>
		</contour>
		<contour>
			<point x="154" y="404" type="line"/>
			<point x="314" y="404" type="line"/>
			<point x="314" y="844" type="line"/>
			<point x="264" y="844" type="line"/>
			<point x="84" y="786" type="line"/>
			<point x="84" y="724" type="line"/>
			<point x="154" y="733" type="line"/>
		</contour>
	</outline>
</glyph>
<glyph name="AE" format="2">
	<unicode hex="00C6"/>
	<advance width="956"/>
	<outline>
		<contour>
			<point x="412" y="0" type="curve"/>
			<point x="628" y="0" type="line"/>
			<point x="628" y="95"/>
			<point x="628" y="189"/>
			<point x="628" y="284" type="curve" smooth="yes"/>
			<point x="628" y="368" type="line" smooth="yes"/>
			<point x="628" y="463"/>
			<point x="628" y="557"/>
			<point x="628" y="652" type="curve"/>
			<point x="412" y="652" type="line"/>
			<point x="412" y="284" type="line" smooth="yes"/>
			<point x="412" y="189"/>
			<point x="412" y="95"/>
		</contour>
		<contour>
			<point x="28" y="0" type="line"/>
			<point x="256" y="0" type="line"/>
			<point x="256" y="80" type="line"/>
			<point x="156" y="80" type="line"/>
			<point x="132" y="80" type="line"/>
			<point x="28" y="80" type="line"/>
		</contour>
		<contour>
			<point x="722" y="228" type="line"/>
			<point x="802" y="228" type="line"/>
			<point x="802" y="436" type="line"/>
			<point x="722" y="436" type="line"/>
			<point x="698" y="348" type="line"/>
			<point x="698" y="316" type="line"/>
		</contour>
		<contour>
			<point x="804" y="480" type="line"/>
			<point x="888" y="480" type="line"/>
			<point x="880" y="652" type="line"/>
			<point x="548" y="652" type="line"/>
			<point x="548" y="576" type="line"/>
			<point x="764" y="576" type="line"/>
		</contour>
		<contour>
			<point x="548" y="0" type="line"/>
			<point x="900" y="0" type="line"/>
			<point x="908" y="180" type="line"/>
			<point x="824" y="180" type="line"/>
			<point x="783" y="76" type="line"/>
			<point x="548" y="76" type="line"/>
		</contour>
		<contour>
			<point x="224" y="572" type="line"/>
			<point x="444" y="572" type="line"/>
			<point x="460" y="572" type="line"/>
			<point x="460" y="652" type="line"/>
			<point x="224" y="652" type="line"/>
		</contour>
		<contour>
			<point x="344" y="0" type="line"/>
			<point x="460" y="0" type="line"/>
			<point x="460" y="80" type="line"/>
			<point x="444" y="80" type="line"/>
			<point x="344" y="80" type="line"/>
		</contour>
		<contour>
			<point x="64" y="0" type="line"/>
			<point x="156" y="0" type="line"/>
			<point x="251" y="226" type="line"/>
			<point x="420" y="652" type="line"/>
			<point x="346" y="652" type="line"/>
		</contour>
		<contour>
			<point x="196" y="188" type="line"/>
			<point x="508" y="188" type="line"/>
			<point x="508" y="260" type="line"/>
			<point x="196" y="260" type="line"/>
		</contour>
		<contour>
			<point x="516" y="292" type="line"/>
			<point x="750" y="292" type="line"/>
			<point x="750" y="372" type="line"/>
			<point x="516" y="372" type="line"/>
		</contour>
	</outline>
	<anchor name="aboveUC" x="583" y="672"/>
</glyph>
<glyph name="germandbls" format="2">
	<unicode hex="00DF"/>
	<advance width="732"/>
	<outline>
		<contour>
			<point x="24" y="0" type="line"/>
			<point x="256" y="0" type="line"/>
			<point x="256" y="76" type="line"/>
			<point x="116" y="76" type="line"/>
			<point x="24" y="76" type="line"/>
		</contour>
		<contour>
			<point x="84" y="0" type="curve"/>
			<point x="288" y="0" type="line"/>
			<point x="288" y="73"/>
			<point x="288" y="147"/>
			<point x="288" y="220" type="curve" smooth="yes"/>
			<point x="288" y="540" type="line" smooth="yes"/>
			<point x="288" y="588"/>
			<point x="300" y="610"/>
			<point x="316" y="626" type="curve" smooth="yes"/>
			<point x="332" y="642"/>
			<point x="356" y="654"/>
			<point x="392" y="654" type="curve" smooth="yes"/>
			<point x="452" y="654"/>
			<point x="484" y="614"/>
			<point x="484" y="562" type="curve" smooth="yes"/>
			<point x="484" y="510"/>
			<point x="468" y="484"/>
			<point x="420" y="444" type="curve" smooth="yes"/>
			<point x="372" y="404"/>
			<point x="340" y="372"/>
			<point x="340" y="320" type="curve" smooth="yes"/>
			<point x="340" y="256"/>
			<point x="384" y="224"/>
			<point x="468" y="188" type="curve" smooth="yes"/>
			<point x="524" y="164"/>
			<point x="540" y="148"/>
			<point x="540" y="116" type="curve" smooth="yes"/>
			<point x="540" y="84"/>
			<point x="516" y="56"/>
			<point x="468" y="56" type="curve" smooth="yes"/>
			<point x="428" y="56"/>
			<point x="380" y="64"/>
			<point x="356" y="72" type="curve"/>
			<point x="428" y="8" type="line"/>
			<point x="428" y="152" type="line"/>
			<point x="344" y="152" type="line"/>
			<point x="336" y="16" type="line"/>
			<point x="364" y="0"/>
			<point x="420" y="-16"/>
			<point x="476" y="-16" type="curve" smooth="yes"/>
			<point x="628" y="-16"/>
			<point x="704" y="60"/>
			<point x="704" y="164" type="curve" smooth="yes"/>
			<point x="704" y="244"/>
			<point x="640" y="300"/>
			<point x="560" y="340" type="curve" smooth="yes"/>
			<point x="504" y="368"/>
			<point x="496" y="384"/>
			<point x="496" y="402" type="curve" smooth="yes"/>
			<point x="496" y="420"/>
			<point x="504" y="436"/>
			<point x="552" y="464" type="curve" smooth="yes"/>
			<point x="600" y="492"/>
			<point x="648" y="510"/>
			<point x="648" y="582" type="curve" smooth="yes"/>
			<point x="648" y="662"/>
			<point x="572" y="722"/>
			<point x="404" y="722" type="curve" smooth="yes"/>
			<point x="340" y="722"/>
			<point x="272" y="710"/>
			<point x="220" y="682" type="curve" smooth="yes"/>
			<point x="132" y="634"/>
			<point x="84" y="564"/>
			<point x="84" y="420" type="curve" smooth="yes"/>
			<point x="84" y="220" type="line" smooth="yes"/>
			<point x="84" y="147"/>
			<point x="84" y="73"/>
		</contour>
	</outline>
</glyph>
<glyph name="dcroat" format="2">
	<unicode hex="0111"/>
	<advance width="680"/>
	<outline>
		<contour>
			<point x="284" y="521" type="line"/>
			<point x="664" y="521" type="line"/>
			<point x="664" y="585" type="line"/>
			<point x="284" y="585" type="line"/>
		</contour>
		<contour>
			<point x="244" y="242" type="curve" smooth="yes"/>
			<point x="244" y="333"/>
			<point x="276" y="372"/>
			<point x="336" y="372" type="curve" smooth="yes"/>
			<point x="373" y="372"/>
			<point x="406" y="359"/>
			<point x="428" y="340" type="curve"/>
			<point x="428" y="400" type="line"/>
			<point x="368" y="400" type="line"/>
			<point x="348" y="448"/>
			<point x="316" y="496"/>
			<point x="228" y="496" type="curve" smooth="yes"/>
			<point x="116" y="496"/>
			<point x="36" y="399"/>
			<point x="36" y="238" type="curve" smooth="yes"/>
			<point x="36" y="77"/>
			<point x="116" y="-16"/>
			<point x="228" y="-16" type="curve" smooth="yes"/>
			<point x="316" y="-16"/>
			<point x="347" y="43"/>
			<point x="368" y="93" type="curve"/>
			<point x="428" y="93" type="line"/>
			<point x="428" y="149" type="line"/>
			<point x="402" y="128"/>
			<point x="368" y="116"/>
			<point x="336" y="116" type="curve" smooth="yes"/>
			<point x="276" y="116"/>
			<point x="244" y="151"/>
		</contour>
		<contour>
			<point x="660" y="0" type="line"/>
			<point x="660" y="68" type="line"/>
			<point x="600" y="84" type="line"/>
			<point x="600" y="566" type="line"/>
			<point x="600" y="710" type="line"/>
			<point x="546" y="710" type="line"/>
			<point x="332" y="684" type="line"/>
			<point x="332" y="624" type="line"/>
			<point x="396" y="618" type="line"/>
			<point x="404" y="372" type="line"/>
			<point x="396" y="372" type="line"/>
			<point x="396" y="96" type="line"/>
			<point x="404" y="96" type="line"/>
			<point x="424" y="-8" type="line"/>
		</contour>
	</outline>
</glyph>
<glyph name="hbar" format="2">
	<unicode hex="0127"/>
	<advance width="712"/>
	<outline>
		<contour>
			<point x="84" y="0" type="curve"/>
			<point x="288" y="0" type="line"/>
			<point x="288" y="73"/>
			<point x="288" y="147"/>
			<point x="288" y="220" type="curve" smooth="yes"/>
			<point x="288" y="363" type="line"/>
			<point x="288" y="365" type="line"/>
			<point x="288" y="552" type="line"/>
			<point x="288" y="710" type="line"/>
			<point x="224" y="710" type="line"/>
			<point x="20" y="684" type="line"/>
			<point x="20" y="624" type="line"/>
			<point x="84" y="618" type="line"/>
			<point x="84" y="220" type="line" smooth="yes"/>
			<point x="84" y="147"/>
			<point x="84" y="73"/>
		</contour>
		<contour>
			<point x="24" y="0" type="line"/>
			<point x="332" y="0" type="line"/>
			<point x="332" y="76" type="line"/>
			<point x="240" y="76" type="line"/>
			<point x="132" y="76" type="line"/>
			<point x="24" y="76" type="line"/>
		</contour>
		<contour>
			<point x="384" y="0" type="line"/>
			<point x="692" y="0" type="line"/>
			<point x="692" y="76" type="line"/>
			<point x="584" y="76" type="line"/>
			<point x="476" y="76" type="line"/>
			<point x="384" y="76" type="line"/>
		</contour>
		<contour>
			<point x="20" y="521" type="line"/>
			<point x="400" y="521" type="line"/>
			<point x="400" y="585" type="line"/>
			<point x="20" y="585" type="line"/>
		</contour>
		<contour>
			<point x="428" y="0" type="curve"/>
			<point x="632" y="0" type="line"/>
			<point x="632" y="63"/>
			<point x="632" y="126"/>
			<point x="632" y="189" type="curve" smooth="yes"/>
			<point x="632" y="320" type="line" smooth="yes"/>
			<point x="632" y="436"/>
			<point x="576" y="496"/>
			<point x="476" y="496" type="curve" smooth="yes"/>
			<point x="384" y="496"/>
			<point x="344" y="436"/>
			<point x="320" y="388" type="curve"/>
			<point x="256" y="388" type="line"/>
			<point x="256" y="316" type="line"/>
			<point x="296" y="344"/>
			<point x="328" y="356"/>
			<point x="364" y="356" type="curve" smooth="yes"/>
			<point x="408" y="356"/>
			<point x="428" y="336"/>
			<point x="428" y="288" type="curve" smooth="yes"/>
			<point x="428" y="189" type="line" smooth="yes"/>
			<point x="428" y="126"/>
			<point x="428" y="63"/>
		</contour>
	</outline>
</glyph>
<glyph name="dotlessi" format="2">
	<unicode hex="0131"/>
	<advance width="376"/>
	<outline>
		<contour>
			<point x="28" y="0" type="line"/>
			<point x="352" y="0" type="line"/>
			<point x="352" y="76" type="line"/>
			<point x="244" y="76" type="line"/>
			<point x="136" y="76" type="line"/>
			<point x="28" y="76" type="line"/>
		</contour>
		<contour>
			<point x="88" y="0" type="curve"/>
			<point x="292" y="0" type="line"/>
			<point x="292" y="73"/>
			<point x="292" y="147"/>
			<point x="292" y="220" type="curve" smooth="yes"/>
			<point x="292" y="370" type="line"/>
			<point x="292" y="516" type="line"/>
			<point x="228" y="516" type="line"/>
			<point x="24" y="456" type="line"/>
			<point x="24" y="384" type="line"/>
			<point x="88" y="384" type="line"/>
			<point x="88" y="348"/>
			<point x="88" y="312"/>
			<point x="88" y="276" type="curve" smooth="yes"/>
			<point x="88" y="220" type="line" smooth="yes"/>
			<point x="88" y="147"/>
			<point x="88" y="73"/>
		</contour>
	</outline>
	<anchor name="aboveLC" x="193" y="536"/>
	<anchor name="belowLC" x="200" y="-20"/>
	<anchor name="ogonek" x="236" y="0"/>
</glyph>
<glyph name="OE" format="2">
	<unicode hex="0152"/>
	<advance width="1000"/>
	<outline>
		<contour>
			<point x="268" y="328" type="curve" smooth="yes"/>
			<point x="268" y="488"/>
			<point x="320" y="584"/>
			<point x="432" y="584" type="curve" smooth="yes"/>
			<point x="472" y="584"/>
			<point x="496" y="576"/>
			<point x="520" y="568" type="curve"/>
			<point x="520" y="648" type="line"/>
			<point x="496" y="656"/>
			<point x="456" y="664"/>
			<point x="400" y="664" type="curve" smooth="yes"/>
			<point x="208" y="664"/>
			<point x="44" y="560"/>
			<point x="44" y="324" type="curve" smooth="yes"/>
			<point x="44" y="88"/>
			<point x="208" y="-12"/>
			<point x="400" y="-12" type="curve" smooth="yes"/>
			<point x="456" y="-12"/>
			<point x="496" y="-4"/>
			<point x="520" y="4" type="curve"/>
			<point x="520" y="84" type="line"/>
			<point x="496" y="76"/>
			<point x="472" y="68"/>
			<point x="432" y="68" type="curve" smooth="yes"/>
			<point x="320" y="68"/>
			<point x="268" y="168"/>
		</contour>
		<contour>
			<point x="464" y="0" type="curve"/>
			<point x="672" y="0" type="line"/>
			<point x="672" y="95"/>
			<point x="672" y="189"/>
			<point x="672" y="303" type="curve" smooth="yes"/>
			<point x="672" y="368" type="line" smooth="yes"/>
			<point x="672" y="463"/>
			<point x="672" y="557"/>
			<point x="672" y="652" type="curve"/>
			<point x="464" y="652" type="line"/>
			<point x="464" y="557"/>
			<point x="464" y="463"/>
			<point x="464" y="368" type="curve" smooth="yes"/>
			<point x="464" y="303" type="line" smooth="yes"/>
			<point x="464" y="189"/>
			<point x="464" y="95"/>
		</contour>
		<contour>
			<point x="764" y="228" type="line"/>
			<point x="844" y="228" type="line"/>
			<point x="844" y="436" type="line"/>
			<point x="764" y="436" type="line"/>
			<point x="740" y="348" type="line"/>
			<point x="740" y="316" type="line"/>
		</contour>
		<contour>
			<point x="560" y="292" type="line"/>
			<point x="792" y="292" type="line"/>
			<point x="792" y="372" type="line"/>
			<point x="560" y="372" type="line"/>
		</contour>
		<contour>
			<point x="848" y="480" type="line"/>
			<point x="932" y="480" type="line"/>
			<point x="924" y="652" type="line"/>
			<point x="592" y="652" type="line"/>
			<point x="592" y="576" type="line"/>
			<point x="808" y="576" type="line"/>
		</contour>
		<contour>
			<point x="868" y="180" type="line"/>
			<point x="827" y="76" type="line"/>
			<point x="592" y="76" type="line"/>
			<point x="592" y="0" type="line"/>
			<point x="944" y="0" type="line"/>
			<point x="952" y="180" type="line"/>
		</contour>
	</outline>
	<anchor name="aboveUC" x="570" y="672"/>
</glyph>
<glyph name="uogonek" format="2">
	<unicode hex="0173"/>
	<advance width="712"/>
	<outline>
		<contour>
			<point x="331" y="-132" type="curve" smooth="yes"/>
			<point x="331" y="-192"/>
			<point x="375" y="-232"/>
			<point x="455" y="-232" type="curve" smooth="yes"/>
			<point x="531" y="-232"/>
			<point x="571" y="-204"/>
			<point x="591" y="-188" type="curve"/>
			<point x="571" y="-124" type="line"/>
			<point x="559" y="-128"/>
			<point x="547" y="-132"/>
			<point x="523" y="-132" type="curve" smooth="yes"/>
			<point x="483" y="-132"/>
			<point x="459" y="-112"/>
			<point x="459" y="-78" type="curve" smooth="yes"/>
			<point x="459" y="-44"/>
			<point x="475" y="-16"/>
			<point x="511" y="8" type="curve"/>
			<point x="455" y="8" type="line"/>
			<point x="395" y="-16"/>
			<point x="331" y="-56"/>
		</contour>
		<component base="u"/>
	</outline>
	<anchor name="aboveLC" x="356" y="536"/>
	<anchor name="belowLC" x="356" y="-20"/>
</glyph>
<glyph name="longs" format="2">
	<unicode hex="017F"/>
	<advance width="396"/>
	<outline>
		<contour>
			<point x="20" y="0" type="line"/>
			<point x="360" y="0" type="line"/>
			<point x="360" y="76" type="line"/>
			<point x="252" y="76" type="line"/>
			<point x="112" y="76" type="line"/>
			<point x="20" y="76" type="line"/>
		</contour>
		<contour>
			<point x="80" y="0" type="curve"/>
			<point x="284" y="0" type="line"/>
			<point x="284" y="73"/>
			<point x="284" y="147"/>
			<point x="284" y="220" type="curve" smooth="yes"/>
			<point x="284" y="476" type="line" smooth="yes"/>
			<point x="284" y="590"/>
			<point x="284" y="632"/>
			<point x="288" y="688" type="curve" smooth="yes"/>
			<point x="289" y="700"/>
			<point x="289" y="705"/>
			<point x="291" y="716" type="curve"/>
			<point x="280" y="684" type="line"/>
			<point x="328" y="684" type="line"/>
			<point x="299" y="715" type="line"/>
			<point x="334" y="624" type="line" smooth="yes"/>
			<point x="351" y="579"/>
			<point x="374" y="559"/>
			<point x="417" y="559" type="curve" smooth="yes"/>
			<point x="470" y="559"/>
			<point x="491" y="594"/>
			<point x="494" y="642" type="curve"/>
			<point x="469" y="703"/>
			<point x="418" y="722"/>
			<point x="326" y="722" type="curve" smooth="yes"/>
			<point x="255" y="722"/>
			<point x="210" y="702"/>
			<point x="180" y="677" type="curve" smooth="yes"/>
			<point x="112" y="621"/>
			<point x="80" y="563"/>
			<point x="80" y="416" type="curve" smooth="yes"/>
			<point x="80" y="220" type="line" smooth="yes"/>
			<point x="80" y="147"/>
			<point x="80" y="73"/>
		</contour>
	</outline>
</glyph>
<glyph name="Schwa" format="2">
	<unicode hex="018F"/>
	<advance width="712"/>
	<outline>
		<contour>
			<point x="44" y="284" type="curve" smooth="yes"/>
			<point x="44" y="76"/>
			<point x="172" y="-16"/>
			<point x="352" y="-16" type="curve" smooth="yes"/>
			<point x="532" y="-16"/>
			<point x="668" y="92"/>
			<point x="668" y="340" type="curve" smooth="yes"/>
			<point x="668" y="568"/>
			<point x="520" y="668"/>
			<point x="332" y="668" type="curve" smooth="yes"/>
			<point x="227" y="668"/>
			<point x="144" y="629"/>
			<point x="84" y="552" type="curve"/>
			<point x="128" y="500" type="line"/>
			<point x="170" y="542"/>
			<point x="214" y="560"/>
			<point x="272" y="560" type="curve" smooth="yes"/>
			<point x="376" y="560"/>
			<point x="444" y="500"/>
			<point x="444" y="316" type="curve" smooth="yes"/>
			<point x="444" y="132"/>
			<point x="412" y="64"/>
			<point x="352" y="64" type="curve" smooth="yes"/>
			<point x="292" y="64"/>
			<point x="260" y="124"/>
			<point x="260" y="228" type="curve" smooth="yes"/>
			<point x="260" y="252"/>
			<point x="262" y="276"/>
			<point x="266" y="294" type="curve"/>
			<point x="556" y="294" type="line"/>
			<point x="556" y="370" type="line"/>
			<point x="52" y="370" type="line"/>
			<point x="48" y="356"/>
			<point x="44" y="324"/>
		</contour>
	</outline>
	<anchor name="aboveUC" x="351" y="672"/>
	<anchor name="belowLC" x="355" y="-20"/>
</glyph>
<glyph name="Uhorn" format="2">
	<unicode hex="01AF"/>
	<advance width="780"/>
	<outline>
		<contour>
			<point x="392" y="-16" type="curve" smooth="yes"/>
			<point x="584" y="-16"/>
			<point x="680" y="76"/>
			<point x="680" y="248" type="curve" smooth="yes"/>
			<point x="680" y="652" type="line"/>
			<point x="596" y="652" type="line"/>
			<point x="596" y="252" type="line" smooth="yes"/>
			<point x="596" y="124"/>
			<point x="544" y="72"/>
			<point x="456" y="72" type="curve" smooth="yes"/>
			<point x="368" y="72"/>
			<point x="316" y="124"/>
			<point x="316" y="252" type="curve" smooth="yes"/>
			<point x="316" y="368" type="line" smooth="yes"/>
			<point x="316" y="463"/>
			<point x="316" y="557"/>
			<point x="316" y="652" type="curve"/>
			<point x="100" y="652" type="line"/>
			<point x="100" y="557"/>
			<point x="100" y="463"/>
			<point x="100" y="368" type="curve" smooth="yes"/>
			<point x="100" y="248" type="line" smooth="yes"/>
			<point x="100" y="60"/>
			<point x="216" y="-16"/>
		</contour>
		<contour>
			<point x="644" y="596" type="line"/>
			<point x="757" y="596"/>
			<point x="819" y="656"/>
			<point x="819" y="748" type="curve" smooth="yes"/>
			<point x="819" y="780"/>
			<point x="812" y="797"/>
			<point x="801" y="819" type="curve"/>
			<point x="788" y="826"/>
			<point x="770" y="832"/>
			<point x="746" y="832" type="curve" smooth="yes"/>
			<point x="702" y="832"/>
			<point x="680" y="803"/>
			<point x="680" y="763" type="curve" smooth="yes"/>
			<point x="680" y="716"/>
			<point x="705" y="708"/>
			<point x="705" y="680" type="curve" smooth="yes"/>
			<point x="705" y="659"/>
			<point x="679" y="652"/>
			<point x="644" y="652" type="curve"/>
		</contour>
		<contour>
			<point x="24" y="572" type="line"/>
			<point x="148" y="572" type="line"/>
			<point x="268" y="572" type="line"/>
			<point x="400" y="572" type="line"/>
			<point x="400" y="652" type="line"/>
			<point x="24" y="652" type="line"/>
		</contour>
		<contour>
			<point x="512" y="572" type="line"/>
			<point x="612" y="572" type="line"/>
			<point x="628" y="572" type="line"/>
			<point x="628" y="652" type="line"/>
			<point x="512" y="652" type="line"/>
		</contour>
	</outline>
	<anchor name="aboveUC" x="448" y="672"/>
	<anchor name="belowLC" x="410" y="-20"/>
</glyph>
<glyph name="h.sups" format="2">
	<unicode hex="02B0"/>
	<advance width="512"/>
	<outline>
		<contour>
			<point x="67" y="415" type="line"/>
			<point x="209" y="415" type="line"/>
			<point x="209" y="684" type="line"/>
			<point x="207" y="684" type="line"/>
			<point x="209" y="894" type="line"/>
			<point x="164" y="894" type="line"/>
			<point x="22" y="869" type="line"/>
			<point x="22" y="828" type="line"/>
			<point x="67" y="814" type="line"/>
		</contour>
		<contour>
			<point x="306" y="415" type="line"/>
			<point x="449" y="415" type="line"/>
			<point x="449" y="653" type="line" smooth="yes"/>
			<point x="449" y="732"/>
			<point x="409" y="776"/>
			<point x="340" y="776" type="curve" smooth="yes"/>
			<point x="276" y="776"/>
			<point x="248" y="731"/>
			<point x="231" y="699" type="curve"/>
			<point x="186" y="699" type="line"/>
			<point x="186" y="649" type="line"/>
			<point x="214" y="667"/>
			<point x="237" y="674"/>
			<point x="262" y="674" type="curve" smooth="yes"/>
			<point x="292" y="674"/>
			<point x="306" y="662"/>
			<point x="306" y="631" type="curve" smooth="yes"/>
		</contour>
		<contour>
			<point x="25" y="415" type="line"/>
			<point x="239" y="415" type="line"/>
			<point x="239" y="468" type="line"/>
			<point x="175" y="468" type="line"/>
			<point x="100" y="468" type="line"/>
			<point x="25" y="468" type="line"/>
		</contour>
		<contour>
			<point x="276" y="415" type="line"/>
			<point x="490" y="415" type="line"/>
			<point x="490" y="468" type="line"/>
			<point x="415" y="468" type="line"/>
			<point x="340" y="468" type="line"/>
			<point x="276" y="468" type="line"/>
		</contour>
	</outline>
</glyph>
<glyph name="j.sups" format="2">
	<unicode hex="02B2"/>
	<advance width="258"/>
	<outline>
		<contour>
			<point x="46" y="258" type="curve" smooth="yes"/>
			<point x="99" y="258"/>
			<point x="140" y="281"/>
			<point x="163" y="313" type="curve" smooth="yes"/>
			<point x="188" y="348"/>
			<point x="200" y="391"/>
			<point x="200" y="480" type="curve" smooth="yes"/>
			<point x="200" y="765" type="line"/>
			<point x="156" y="765" type="line"/>
			<point x="14" y="723" type="line"/>
			<point x="14" y="673" type="line"/>
			<point x="58" y="673" type="line"/>
			<point x="58" y="537" type="line" smooth="yes"/>
			<point x="58" y="431"/>
			<point x="76" y="378"/>
			<point x="76" y="317" type="curve" smooth="yes"/>
			<point x="76" y="308"/>
			<point x="76" y="297"/>
			<point x="76" y="286" type="curve"/>
			<point x="92" y="300" type="line"/>
			<point x="36" y="300" type="line"/>
			<point x="58" y="289" type="line"/>
			<point x="53" y="316" type="line" smooth="yes"/>
			<point x="46" y="353"/>
			<point x="31" y="373"/>
			<point x="-2" y="373" type="curve" smooth="yes"/>
			<point x="-31" y="373"/>
			<point x="-51" y="353"/>
			<point x="-56" y="314" type="curve"/>
			<point x="-46" y="274"/>
			<point x="-13" y="258"/>
		</contour>
		<contour>
			<point x="128" y="802" type="curve" smooth="yes"/>
			<point x="169" y="802"/>
			<point x="197" y="829"/>
			<point x="197" y="868" type="curve" smooth="yes"/>
			<point x="197" y="906"/>
			<point x="169" y="933"/>
			<point x="128" y="933" type="curve" smooth="yes"/>
			<point x="87" y="933"/>
			<point x="58" y="906"/>
			<point x="58" y="868" type="curve" smooth="yes"/>
			<point x="58" y="829"/>
			<point x="87" y="802"/>
		</contour>
	</outline>
</glyph>
<glyph name="w.sups" format="2">
	<unicode hex="02B7"/>
	<advance width="644"/>
	<outline>
		<contour>
			<point x="150" y="404" type="line"/>
			<point x="272" y="404" type="line"/>
			<point x="340" y="624" type="line"/>
			<point x="353" y="624" type="line"/>
			<point x="397" y="404" type="line"/>
			<point x="501" y="404" type="line"/>
			<point x="629" y="758" type="line"/>
			<point x="548" y="758" type="line"/>
			<point x="504" y="538" type="line"/>
			<point x="479" y="538" type="line"/>
			<point x="439" y="739" type="line"/>
			<point x="316" y="740" type="line"/>
			<point x="261" y="538" type="line"/>
			<point x="236" y="538" type="line"/>
			<point x="199" y="758" type="line"/>
			<point x="19" y="758" type="line"/>
		</contour>
		<contour>
			<point x="9" y="705" type="line"/>
			<point x="84" y="692" type="line"/>
			<point x="172" y="692" type="line"/>
			<point x="244" y="705" type="line"/>
			<point x="244" y="758" type="line"/>
			<point x="9" y="758" type="line"/>
		</contour>
		<contour>
			<point x="268" y="705" type="line"/>
			<point x="354" y="694" type="line"/>
			<point x="412" y="694" type="line"/>
			<point x="479" y="705" type="line"/>
			<point x="479" y="758" type="line"/>
			<point x="268" y="758" type="line"/>
		</contour>
		<contour>
			<point x="502" y="705" type="line"/>
			<point x="559" y="692" type="line"/>
			<point x="576" y="692" type="line"/>
			<point x="635" y="705" type="line"/>
			<point x="635" y="758" type="line"/>
			<point x="502" y="758" type="line"/>
		</contour>
	</outline>
</glyph>
<glyph name="y.sups" format="2">
	<unicode hex="02B8"/>
	<advance width="467"/>
	<outline>
		<contour>
			<point x="117" y="258" type="curve" smooth="yes"/>
			<point x="220" y="258"/>
			<point x="265" y="328"/>
			<point x="295" y="407" type="curve" smooth="yes"/>
			<point x="429" y="765" type="line"/>
			<point x="359" y="765" type="line"/>
			<point x="281" y="486" type="line"/>
			<point x="248" y="405" type="line" smooth="yes"/>
			<point x="228" y="360"/>
			<point x="203" y="321"/>
			<point x="184" y="303" type="curve"/>
			<point x="145" y="303" type="line"/>
			<point x="170" y="288" type="line"/>
			<point x="153" y="322" type="line" smooth="yes"/>
			<point x="142" y="345"/>
			<point x="125" y="370"/>
			<point x="83" y="370" type="curve" smooth="yes"/>
			<point x="47" y="370"/>
			<point x="25" y="345"/>
			<point x="19" y="314" type="curve"/>
			<point x="28" y="286"/>
			<point x="61" y="258"/>
		</contour>
		<contour>
			<point x="22" y="715" type="line"/>
			<point x="92" y="704" type="line"/>
			<point x="192" y="704" type="line"/>
			<point x="259" y="715" type="line"/>
			<point x="259" y="765" type="line"/>
			<point x="22" y="765" type="line"/>
		</contour>
		<contour>
			<point x="295" y="715" type="line"/>
			<point x="362" y="704" type="line"/>
			<point x="376" y="704" type="line"/>
			<point x="446" y="715" type="line"/>
			<point x="446" y="765" type="line"/>
			<point x="295" y="765" type="line"/>
		</contour>
		<contour>
			<point x="217" y="337" type="line"/>
			<point x="309" y="495" type="line"/>
			<point x="262" y="495" type="line"/>
			<point x="195" y="765" type="line"/>
			<point x="41" y="765" type="line"/>
		</contour>
	</outline>
</glyph>
<glyph name="ringhalfleftmod" format="2">
	<unicode hex="02BF"/>
	<advance width="234"/>
	<outline>
		<contour>
			<point x="46" y="602" type="curve" smooth="yes"/>
			<point x="46" y="524"/>
			<point x="102" y="482"/>
			<point x="190" y="482" type="curve"/>
			<point x="190" y="548" type="line"/>
			<point x="148" y="548"/>
			<point x="126" y="568"/>
			<point x="126" y="602" type="curve" smooth="yes"/>
			<point x="126" y="636"/>
			<point x="148" y="656"/>
			<point x="190" y="656" type="curve"/>
			<point x="190" y="722" type="line"/>
			<point x="102" y="722"/>
			<point x="46" y="680"/>
		</contour>
	</outline>
</glyph>
<glyph name="l.sups" format="2">
	<unicode hex="02E1"/>
	<advance width="275"/>
	<outline>
		<contour>
			<point x="25" y="415" type="line"/>
			<point x="251" y="415" type="line"/>
			<point x="251" y="468" type="line"/>
			<point x="175" y="468" type="line"/>
			<point x="100" y="468" type="line"/>
			<point x="25" y="468" type="line"/>
		</contour>
		<contour>
			<point x="67" y="415" type="line"/>
			<point x="209" y="415" type="line"/>
			<point x="209" y="894" type="line"/>
			<point x="164" y="894" type="line"/>
			<point x="22" y="869" type="line"/>
			<point x="22" y="828" type="line"/>
			<point x="67" y="814" type="line"/>
		</contour>
	</outline>
</glyph>
<glyph name="s.sups" format="2">
	<unicode hex="02E2"/>
	<advance width="384"/>
	<outline>
		<contour>
			<point x="172" y="404" type="curve" smooth="yes"/>
			<point x="281" y="404"/>
			<point x="351" y="452"/>
			<point x="351" y="530" type="curve" smooth="yes"/>
			<point x="351" y="599"/>
			<point x="301" y="629"/>
			<point x="237" y="648" type="curve" smooth="yes"/>
			<point x="218" y="653" type="line" smooth="yes"/>
			<point x="172" y="667"/>
			<point x="156" y="676"/>
			<point x="156" y="695" type="curve" smooth="yes"/>
			<point x="156" y="717"/>
			<point x="172" y="729"/>
			<point x="209" y="729" type="curve" smooth="yes"/>
			<point x="231" y="729"/>
			<point x="257" y="726"/>
			<point x="276" y="724" type="curve"/>
			<point x="276" y="761" type="line"/>
			<point x="248" y="761" type="line"/>
			<point x="255" y="678" type="line"/>
			<point x="321" y="678" type="line"/>
			<point x="329" y="751" type="line"/>
			<point x="292" y="765"/>
			<point x="248" y="776"/>
			<point x="203" y="776" type="curve" smooth="yes"/>
			<point x="97" y="776"/>
			<point x="33" y="728"/>
			<point x="33" y="652" type="curve" smooth="yes"/>
			<point x="33" y="583"/>
			<point x="86" y="556"/>
			<point x="145" y="537" type="curve" smooth="yes"/>
			<point x="163" y="531" type="line" smooth="yes"/>
			<point x="209" y="518"/>
			<point x="225" y="508"/>
			<point x="225" y="488" type="curve" smooth="yes"/>
			<point x="225" y="467"/>
			<point x="209" y="451"/>
			<point x="167" y="451" type="curve" smooth="yes"/>
			<point x="133" y="451"/>
			<point x="106" y="454"/>
			<point x="86" y="457" type="curve"/>
			<point x="86" y="431" type="line"/>
			<point x="116" y="434" type="line"/>
			<point x="106" y="507" type="line"/>
			<point x="40" y="507" type="line"/>
			<point x="36" y="429" type="line"/>
			<point x="64" y="418"/>
			<point x="117" y="404"/>
		</contour>
	</outline>
</glyph>
<glyph name="gravecmb" format="2">
	<unicode hex="0300"/>
	<outline>
		<contour>
			<point x="74" y="604" type="line"/>
			<point x="49" y="643"/>
			<point x="25" y="683"/>
			<point x="0" y="722" type="curve" smooth="yes"/>
			<point x="-34" y="776"/>
			<point x="-56" y="792"/>
			<point x="-92" y="792" type="curve" smooth="yes"/>
			<point x="-128" y="792"/>
			<point x="-156" y="768"/>
			<point x="-156" y="730" type="curve" smooth="yes"/>
			<point x="-156" y="692"/>
			<point x="-136" y="674"/>
			<point x="-96" y="644" type="curve" smooth="yes"/>
			<point x="-58" y="616"/>
			<point x="-20" y="588"/>
			<point x="18" y="560" type="curve"/>
		</contour>
	</outline>
	<anchor name="_aboveLC" x="0" y="536"/>
	<anchor name="aboveLC" x="0" y="792"/>
</glyph>
<glyph name="brevecmb" format="2">
	<unicode hex="0306"/>
	<outline>
		<contour>
			<point x="-172" y="739" type="line"/>
			<point x="-160" y="647"/>
			<point x="-104" y="575"/>
			<point x="0" y="575" type="curve" smooth="yes"/>
			<point x="104" y="575"/>
			<point x="160" y="647"/>
			<point x="172" y="739" type="curve"/>
			<point x="100" y="751" type="line"/>
			<point x="88" y="703"/>
			<point x="56" y="671"/>
			<point x="0" y="671" type="curve" smooth="yes"/>
			<point x="-56" y="671"/>
			<point x="-88" y="703"/>
			<point x="-100" y="751" type="curve"/>
		</contour>
	</outline>
	<anchor name="_aboveLC" x="0" y="536"/>
	<anchor name="aboveLC" x="0" y="751"/>
</glyph>
<glyph name="dieresiscmb" format="2">
	<unicode hex="0308"/>
	<outline>
		<contour>
			<point x="-121" y="578" type="curve" smooth="yes"/>
			<point x="-71" y="578"/>
			<point x="-31" y="618"/>
			<point x="-31" y="668" type="curve" smooth="yes"/>
			<point x="-31" y="718"/>
			<point x="-71" y="758"/>
			<point x="-121" y="758" type="curve" smooth="yes"/>
			<point x="-171" y="758"/>
			<point x="-211" y="718"/>
			<point x="-211" y="668" type="curve" smooth="yes"/>
			<point x="-211" y="618"/>
			<point x="-171" y="578"/>
		</contour>
		<contour>
			<point x="121" y="578" type="curve" smooth="yes"/>
			<point x="171" y="578"/>
			<point x="211" y="618"/>
			<point x="211" y="668" type="curve" smooth="yes"/>
			<point x="211" y="718"/>
			<point x="171" y="758"/>
			<point x="121" y="758" type="curve" smooth="yes"/>
			<point x="71" y="758"/>
			<point x="31" y="718"/>
			<point x="31" y="668" type="curve" smooth="yes"/>
			<point x="31" y="618"/>
			<point x="71" y="578"/>
		</contour>
	</outline>
	<anchor name="_aboveLC" x="0" y="536"/>
	<anchor name="aboveLC" x="0" y="758"/>
</glyph>
<glyph name="hoicmb" format="2">
	<unicode hex="0309"/>
	<outline>
		<contour>
			<point x="-40" y="576" type="line"/>
			<point x="40" y="588"/>
			<point x="96" y="620"/>
			<point x="96" y="696" type="curve" smooth="yes"/>
			<point x="96" y="772"/>
			<point x="40" y="808"/>
			<point x="-64" y="819" type="curve"/>
			<point x="-76" y="708" type="line"/>
			<point x="-16" y="702"/>
			<point x="0" y="690"/>
			<point x="0" y="670" type="curve" smooth="yes"/>
			<point x="0" y="650"/>
			<point x="-16" y="642"/>
			<point x="-56" y="636" type="curve"/>
		</contour>
	</outline>
	<anchor name="_aboveLC" x="0" y="536"/>
	<anchor name="aboveLC" x="0" y="819"/>
</glyph>
<glyph name="ringcmb" format="2">
	<unicode hex="030A"/>
	<outline>
		<contour>
			<point x="0" y="636" type="curve" smooth="yes"/>
			<point x="-34" y="636"/>
			<point x="-60" y="660"/>
			<point x="-60" y="694" type="curve" smooth="yes"/>
			<point x="-60" y="728"/>
			<point x="-34" y="752"/>
			<point x="0" y="752" type="curve" smooth="yes"/>
			<point x="34" y="752"/>
			<point x="60" y="728"/>
			<point x="60" y="694" type="curve" smooth="yes"/>
			<point x="60" y="660"/>
			<point x="34" y="636"/>
		</contour>
		<contour>
			<point x="0" y="572" type="curve" smooth="yes"/>
			<point x="76" y="572"/>
			<point x="132" y="624"/>
			<point x="132" y="694" type="curve" smooth="yes"/>
			<point x="132" y="764"/>
			<point x="76" y="816"/>
			<point x="0" y="816" type="curve" smooth="yes"/>
			<point x="-76" y="816"/>
			<point x="-132" y="764"/>
			<point x="-132" y="694" type="curve" smooth="yes"/>
			<point x="-132" y="624"/>
			<point x="-76" y="572"/>
		</contour>
	</outline>
	<anchor name="_aboveLC" x="0" y="536"/>
	<anchor name="aboveLC" x="0" y="816"/>
</glyph>
<glyph name="commabelowcmb" format="2">
	<unicode hex="0326"/>
	<outline>
		<contour>
			<point x="76" y="-117" type="curve" smooth="yes"/>
			<point x="76" y="-94"/>
			<point x="71" y="-75"/>
			<point x="64" y="-62" type="curve"/>
			<point x="51" y="-50"/>
			<point x="29" y="-40"/>
			<point x="4" y="-40" type="curve" smooth="yes"/>
			<point x="-51" y="-40"/>
			<point x="-81" y="-73"/>
			<point x="-81" y="-117" type="curve" smooth="yes"/>
			<point x="-81" y="-159"/>
			<point x="-52" y="-189"/>
			<point x="7" y="-208" type="curve"/>
			<point x="9" y="-147" type="line"/>
			<point x="-15" y="-189"/>
			<point x="-30" y="-209"/>
			<point x="-83" y="-227" type="curve"/>
			<point x="-64" y="-277" type="line"/>
			<point x="28" y="-253"/>
			<point x="76" y="-203"/>
		</contour>
	</outline>
	<anchor name="_belowLC" x="0" y="-20"/>
	<anchor name="belowLC" x="1" y="-284"/>
</glyph>
<glyph name="ogonekcmb" format="2">
	<unicode hex="0328"/>
	<outline>
		<contour>
			<point x="-16" y="-232" type="curve" smooth="yes"/>
			<point x="51" y="-232"/>
			<point x="87" y="-206"/>
			<point x="106" y="-191" type="curve"/>
			<point x="86" y="-127" type="line"/>
			<point x="77" y="-130"/>
			<point x="67" y="-132"/>
			<point x="48" y="-132" type="curve" smooth="yes"/>
			<point x="8" y="-132"/>
			<point x="-16" y="-112"/>
			<point x="-16" y="-78" type="curve" smooth="yes"/>
			<point x="-16" y="-42"/>
			<point x="6" y="-16"/>
			<point x="48" y="8" type="curve"/>
			<point x="-28" y="8" type="line"/>
			<point x="-28" y="-28" type="line"/>
			<point x="-88" y="-36"/>
			<point x="-144" y="-60"/>
			<point x="-144" y="-132" type="curve" smooth="yes"/>
			<point x="-144" y="-192"/>
			<point x="-100" y="-232"/>
		</contour>
	</outline>
	<anchor name="_ogonek" x="0" y="0"/>
</glyph>
<glyph name="verticallinebelowcmb" format="2">
	<unicode hex="0329"/>
	<outline>
		<contour>
			<point x="-72" y="-248" type="line"/>
			<point x="72" y="-248" type="line"/>
			<point x="56" y="-44" type="line"/>
			<point x="-56" y="-44" type="line"/>
		</contour>
	</outline>
	<anchor name="_belowLC" x="0" y="-20"/>
	<anchor name="belowLC" x="0" y="-248"/>
</glyph>
<glyph name="Gamma" format="2">
	<unicode hex="0393"/>
	<advance width="604"/>
	<outline>
		<contour>
			<point x="104" y="0" type="curve"/>
			<point x="320" y="0" type="line"/>
			<point x="320" y="95"/>
			<point x="320" y="189"/>
			<point x="320" y="284" type="curve" smooth="yes"/>
			<point x="320" y="368" type="line" smooth="yes"/>
			<point x="320" y="463"/>
			<point x="320" y="557"/>
			<point x="320" y="652" type="curve"/>
			<point x="104" y="652" type="line"/>
			<point x="104" y="557"/>
			<point x="104" y="463"/>
			<point x="104" y="368" type="curve" smooth="yes"/>
			<point x="104" y="284" type="line" smooth="yes"/>
			<point x="104" y="189"/>
			<point x="104" y="95"/>
		</contour>
		<contour>
			<point x="240" y="576" type="line"/>
			<point x="488" y="576" type="line"/>
			<point x="428" y="624" type="line"/>
			<point x="488" y="456" type="line"/>
			<point x="572" y="456" type="line"/>
			<point x="564" y="652" type="line"/>
			<point x="240" y="652" type="line"/>
		</contour>
		<contour>
			<point x="28" y="0" type="line"/>
			<point x="412" y="0" type="line"/>
			<point x="412" y="80" type="line"/>
			<point x="288" y="80" type="line"/>
			<point x="136" y="80" type="line"/>
			<point x="28" y="80" type="line"/>
		</contour>
		<contour>
			<point x="28" y="572" type="line"/>
			<point x="136" y="572" type="line"/>
			<point x="152" y="572" type="line"/>
			<point x="152" y="652" type="line"/>
			<point x="28" y="652" type="line"/>
		</contour>
	</outline>
</glyph>
<glyph name="Lambda" format="2">
	<unicode hex="039B"/>
	<advance width="744"/>
	<outline>
		<contour>
			<point x="12" y="0" type="line"/>
			<point x="240" y="0" type="line"/>
			<point x="240" y="80" type="line"/>
			<point x="140" y="80" type="line"/>
			<point x="116" y="80" type="line"/>
			<point x="12" y="80" type="line"/>
		</contour>
		<contour>
			<point x="48" y="0" type="line"/>
			<point x="140" y="0" type="line"/>
			<point x="249" y="356" type="line"/>
			<point x="283" y="549" type="line"/>
			<point x="294" y="549" type="line"/>
			<point x="470" y="0" type="line"/>
			<point x="696" y="0" type="line"/>
			<point x="460" y="652" type="line"/>
			<point x="276" y="652" type="line"/>
		</contour>
		<contour>
			<point x="368" y="0" type="line"/>
			<point x="732" y="0" type="line"/>
			<point x="732" y="80" type="line"/>
			<point x="612" y="80" type="line"/>
			<point x="488" y="80" type="line"/>
			<point x="368" y="80" type="line"/>
		</contour>
	</outline>
</glyph>
<glyph name="Xi" format="2">
	<unicode hex="039E"/>
	<advance width="648"/>
	<outline>
		<contour>
			<point x="44" y="0" type="line"/>
			<point x="604" y="0" type="line"/>
			<point x="608" y="196" type="line"/>
			<point x="524" y="196" type="line"/>
			<point x="468" y="28" type="line"/>
			<point x="528" y="120" type="line"/>
			<point x="120" y="120" type="line"/>
			<point x="180" y="28" type="line"/>
			<point x="124" y="196" type="line"/>
			<point x="40" y="196" type="line"/>
		</contour>
		<contour>
			<point x="148" y="232" type="line"/>
			<point x="224" y="232" type="line"/>
			<point x="252" y="316" type="line"/>
			<point x="252" y="348" type="line"/>
			<point x="224" y="432" type="line"/>
			<point x="148" y="432" type="line"/>
		</contour>
		<contour>
			<point x="200" y="283" type="line"/>
			<point x="448" y="283" type="line"/>
			<point x="448" y="381" type="line"/>
			<point x="200" y="381" type="line"/>
		</contour>
		<contour>
			<point x="424" y="232" type="line"/>
			<point x="500" y="232" type="line"/>
			<point x="500" y="432" type="line"/>
			<point x="424" y="432" type="line"/>
			<point x="396" y="348" type="line"/>
			<point x="396" y="316" type="line"/>
		</contour>
		<contour>
			<point x="52" y="472" type="line"/>
			<point x="136" y="472" type="line"/>
			<point x="196" y="624" type="line"/>
			<point x="128" y="540" type="line"/>
			<point x="520" y="540" type="line"/>
			<point x="452" y="624" type="line"/>
			<point x="512" y="472" type="line"/>
			<point x="596" y="472" type="line"/>
			<point x="588" y="652" type="line"/>
			<point x="60" y="652" type="line"/>
		</contour>
	</outline>
</glyph>
<glyph name="Pi" format="2">
	<unicode hex="03A0"/>
	<advance width="848"/>
	<outline>
		<contour>
			<point x="116" y="0" type="curve"/>
			<point x="332" y="0" type="line"/>
			<point x="332" y="95"/>
			<point x="332" y="189"/>
			<point x="332" y="284" type="curve" smooth="yes"/>
			<point x="332" y="368" type="line" smooth="yes"/>
			<point x="332" y="463"/>
			<point x="332" y="557"/>
			<point x="332" y="652" type="curve"/>
			<point x="116" y="652" type="line"/>
			<point x="116" y="557"/>
			<point x="116" y="463"/>
			<point x="116" y="368" type="curve" smooth="yes"/>
			<point x="116" y="284" type="line" smooth="yes"/>
			<point x="116" y="189"/>
			<point x="116" y="95"/>
		</contour>
		<contour>
			<point x="516" y="0" type="curve"/>
			<point x="732" y="0" type="line"/>
			<point x="732" y="95"/>
			<point x="732" y="189"/>
			<point x="732" y="284" type="curve" smooth="yes"/>
			<point x="732" y="368" type="line" smooth="yes"/>
			<point x="732" y="463"/>
			<point x="732" y="557"/>
			<point x="732" y="652" type="curve"/>
			<point x="516" y="652" type="line"/>
			<point x="516" y="557"/>
			<point x="516" y="463"/>
			<point x="516" y="368" type="curve" smooth="yes"/>
			<point x="516" y="284" type="line" smooth="yes"/>
			<point x="516" y="189"/>
			<point x="516" y="95"/>
		</contour>
		<contour>
			<point x="32" y="0" type="line"/>
			<point x="392" y="0" type="line"/>
			<point x="392" y="80" type="line"/>
			<point x="284" y="80" type="line"/>
			<point x="164" y="80" type="line"/>
			<point x="32" y="80" type="line"/>
		</contour>
		<contour>
			<point x="456" y="0" type="line"/>
			<point x="816" y="0" type="line"/>
			<point x="816" y="80" type="line"/>
			<point x="684" y="80" type="line"/>
			<point x="564" y="80" type="line"/>
			<point x="456" y="80" type="line"/>
		</contour>
		<contour>
			<point x="32" y="572" type="line"/>
			<point x="132" y="572" type="line"/>
			<point x="148" y="572" type="line"/>
			<point x="148" y="652" type="line"/>
			<point x="32" y="652" type="line"/>
		</contour>
		<contour>
			<point x="700" y="572" type="line"/>
			<point x="716" y="572" type="line"/>
			<point x="816" y="572" type="line"/>
			<point x="816" y="652" type="line"/>
			<point x="700" y="652" type="line"/>
		</contour>
		<contour>
			<point x="236" y="572" type="line"/>
			<point x="612" y="572" type="line"/>
			<point x="612" y="652" type="line"/>
			<point x="236" y="652" type="line"/>
		</contour>
	</outline>
</glyph>
<glyph name="Sigma" format="2">
	<unicode hex="03A3"/>
	<advance width="600"/>
	<outline>
		<contour>
			<point x="28" y="0" type="line"/>
			<point x="560" y="0" type="line"/>
			<point x="568" y="244" type="line"/>
			<point x="484" y="244" type="line"/>
			<point x="440" y="28" type="line"/>
			<point x="484" y="122" type="line"/>
			<point x="121" y="122" type="line"/>
			<point x="121" y="154" type="line"/>
			<point x="113" y="138" type="line"/>
			<point x="286" y="255" type="line"/>
			<point x="430" y="372" type="line"/>
			<point x="232" y="590" type="line"/>
			<point x="238" y="572" type="line"/>
			<point x="238" y="600" type="line"/>
			<point x="364" y="580" type="line"/>
			<point x="484" y="580" type="line"/>
			<point x="424" y="624" type="line"/>
			<point x="476" y="456" type="line"/>
			<point x="560" y="456" type="line"/>
			<point x="552" y="652" type="line"/>
			<point x="40" y="652" type="line"/>
			<point x="40" y="564" type="line"/>
			<point x="260" y="318" type="line"/>
			<point x="260" y="330" type="line"/>
			<point x="28" y="124" type="line"/>
		</contour>
	</outline>
</glyph>
<glyph name="zeta" format="2">
	<unicode hex="03B6"/>
	<advance width="472"/>
	<outline>
		<contour>
			<point x="284" y="-204" type="curve"/>
			<point x="364" y="-204" type="line"/>
			<point x="396" y="-172"/>
			<point x="452" y="-108"/>
			<point x="452" y="-28" type="curve" smooth="yes"/>
			<point x="452" y="52"/>
			<point x="396" y="84"/>
			<point x="316" y="120" type="curve" smooth="yes"/>
			<point x="236" y="156"/>
			<point x="212" y="180"/>
			<point x="212" y="236" type="curve" smooth="yes"/>
			<point x="212" y="318"/>
			<point x="266" y="383"/>
			<point x="460" y="630" type="curve"/>
			<point x="460" y="710" type="line"/>
			<point x="60" y="722" type="line"/>
			<point x="60" y="586" type="line"/>
			<point x="391" y="606" type="line"/>
			<point x="391" y="576" type="line"/>
			<point x="399" y="592" type="line"/>
			<point x="160" y="457"/>
			<point x="36" y="335"/>
			<point x="36" y="196" type="curve" smooth="yes"/>
			<point x="36" y="76"/>
			<point x="132" y="36"/>
			<point x="212" y="0" type="curve" smooth="yes"/>
			<point x="292" y="-36"/>
			<point x="316" y="-60"/>
			<point x="316" y="-100" type="curve" smooth="yes"/>
			<point x="316" y="-140"/>
			<point x="300" y="-172"/>
		</contour>
	</outline>
</glyph>
<glyph name="kappa" format="2">
	<unicode hex="03BA"/>
	<advance width="664"/>
	<outline>
		<contour>
			<point x="104" y="-16" type="line"/>
			<point x="292" y="20" type="line"/>
			<point x="292" y="86"/>
			<point x="292" y="152"/>
			<point x="292" y="218" type="curve"/>
			<point x="276" y="218" type="line"/>
			<point x="283" y="276"/>
			<point x="292" y="342"/>
			<point x="292" y="400" type="curve" smooth="yes"/>
			<point x="292" y="488"/>
			<point x="240" y="532"/>
			<point x="148" y="532" type="curve" smooth="yes"/>
			<point x="76" y="532"/>
			<point x="28" y="500"/>
			<point x="4" y="472" type="curve"/>
			<point x="28" y="416" type="line"/>
			<point x="32" y="418"/>
			<point x="44" y="424"/>
			<point x="60" y="424" type="curve" smooth="yes"/>
			<point x="86" y="424"/>
			<point x="100" y="410"/>
			<point x="100" y="376" type="curve" smooth="yes"/>
			<point x="100" y="220" type="line"/>
			<point x="72" y="16" type="line"/>
		</contour>
		<contour>
			<point x="284" y="116" type="line"/>
			<point x="308" y="180"/>
			<point x="340" y="240"/>
			<point x="372" y="284" type="curve"/>
			<point x="404" y="332"/>
			<point x="428" y="360"/>
			<point x="476" y="400" type="curve"/>
			<point x="388" y="360" type="line"/>
			<point x="504" y="360" type="line" smooth="yes"/>
			<point x="592" y="360"/>
			<point x="632" y="400"/>
			<point x="632" y="456" type="curve" smooth="yes"/>
			<point x="632" y="496"/>
			<point x="608" y="520"/>
			<point x="576" y="532" type="curve"/>
			<point x="524" y="528"/>
			<point x="476" y="504"/>
			<point x="428" y="452" type="curve" smooth="yes"/>
			<point x="380" y="400"/>
			<point x="332" y="308"/>
			<point x="308" y="236" type="curve"/>
			<point x="250" y="236" type="line"/>
		</contour>
		<contour>
			<point x="524" y="-16" type="curve" smooth="yes"/>
			<point x="592" y="-16"/>
			<point x="624" y="44"/>
			<point x="648" y="100" type="curve"/>
			<point x="624" y="148" type="line"/>
			<point x="612" y="144"/>
			<point x="600" y="140"/>
			<point x="580" y="140" type="curve" smooth="yes"/>
			<point x="532" y="140"/>
			<point x="484" y="168"/>
			<point x="380" y="328" type="curve"/>
			<point x="348" y="304" type="line"/>
			<point x="404" y="24"/>
			<point x="452" y="-16"/>
		</contour>
	</outline>
</glyph>
<glyph name="nu" format="2">
	<unicode hex="03BD"/>
	<advance width="614"/>
	<outline>
		<contour>
			<point x="221" y="0" type="curve"/>
			<point x="395" y="0" type="line"/>
			<point x="482" y="133"/>
			<point x="582" y="286"/>
			<point x="582" y="428" type="curve" smooth="yes"/>
			<point x="582" y="468"/>
			<point x="577" y="495"/>
			<point x="569" y="515" type="curve"/>
			<point x="557" y="525"/>
			<point x="537" y="532"/>
			<point x="515" y="532" type="curve" smooth="yes"/>
			<point x="446" y="532"/>
			<point x="406" y="488"/>
			<point x="406" y="420" type="curve" smooth="yes"/>
			<point x="406" y="356"/>
			<point x="434" y="316"/>
			<point x="498" y="212" type="curve"/>
			<point x="490" y="364" type="line"/>
			<point x="471" y="258"/>
			<point x="450" y="197"/>
			<point x="434" y="160" type="curve"/>
			<point x="392" y="48" type="line"/>
			<point x="378" y="48" type="line"/>
			<point x="374" y="168"/>
			<point x="346" y="304"/>
			<point x="318" y="396" type="curve" smooth="yes"/>
			<point x="290" y="489"/>
			<point x="244" y="532"/>
			<point x="164" y="532" type="curve" smooth="yes"/>
			<point x="88" y="532"/>
			<point x="25" y="492"/>
			<point x="2" y="459" type="curve"/>
			<point x="25" y="404" type="line"/>
			<point x="31" y="406"/>
			<point x="39" y="408"/>
			<point x="51" y="408" type="curve" smooth="yes"/>
			<point x="81" y="408"/>
			<point x="97" y="400"/>
			<point x="129" y="312" type="curve" smooth="yes"/>
			<point x="160" y="225"/>
			<point x="195" y="104"/>
		</contour>
	</outline>
</glyph>
<glyph name="rho" format="2">
	<unicode hex="03C1"/>
	<advance width="676"/>
	<outline>
		<contour>
			<point x="56" y="-164" type="line"/>
			<point x="88" y="-196" type="line"/>
			<point x="276" y="-170" type="line"/>
			<point x="240" y="68" type="line"/>
			<point x="272" y="68" type="line"/>
			<point x="272" y="264" type="line" smooth="yes"/>
			<point x="272" y="407"/>
			<point x="296" y="456"/>
			<point x="352" y="456" type="curve" smooth="yes"/>
			<point x="408" y="456"/>
			<point x="432" y="407"/>
			<point x="432" y="272" type="curve" smooth="yes"/>
			<point x="432" y="137"/>
			<point x="400" y="92"/>
			<point x="336" y="92" type="curve" smooth="yes"/>
			<point x="288" y="92"/>
			<point x="257" y="111"/>
			<point x="232" y="136" type="curve"/>
			<point x="232" y="60" type="line"/>
			<point x="280" y="60" type="line"/>
			<point x="305" y="10"/>
			<point x="344" y="-16"/>
			<point x="424" y="-16" type="curve" smooth="yes"/>
			<point x="536" y="-16"/>
			<point x="640" y="49"/>
			<point x="640" y="256" type="curve" smooth="yes"/>
			<point x="640" y="463"/>
			<point x="512" y="532"/>
			<point x="352" y="532" type="curve" smooth="yes"/>
			<point x="192" y="532"/>
			<point x="64" y="463"/>
			<point x="64" y="248" type="curve" smooth="yes"/>
			<point x="64" y="85" type="line"/>
		</contour>
	</outline>
	<anchor name="aboveLC" x="361" y="536"/>
</glyph>
<glyph name="sigma.end" format="2">
	<unicode hex="03C2"/>
	<advance width="532"/>
	<outline>
		<contour>
			<point x="324" y="-204" type="curve"/>
			<point x="404" y="-204" type="line"/>
			<point x="436" y="-172"/>
			<point x="492" y="-100"/>
			<point x="492" y="-20" type="curve" smooth="yes"/>
			<point x="492" y="60"/>
			<point x="436" y="100"/>
			<point x="340" y="140" type="curve" smooth="yes"/>
			<point x="244" y="180"/>
			<point x="212" y="220"/>
			<point x="212" y="308" type="curve" smooth="yes"/>
			<point x="212" y="396"/>
			<point x="252" y="480"/>
			<point x="340" y="480" type="curve" smooth="yes"/>
			<point x="356" y="480"/>
			<point x="372" y="480"/>
			<point x="388" y="480" type="curve"/>
			<point x="276" y="496" type="line"/>
			<point x="324" y="432" type="line" smooth="yes"/>
			<point x="360" y="384"/>
			<point x="388" y="368"/>
			<point x="432" y="368" type="curve" smooth="yes"/>
			<point x="484" y="368"/>
			<point x="508" y="404"/>
			<point x="512" y="452" type="curve"/>
			<point x="488" y="492"/>
			<point x="436" y="532"/>
			<point x="316" y="532" type="curve" smooth="yes"/>
			<point x="132" y="532"/>
			<point x="36" y="420"/>
			<point x="36" y="268" type="curve" smooth="yes"/>
			<point x="36" y="116"/>
			<point x="140" y="52"/>
			<point x="236" y="12" type="curve" smooth="yes"/>
			<point x="332" y="-28"/>
			<point x="356" y="-52"/>
			<point x="356" y="-92" type="curve" smooth="yes"/>
			<point x="356" y="-132"/>
			<point x="340" y="-172"/>
		</contour>
	</outline>
</glyph>
<glyph name="sigma" format="2">
	<unicode hex="03C3"/>
	<advance width="668"/>
	<outline>
		<contour>
			<point x="324" y="-16" type="curve" smooth="yes"/>
			<point x="484" y="-16"/>
			<point x="616" y="69"/>
			<point x="616" y="223" type="curve" smooth="yes"/>
			<point x="616" y="351"/>
			<point x="480" y="398"/>
			<point x="367" y="431" type="curve"/>
			<point x="319" y="431" type="line"/>
			<point x="372" y="403"/>
			<point x="408" y="341"/>
			<point x="408" y="232" type="curve" smooth="yes"/>
			<point x="408" y="109"/>
			<point x="380" y="60"/>
			<point x="328" y="60" type="curve" smooth="yes"/>
			<point x="276" y="60"/>
			<point x="244" y="109"/>
			<point x="244" y="224" type="curve" smooth="yes"/>
			<point x="244" y="321"/>
			<point x="295" y="393"/>
			<point x="377" y="422" type="curve"/>
			<point x="384" y="447" type="line"/>
			<point x="658" y="392" type="line"/>
			<point x="656" y="532" type="line"/>
			<point x="372" y="516" type="line" smooth="yes"/>
			<point x="153" y="504"/>
			<point x="32" y="403"/>
			<point x="36" y="224" type="curve" smooth="yes"/>
			<point x="39" y="69"/>
			<point x="156" y="-16"/>
		</contour>
	</outline>
</glyph>
<glyph name="phi" format="2">
	<unicode hex="03C6"/>
	<advance width="844"/>
	<outline>
		<contour>
			<point x="316" y="-164" type="line"/>
			<point x="348" y="-196" type="line"/>
			<point x="528" y="-170" type="line"/>
			<point x="496" y="36" type="line"/>
			<point x="472" y="652" type="line"/>
			<point x="372" y="652" type="line"/>
			<point x="348" y="36" type="line"/>
		</contour>
		<contour>
			<point x="392" y="-4" type="curve"/>
			<point x="392" y="60" type="line"/>
			<point x="284" y="60"/>
			<point x="236" y="128"/>
			<point x="236" y="258" type="curve" smooth="yes"/>
			<point x="236" y="388"/>
			<point x="284" y="456"/>
			<point x="392" y="456" type="curve"/>
			<point x="392" y="520" type="line"/>
			<point x="164" y="520"/>
			<point x="36" y="432"/>
			<point x="36" y="256" type="curve" smooth="yes"/>
			<point x="36" y="80"/>
			<point x="164" y="-4"/>
		</contour>
		<contour>
			<point x="452" y="-4" type="line"/>
			<point x="680" y="-4"/>
			<point x="808" y="84"/>
			<point x="808" y="260" type="curve" smooth="yes"/>
			<point x="808" y="436"/>
			<point x="680" y="520"/>
			<point x="452" y="520" type="curve"/>
			<point x="452" y="456" type="line"/>
			<point x="560" y="456"/>
			<point x="608" y="388"/>
			<point x="608" y="258" type="curve" smooth="yes"/>
			<point x="608" y="128"/>
			<point x="560" y="60"/>
			<point x="452" y="60" type="curve"/>
		</contour>
	</outline>
</glyph>
<glyph name="omega" format="2">
	<unicode hex="03C9"/>
	<advance width="880"/>
	<outline>
		<contour>
			<point x="244" y="-12" type="curve" smooth="yes"/>
			<point x="352" y="-12"/>
			<point x="412" y="44"/>
			<point x="428" y="140" type="curve"/>
			<point x="452" y="140" type="line"/>
			<point x="468" y="44"/>
			<point x="528" y="-12"/>
			<point x="636" y="-12" type="curve" smooth="yes"/>
			<point x="760" y="-12"/>
			<point x="844" y="68"/>
			<point x="844" y="208" type="curve" smooth="yes"/>
			<point x="844" y="348"/>
			<point x="764" y="480"/>
			<point x="612" y="532" type="curve"/>
			<point x="564" y="476" type="line"/>
			<point x="628" y="392"/>
			<point x="644" y="300"/>
			<point x="644" y="208" type="curve" smooth="yes"/>
			<point x="644" y="116"/>
			<point x="616" y="84"/>
			<point x="576" y="84" type="curve" smooth="yes"/>
			<point x="536" y="84"/>
			<point x="516" y="116"/>
			<point x="516" y="204" type="curve" smooth="yes"/>
			<point x="516" y="232"/>
			<point x="523" y="319"/>
			<point x="528" y="396" type="curve"/>
			<point x="488" y="428" type="line"/>
			<point x="348" y="396" type="line"/>
			<point x="356" y="340"/>
			<point x="364" y="268"/>
			<point x="364" y="204" type="curve" smooth="yes"/>
			<point x="364" y="116"/>
			<point x="344" y="84"/>
			<point x="304" y="84" type="curve" smooth="yes"/>
			<point x="264" y="84"/>
			<point x="236" y="116"/>
			<point x="236" y="208" type="curve" smooth="yes"/>
			<point x="236" y="300"/>
			<point x="252" y="392"/>
			<point x="316" y="476" type="curve"/>
			<point x="268" y="532" type="line"/>
			<point x="116" y="480"/>
			<point x="36" y="348"/>
			<point x="36" y="208" type="curve" smooth="yes"/>
			<point x="36" y="68"/>
			<point x="120" y="-12"/>
		</contour>
	</outline>
	<anchor name="aboveLC" x="436" y="536"/>
	<anchor name="belowLC" x="440" y="-20"/>
</glyph>
<glyph name="Ieukran" format="2">
	<unicode hex="0404"/>
	<advance width="684"/>
	<outline>
		<contour>
			<point x="420" y="-16" type="curve" smooth="yes"/>
			<point x="524" y="-16"/>
			<point x="592" y="4"/>
			<point x="640" y="24" type="curve"/>
			<point x="644" y="192" type="line"/>
			<point x="556" y="192" type="line"/>
			<point x="508" y="40" type="line"/>
			<point x="588" y="40" type="line"/>
			<point x="588" y="104" type="line"/>
			<point x="541" y="76"/>
			<point x="502" y="64"/>
			<point x="450" y="64" type="curve" smooth="yes"/>
			<point x="340" y="64"/>
			<point x="268" y="114"/>
			<point x="268" y="328" type="curve" smooth="yes"/>
			<point x="268" y="542"/>
			<point x="348" y="588"/>
			<point x="446" y="588" type="curve" smooth="yes"/>
			<point x="502" y="588"/>
			<point x="542" y="575"/>
			<point x="584" y="548" type="curve"/>
			<point x="584" y="612" type="line"/>
			<point x="504" y="612" type="line"/>
			<point x="552" y="460" type="line"/>
			<point x="640" y="460" type="line"/>
			<point x="636" y="628" type="line"/>
			<point x="600" y="648"/>
			<point x="524" y="668"/>
			<point x="424" y="668" type="curve" smooth="yes"/>
			<point x="224" y="668"/>
			<point x="44" y="568"/>
			<point x="44" y="324" type="curve" smooth="yes"/>
			<point x="44" y="80"/>
			<point x="216" y="-16"/>
		</contour>
		<contour>
			<point x="232" y="292" type="line"/>
			<point x="456" y="292" type="line"/>
			<point x="456" y="372" type="line"/>
			<point x="232" y="372" type="line"/>
		</contour>
		<contour>
			<point x="428" y="228" type="line"/>
			<point x="508" y="228" type="line"/>
			<point x="508" y="436" type="line"/>
			<point x="428" y="436" type="line"/>
			<point x="404" y="348" type="line"/>
			<point x="404" y="316" type="line"/>
		</contour>
	</outline>
	<anchor name="aboveUC" x="428" y="672"/>
</glyph>
<glyph name="Tshe" format="2">
	<unicode hex="040B"/>
	<advance width="912"/>
	<outline>
		<contour>
			<point x="32" y="448" type="line"/>
			<point x="116" y="448" type="line"/>
			<point x="172" y="624" type="line"/>
			<point x="104" y="576" type="line"/>
			<point x="648" y="576" type="line"/>
			<point x="580" y="624" type="line"/>
			<point x="636" y="464" type="line"/>
			<point x="720" y="464" type="line"/>
			<point x="716" y="652" type="line"/>
			<point x="36" y="652" type="line"/>
		</contour>
		<contour>
			<point x="252" y="0" type="curve"/>
			<point x="468" y="0" type="line"/>
			<point x="468" y="95"/>
			<point x="468" y="189"/>
			<point x="468" y="284" type="curve" smooth="yes"/>
			<point x="468" y="368" type="line" smooth="yes"/>
			<point x="468" y="463"/>
			<point x="468" y="557"/>
			<point x="468" y="652" type="curve"/>
			<point x="252" y="652" type="line"/>
			<point x="252" y="557"/>
			<point x="252" y="463"/>
			<point x="252" y="368" type="curve" smooth="yes"/>
			<point x="252" y="284" type="line" smooth="yes"/>
			<point x="252" y="189"/>
			<point x="252" y="95"/>
		</contour>
		<contour>
			<point x="608" y="0" type="curve"/>
			<point x="828" y="0" type="line"/>
			<point x="828" y="240" type="line" smooth="yes"/>
			<point x="828" y="356"/>
			<point x="756" y="404"/>
			<point x="604" y="404" type="curve" smooth="yes"/>
			<point x="516" y="404"/>
			<point x="452" y="388"/>
			<point x="412" y="376" type="curve"/>
			<point x="412" y="304" type="line"/>
			<point x="444" y="320"/>
			<point x="476" y="328"/>
			<point x="516" y="328" type="curve" smooth="yes"/>
			<point x="584" y="328"/>
			<point x="608" y="296"/>
			<point x="608" y="232" type="curve" smooth="yes"/>
			<point x="608" y="155"/>
			<point x="608" y="77"/>
		</contour>
		<contour>
			<point x="176" y="0" type="line"/>
			<point x="516" y="0" type="line"/>
			<point x="516" y="80" type="line"/>
			<point x="420" y="80" type="line"/>
			<point x="300" y="80" type="line"/>
			<point x="176" y="80" type="line"/>
		</contour>
		<contour>
			<point x="560" y="0" type="line"/>
			<point x="892" y="0" type="line"/>
			<point x="892" y="80" type="line"/>
			<point x="776" y="80" type="line"/>
			<point x="656" y="80" type="line"/>
			<point x="560" y="80" type="line"/>
		</contour>
	</outline>
</glyph>
<glyph name="De" format="2">
	<unicode hex="0414"/>
	<advance width="744"/>
	<outline>
		<contour>
			<point x="32" y="-184" type="line"/>
			<point x="116" y="-184" type="line"/>
			<point x="152" y="48" type="line"/>
			<point x="92" y="0" type="line"/>
			<point x="636" y="0" type="line"/>
			<point x="584" y="48" type="line"/>
			<point x="620" y="-184" type="line"/>
			<point x="704" y="-184" type="line"/>
			<point x="712" y="76" type="line"/>
			<point x="24" y="76" type="line"/>
		</contour>
		<contour>
			<point x="136" y="572" type="line"/>
			<point x="260" y="572" type="line"/>
			<point x="276" y="572" type="line"/>
			<point x="276" y="652" type="line"/>
			<point x="136" y="652" type="line"/>
		</contour>
		<contour>
			<point x="284" y="576" type="line"/>
			<point x="452" y="576" type="line"/>
			<point x="452" y="652" type="line"/>
			<point x="284" y="652" type="line"/>
		</contour>
		<contour>
			<point x="420" y="0" type="curve"/>
			<point x="636" y="0" type="line"/>
			<point x="636" y="95"/>
			<point x="636" y="189"/>
			<point x="636" y="284" type="curve" smooth="yes"/>
			<point x="636" y="368" type="line" smooth="yes"/>
			<point x="636" y="463"/>
			<point x="636" y="557"/>
			<point x="636" y="652" type="curve"/>
			<point x="420" y="652" type="line"/>
			<point x="420" y="557"/>
			<point x="420" y="463"/>
			<point x="420" y="368" type="curve" smooth="yes"/>
			<point x="420" y="284" type="line" smooth="yes"/>
			<point x="420" y="189"/>
			<point x="420" y="95"/>
		</contour>
		<contour>
			<point x="572" y="572" type="line"/>
			<point x="588" y="572" type="line"/>
			<point x="720" y="572" type="line"/>
			<point x="720" y="652" type="line"/>
			<point x="572" y="652" type="line"/>
		</contour>
		<contour>
			<point x="64" y="48" type="curve"/>
			<point x="140" y="32" type="line"/>
			<point x="224" y="120"/>
			<point x="300" y="288"/>
			<point x="308" y="652" type="curve"/>
			<point x="224" y="652" type="line"/>
			<point x="216" y="336"/>
			<point x="160" y="168"/>
		</contour>
	</outline>
</glyph>
<glyph name="Zhe" format="2">
	<unicode hex="0416"/>
	<advance width="1128"/>
	<outline>
		<contour>
			<point x="396" y="0" type="line"/>
			<point x="732" y="0" type="line"/>
			<point x="732" y="80" type="line"/>
			<point x="624" y="80" type="line"/>
			<point x="504" y="80" type="line"/>
			<point x="396" y="80" type="line"/>
		</contour>
		<contour>
			<point x="396" y="572" type="line"/>
			<point x="504" y="572" type="line"/>
			<point x="624" y="572" type="line"/>
			<point x="732" y="572" type="line"/>
			<point x="732" y="652" type="line"/>
			<point x="396" y="652" type="line"/>
		</contour>
		<contour>
			<point x="456" y="0" type="curve"/>
			<point x="672" y="0" type="line"/>
			<point x="672" y="95"/>
			<point x="672" y="189"/>
			<point x="672" y="304" type="curve" smooth="yes"/>
			<point x="672" y="358" type="line" smooth="yes"/>
			<point x="672" y="463"/>
			<point x="672" y="557"/>
			<point x="672" y="652" type="curve"/>
			<point x="456" y="652" type="line"/>
			<point x="456" y="557"/>
			<point x="456" y="463"/>
			<point x="456" y="358" type="curve" smooth="yes"/>
			<point x="456" y="304" type="line" smooth="yes"/>
			<point x="456" y="189"/>
			<point x="456" y="95"/>
		</contour>
		<contour>
			<point x="800" y="120" type="line" smooth="yes"/>
			<point x="812" y="28"/>
			<point x="868" y="-12"/>
			<point x="980" y="-12" type="curve" smooth="yes"/>
			<point x="1036" y="-12"/>
			<point x="1080" y="-4"/>
			<point x="1104" y="0" type="curve"/>
			<point x="1104" y="76" type="line"/>
			<point x="920" y="92" type="line"/>
			<point x="1032" y="20" type="line"/>
			<point x="1004" y="184" type="line" smooth="yes"/>
			<point x="984" y="304"/>
			<point x="920" y="324"/>
			<point x="756" y="324" type="curve"/>
			<point x="756" y="344" type="line"/>
			<point x="820" y="360"/>
			<point x="844" y="384"/>
			<point x="868" y="440" type="curve" smooth="yes"/>
			<point x="884" y="476"/>
			<point x="900" y="516"/>
			<point x="936" y="560" type="curve"/>
			<point x="848" y="560" type="line"/>
			<point x="872" y="536"/>
			<point x="904" y="504"/>
			<point x="968" y="504" type="curve" smooth="yes"/>
			<point x="1032" y="504"/>
			<point x="1064" y="536"/>
			<point x="1064" y="584" type="curve" smooth="yes"/>
			<point x="1064" y="632"/>
			<point x="1016" y="656"/>
			<point x="980" y="664" type="curve"/>
			<point x="892" y="652"/>
			<point x="844" y="608"/>
			<point x="804" y="488" type="curve" smooth="yes"/>
			<point x="772" y="392"/>
			<point x="740" y="368"/>
			<point x="688" y="368" type="curve" smooth="yes"/>
			<point x="584" y="368" type="line"/>
			<point x="584" y="296" type="line"/>
			<point x="696" y="296" type="line" smooth="yes"/>
			<point x="756" y="296"/>
			<point x="780" y="280"/>
			<point x="788" y="216" type="curve" smooth="yes"/>
		</contour>
		<contour>
			<point x="328" y="120" type="curve" smooth="yes"/>
			<point x="340" y="216" type="line" smooth="yes"/>
			<point x="348" y="280"/>
			<point x="372" y="296"/>
			<point x="432" y="296" type="curve" smooth="yes"/>
			<point x="544" y="296" type="line"/>
			<point x="544" y="368" type="line"/>
			<point x="440" y="368" type="line" smooth="yes"/>
			<point x="388" y="368"/>
			<point x="356" y="392"/>
			<point x="324" y="488" type="curve" smooth="yes"/>
			<point x="284" y="608"/>
			<point x="236" y="652"/>
			<point x="148" y="664" type="curve"/>
			<point x="112" y="656"/>
			<point x="64" y="632"/>
			<point x="64" y="584" type="curve" smooth="yes"/>
			<point x="64" y="536"/>
			<point x="96" y="504"/>
			<point x="160" y="504" type="curve" smooth="yes"/>
			<point x="224" y="504"/>
			<point x="256" y="536"/>
			<point x="280" y="560" type="curve"/>
			<point x="192" y="560" type="line"/>
			<point x="228" y="516"/>
			<point x="244" y="476"/>
			<point x="260" y="440" type="curve" smooth="yes"/>
			<point x="284" y="384"/>
			<point x="308" y="360"/>
			<point x="372" y="344" type="curve"/>
			<point x="372" y="324" type="line"/>
			<point x="208" y="324"/>
			<point x="144" y="304"/>
			<point x="124" y="184" type="curve" smooth="yes"/>
			<point x="96" y="20" type="line"/>
			<point x="208" y="92" type="line"/>
			<point x="24" y="76" type="line"/>
			<point x="24" y="0" type="line"/>
			<point x="48" y="-4"/>
			<point x="92" y="-12"/>
			<point x="148" y="-12" type="curve" smooth="yes"/>
			<point x="260" y="-12"/>
			<point x="316" y="28"/>
		</contour>
	</outline>
	<anchor name="aboveUC" x="564" y="672"/>
</glyph>
<glyph name="Tse" format="2">
	<unicode hex="0426"/>
	<advance width="850"/>
	<outline>
		<contour>
			<point x="104" y="0" type="curve"/>
			<point x="320" y="0" type="line"/>
			<point x="320" y="95"/>
			<point x="320" y="189"/>
			<point x="320" y="284" type="curve" smooth="yes"/>
			<point x="320" y="368" type="line" smooth="yes"/>
			<point x="320" y="463"/>
			<point x="320" y="557"/>
			<point x="320" y="652" type="curve"/>
			<point x="104" y="652" type="line"/>
			<point x="104" y="557"/>
			<point x="104" y="463"/>
			<point x="104" y="368" type="curve" smooth="yes"/>
			<point x="104" y="284" type="line" smooth="yes"/>
			<point x="104" y="189"/>
			<point x="104" y="95"/>
		</contour>
		<contour>
			<point x="512" y="0" type="curve"/>
			<point x="728" y="0" type="line"/>
			<point x="728" y="95"/>
			<point x="728" y="189"/>
			<point x="728" y="284" type="curve" smooth="yes"/>
			<point x="728" y="368" type="line" smooth="yes"/>
			<point x="728" y="463"/>
			<point x="728" y="557"/>
			<point x="728" y="652" type="curve"/>
			<point x="512" y="652" type="line"/>
			<point x="512" y="557"/>
			<point x="512" y="463"/>
			<point x="512" y="368" type="curve" smooth="yes"/>
			<point x="512" y="284" type="line" smooth="yes"/>
			<point x="512" y="189"/>
			<point x="512" y="95"/>
		</contour>
		<contour>
			<point x="224" y="0" type="line"/>
			<point x="758" y="0" type="line"/>
			<point x="706" y="48" type="line"/>
			<point x="746" y="-184" type="line"/>
			<point x="830" y="-184" type="line"/>
			<point x="834" y="80" type="line"/>
			<point x="224" y="80" type="line"/>
		</contour>
		<contour>
			<point x="28" y="572" type="line"/>
			<point x="152" y="572" type="line"/>
			<point x="272" y="572" type="line"/>
			<point x="380" y="572" type="line"/>
			<point x="380" y="652" type="line"/>
			<point x="28" y="652" type="line"/>
		</contour>
		<contour>
			<point x="452" y="572" type="line"/>
			<point x="560" y="572" type="line"/>
			<point x="680" y="572" type="line"/>
			<point x="804" y="572" type="line"/>
			<point x="804" y="652" type="line"/>
			<point x="452" y="652" type="line"/>
		</contour>
		<contour>
			<point x="28" y="0" type="line"/>
			<point x="168" y="0" type="line"/>
			<point x="168" y="80" type="line"/>
			<point x="152" y="80" type="line"/>
			<point x="28" y="80" type="line"/>
		</contour>
	</outline>
	<anchor name="aboveUC" x="400" y="672"/>
</glyph>
<glyph name="ghe" format="2">
	<unicode hex="0433"/>
	<advance width="532"/>
	<outline>
		<contour>
			<point x="84" y="0" type="curve"/>
			<point x="288" y="0" type="line"/>
			<point x="288" y="75"/>
			<point x="288" y="149"/>
			<point x="288" y="224" type="curve" smooth="yes"/>
			<point x="288" y="292" type="line" smooth="yes"/>
			<point x="288" y="367"/>
			<point x="288" y="441"/>
			<point x="288" y="516" type="curve"/>
			<point x="84" y="516" type="line"/>
			<point x="84" y="441"/>
			<point x="84" y="367"/>
			<point x="84" y="292" type="curve" smooth="yes"/>
			<point x="84" y="224" type="line" smooth="yes"/>
			<point x="84" y="149"/>
			<point x="84" y="75"/>
		</contour>
		<contour>
			<point x="272" y="440" type="line"/>
			<point x="436" y="440" type="line"/>
			<point x="372" y="500" type="line"/>
			<point x="420" y="320" type="line"/>
			<point x="500" y="320" type="line"/>
			<point x="500" y="516" type="line"/>
			<point x="272" y="516" type="line"/>
		</contour>
		<contour>
			<point x="24" y="0" type="line"/>
			<point x="364" y="0" type="line"/>
			<point x="364" y="76" type="line"/>
			<point x="240" y="76" type="line"/>
			<point x="132" y="76" type="line"/>
			<point x="24" y="76" type="line"/>
		</contour>
		<contour>
			<point x="24" y="440" type="line"/>
			<point x="132" y="440" type="line"/>
			<point x="148" y="440" type="line"/>
			<point x="148" y="516" type="line"/>
			<point x="24" y="516" type="line"/>
		</contour>
	</outline>
	<anchor name="aboveLC" x="293" y="536"/>
</glyph>
<glyph name="de" format="2">
	<unicode hex="0434"/>
	<advance width="662"/>
	<outline>
		<contour>
			<point x="580" y="0" type="line"/>
			<point x="516" y="60" type="line"/>
			<point x="560" y="-152" type="line"/>
			<point x="640" y="-152" type="line"/>
			<point x="644" y="76" type="line"/>
			<point x="20" y="76" type="line"/>
			<point x="24" y="-152" type="line"/>
			<point x="104" y="-152" type="line"/>
			<point x="148" y="60" type="line"/>
			<point x="84" y="0" type="line"/>
		</contour>
		<contour>
			<point x="348" y="0" type="curve"/>
			<point x="552" y="0" type="line"/>
			<point x="552" y="75"/>
			<point x="552" y="149"/>
			<point x="552" y="224" type="curve" smooth="yes"/>
			<point x="552" y="292" type="line" smooth="yes"/>
			<point x="552" y="367"/>
			<point x="552" y="441"/>
			<point x="552" y="516" type="curve"/>
			<point x="348" y="516" type="line"/>
			<point x="348" y="441"/>
			<point x="348" y="367"/>
			<point x="348" y="292" type="curve" smooth="yes"/>
			<point x="348" y="224" type="line" smooth="yes"/>
			<point x="348" y="149"/>
			<point x="348" y="75"/>
		</contour>
		<contour>
			<point x="68" y="440" type="line"/>
			<point x="168" y="440" type="line"/>
			<point x="184" y="440" type="line"/>
			<point x="184" y="516" type="line"/>
			<point x="68" y="516" type="line"/>
		</contour>
		<contour>
			<point x="488" y="440" type="line"/>
			<point x="504" y="440" type="line"/>
			<point x="620" y="440" type="line"/>
			<point x="620" y="516" type="line"/>
			<point x="488" y="516" type="line"/>
		</contour>
		<contour>
			<point x="76" y="48" type="curve"/>
			<point x="154" y="32" type="line"/>
			<point x="154" y="110" type="line"/>
			<point x="192" y="139"/>
			<point x="216" y="180"/>
			<point x="225" y="231" type="curve" smooth="yes"/>
			<point x="238" y="306"/>
			<point x="244" y="399"/>
			<point x="244" y="516" type="curve"/>
			<point x="152" y="516" type="line"/>
			<point x="152" y="264"/>
			<point x="124" y="136"/>
		</contour>
		<contour>
			<point x="228" y="440" type="line"/>
			<point x="364" y="440" type="line"/>
			<point x="364" y="516" type="line"/>
			<point x="228" y="516" type="line"/>
		</contour>
	</outline>
</glyph>
<glyph name="ka" format="2">
	<unicode hex="043A"/>
	<advance width="688"/>
	<outline>
		<contour>
			<point x="24" y="0" type="line"/>
			<point x="344" y="0" type="line"/>
			<point x="344" y="76" type="line"/>
			<point x="240" y="76" type="line"/>
			<point x="132" y="76" type="line"/>
			<point x="24" y="76" type="line"/>
		</contour>
		<contour>
			<point x="24" y="440" type="line"/>
			<point x="132" y="440" type="line"/>
			<point x="240" y="440" type="line"/>
			<point x="348" y="440" type="line"/>
			<point x="348" y="516" type="line"/>
			<point x="24" y="516" type="line"/>
		</contour>
		<contour>
			<point x="84" y="0" type="curve"/>
			<point x="288" y="0" type="line"/>
			<point x="288" y="75"/>
			<point x="288" y="149"/>
			<point x="288" y="224" type="curve" smooth="yes"/>
			<point x="288" y="292" type="line" smooth="yes"/>
			<point x="288" y="367"/>
			<point x="288" y="441"/>
			<point x="288" y="516" type="curve"/>
			<point x="84" y="516" type="line"/>
			<point x="84" y="441"/>
			<point x="84" y="367"/>
			<point x="84" y="292" type="curve" smooth="yes"/>
			<point x="84" y="224" type="line" smooth="yes"/>
			<point x="84" y="149"/>
			<point x="84" y="75"/>
		</contour>
		<contour>
			<point x="400" y="84" type="line" smooth="yes"/>
			<point x="412" y="12"/>
			<point x="464" y="-16"/>
			<point x="552" y="-16" type="curve" smooth="yes"/>
			<point x="596" y="-16"/>
			<point x="644" y="-4"/>
			<point x="664" y="0" type="curve"/>
			<point x="664" y="72" type="line"/>
			<point x="484" y="80" type="line"/>
			<point x="624" y="12" type="line"/>
			<point x="592" y="156" type="line" smooth="yes"/>
			<point x="574" y="236"/>
			<point x="512" y="260"/>
			<point x="356" y="260" type="curve"/>
			<point x="356" y="276" type="line"/>
			<point x="428" y="284"/>
			<point x="460" y="308"/>
			<point x="484" y="356" type="curve" smooth="yes"/>
			<point x="508" y="404"/>
			<point x="524" y="428"/>
			<point x="548" y="452" type="curve"/>
			<point x="460" y="412" type="line"/>
			<point x="484" y="380"/>
			<point x="516" y="356"/>
			<point x="562" y="356" type="curve" smooth="yes"/>
			<point x="616" y="356"/>
			<point x="652" y="392"/>
			<point x="652" y="444" type="curve" smooth="yes"/>
			<point x="652" y="496"/>
			<point x="612" y="519"/>
			<point x="575" y="532" type="curve"/>
			<point x="500" y="523"/>
			<point x="452" y="492"/>
			<point x="420" y="396" type="curve" smooth="yes"/>
			<point x="396" y="324"/>
			<point x="372" y="300"/>
			<point x="324" y="300" type="curve" smooth="yes"/>
			<point x="272" y="300" type="line"/>
			<point x="272" y="232" type="line"/>
			<point x="324" y="232" type="line" smooth="yes"/>
			<point x="364" y="232"/>
			<point x="378" y="216"/>
			<point x="384" y="180" type="curve" smooth="yes"/>
		</contour>
	</outline>
	<anchor name="aboveLC" x="364" y="536"/>
</glyph>
<glyph name="em" format="2">
	<unicode hex="043C"/>
	<advance width="862"/>
	<outline>
		<contour>
			<point x="327" y="56" type="line"/>
			<point x="439" y="56" type="line"/>
			<point x="572" y="440" type="line"/>
			<point x="630" y="440" type="line"/>
			<point x="630" y="516" type="line"/>
			<point x="522" y="516" type="line"/>
			<point x="449" y="260" type="line"/>
			<point x="428" y="260" type="line"/>
			<point x="354" y="516" type="line"/>
			<point x="136" y="516" type="line"/>
			<point x="136" y="440" type="line"/>
			<point x="194" y="440" type="line"/>
		</contour>
		<contour>
			<point x="582" y="0" type="line"/>
			<point x="778" y="0" type="line"/>
			<point x="778" y="75"/>
			<point x="778" y="151"/>
			<point x="778" y="226" type="curve" smooth="yes"/>
			<point x="778" y="290" type="line" smooth="yes"/>
			<point x="778" y="365"/>
			<point x="778" y="441"/>
			<point x="778" y="516" type="curve"/>
			<point x="606" y="516" type="line"/>
			<point x="582" y="226" type="line"/>
		</contour>
		<contour>
			<point x="24" y="0" type="line"/>
			<point x="244" y="0" type="line"/>
			<point x="244" y="76" type="line"/>
			<point x="156" y="76" type="line"/>
			<point x="116" y="76" type="line"/>
			<point x="24" y="76" type="line"/>
		</contour>
		<contour>
			<point x="522" y="0" type="line"/>
			<point x="838" y="0" type="line"/>
			<point x="838" y="76" type="line"/>
			<point x="730" y="76" type="line"/>
			<point x="626" y="76" type="line"/>
			<point x="522" y="76" type="line"/>
		</contour>
		<contour>
			<point x="24" y="440" type="line"/>
			<point x="100" y="440" type="line"/>
			<point x="116" y="440" type="line"/>
			<point x="116" y="516" type="line"/>
			<point x="24" y="516" type="line"/>
		</contour>
		<contour>
			<point x="84" y="0" type="line"/>
			<point x="184" y="0" type="line"/>
			<point x="184" y="226" type="line"/>
			<point x="160" y="516" type="line"/>
			<point x="84" y="516" type="line"/>
		</contour>
		<contour>
			<point x="746" y="440" type="line"/>
			<point x="762" y="440" type="line"/>
			<point x="838" y="440" type="line"/>
			<point x="838" y="516" type="line"/>
			<point x="746" y="516" type="line"/>
		</contour>
	</outline>
</glyph>
<glyph name="shcha" format="2">
	<unicode hex="0449"/>
	<advance width="1094"/>
	<outline>
		<contour>
			<point x="92" y="0" type="curve"/>
			<point x="296" y="0" type="line"/>
			<point x="296" y="75"/>
			<point x="296" y="149"/>
			<point x="296" y="224" type="curve" smooth="yes"/>
			<point x="296" y="292" type="line" smooth="yes"/>
			<point x="296" y="367"/>
			<point x="296" y="441"/>
			<point x="296" y="516" type="curve"/>
			<point x="92" y="516" type="line"/>
			<point x="92" y="441"/>
			<point x="92" y="367"/>
			<point x="92" y="292" type="curve" smooth="yes"/>
			<point x="92" y="224" type="line" smooth="yes"/>
			<point x="92" y="149"/>
			<point x="92" y="75"/>
		</contour>
		<contour>
			<point x="436" y="0" type="curve"/>
			<point x="640" y="0" type="line"/>
			<point x="640" y="75"/>
			<point x="640" y="149"/>
			<point x="640" y="224" type="curve" smooth="yes"/>
			<point x="640" y="292" type="line" smooth="yes"/>
			<point x="640" y="367"/>
			<point x="640" y="441"/>
			<point x="640" y="516" type="curve"/>
			<point x="436" y="516" type="line"/>
			<point x="436" y="441"/>
			<point x="436" y="367"/>
			<point x="436" y="292" type="curve" smooth="yes"/>
			<point x="436" y="224" type="line" smooth="yes"/>
			<point x="436" y="149"/>
			<point x="436" y="75"/>
		</contour>
		<contour>
			<point x="780" y="0" type="curve"/>
			<point x="984" y="0" type="line"/>
			<point x="984" y="75"/>
			<point x="984" y="149"/>
			<point x="984" y="224" type="curve" smooth="yes"/>
			<point x="984" y="292" type="line" smooth="yes"/>
			<point x="984" y="367"/>
			<point x="984" y="441"/>
			<point x="984" y="516" type="curve"/>
			<point x="780" y="516" type="line"/>
			<point x="780" y="441"/>
			<point x="780" y="367"/>
			<point x="780" y="292" type="curve" smooth="yes"/>
			<point x="780" y="224" type="line" smooth="yes"/>
			<point x="780" y="149"/>
			<point x="780" y="75"/>
		</contour>
		<contour>
			<point x="992" y="-152" type="line"/>
			<point x="1072" y="-152" type="line"/>
			<point x="1076" y="76" type="line"/>
			<point x="280" y="76" type="line"/>
			<point x="280" y="0" type="line"/>
			<point x="1012" y="0" type="line"/>
			<point x="948" y="60" type="line"/>
		</contour>
		<contour>
			<point x="24" y="440" type="line"/>
			<point x="140" y="440" type="line"/>
			<point x="248" y="440" type="line"/>
			<point x="340" y="440" type="line"/>
			<point x="340" y="516" type="line"/>
			<point x="24" y="516" type="line"/>
		</contour>
		<contour>
			<point x="392" y="440" type="line"/>
			<point x="484" y="440" type="line"/>
			<point x="592" y="440" type="line"/>
			<point x="684" y="440" type="line"/>
			<point x="684" y="516" type="line"/>
			<point x="392" y="516" type="line"/>
		</contour>
		<contour>
			<point x="736" y="440" type="line"/>
			<point x="828" y="440" type="line"/>
			<point x="936" y="440" type="line"/>
			<point x="1052" y="440" type="line"/>
			<point x="1052" y="516" type="line"/>
			<point x="736" y="516" type="line"/>
		</contour>
		<contour>
			<point x="24" y="0" type="line"/>
			<point x="156" y="0" type="line"/>
			<point x="156" y="76" type="line"/>
			<point x="140" y="76" type="line"/>
			<point x="24" y="76" type="line"/>
		</contour>
	</outline>
</glyph>
<glyph name="soft" format="2">
	<unicode hex="044C"/>
	<advance width="652"/>
	<outline>
		<contour>
			<point x="272" y="0" type="line"/>
			<point x="336" y="0" type="line" smooth="yes"/>
			<point x="532" y="0"/>
			<point x="624" y="56"/>
			<point x="624" y="168" type="curve" smooth="yes"/>
			<point x="624" y="280"/>
			<point x="532" y="328"/>
			<point x="376" y="328" type="curve" smooth="yes"/>
			<point x="300" y="328"/>
			<point x="256" y="316"/>
			<point x="224" y="304" type="curve"/>
			<point x="224" y="240" type="line"/>
			<point x="248" y="248"/>
			<point x="280" y="256"/>
			<point x="312" y="256" type="curve" smooth="yes"/>
			<point x="388" y="256"/>
			<point x="420" y="224"/>
			<point x="420" y="164" type="curve" smooth="yes"/>
			<point x="420" y="104"/>
			<point x="388" y="72"/>
			<point x="320" y="72" type="curve" smooth="yes"/>
			<point x="272" y="72" type="line"/>
		</contour>
		<contour>
			<point x="84" y="0" type="curve"/>
			<point x="288" y="0" type="line"/>
			<point x="288" y="75"/>
			<point x="288" y="149"/>
			<point x="288" y="224" type="curve" smooth="yes"/>
			<point x="288" y="292" type="line" smooth="yes"/>
			<point x="288" y="367"/>
			<point x="288" y="441"/>
			<point x="288" y="516" type="curve"/>
			<point x="84" y="516" type="line"/>
			<point x="84" y="441"/>
			<point x="84" y="367"/>
			<point x="84" y="292" type="curve" smooth="yes"/>
			<point x="84" y="224" type="line" smooth="yes"/>
			<point x="84" y="149"/>
			<point x="84" y="75"/>
		</contour>
		<contour>
			<point x="24" y="440" type="line"/>
			<point x="132" y="440" type="line"/>
			<point x="240" y="440" type="line"/>
			<point x="364" y="440" type="line"/>
			<point x="364" y="516" type="line"/>
			<point x="24" y="516" type="line"/>
		</contour>
		<contour>
			<point x="24" y="0" type="line"/>
			<point x="148" y="0" type="line"/>
			<point x="148" y="76" type="line"/>
			<point x="132" y="76" type="line"/>
			<point x="24" y="76" type="line"/>
		</contour>
	</outline>
</glyph>
<glyph name="dje" format="2">
	<unicode hex="0452"/>
	<advance width="672"/>
	<outline>
		<contour>
			<point x="84" y="0" type="curve"/>
			<point x="288" y="0" type="line"/>
			<point x="288" y="73"/>
			<point x="288" y="147"/>
			<point x="288" y="220" type="curve" smooth="yes"/>
			<point x="288" y="363" type="line"/>
			<point x="288" y="365" type="line"/>
			<point x="288" y="552" type="line"/>
			<point x="288" y="710" type="line"/>
			<point x="224" y="710" type="line"/>
			<point x="20" y="684" type="line"/>
			<point x="20" y="624" type="line"/>
			<point x="84" y="618" type="line"/>
			<point x="84" y="220" type="line" smooth="yes"/>
			<point x="84" y="147"/>
			<point x="84" y="73"/>
		</contour>
		<contour>
			<point x="456" y="-152" type="line"/>
			<point x="528" y="-56"/>
			<point x="632" y="100"/>
			<point x="632" y="304" type="curve" smooth="yes"/>
			<point x="632" y="440"/>
			<point x="560" y="496"/>
			<point x="464" y="496" type="curve" smooth="yes"/>
			<point x="372" y="496"/>
			<point x="340" y="440"/>
			<point x="320" y="392" type="curve"/>
			<point x="256" y="392" type="line"/>
			<point x="256" y="316" type="line"/>
			<point x="296" y="344"/>
			<point x="328" y="356"/>
			<point x="360" y="356" type="curve" smooth="yes"/>
			<point x="404" y="356"/>
			<point x="428" y="332"/>
			<point x="428" y="244" type="curve" smooth="yes"/>
			<point x="428" y="124"/>
			<point x="404" y="-40"/>
			<point x="372" y="-152" type="curve"/>
		</contour>
		<contour>
			<point x="24" y="0" type="line"/>
			<point x="332" y="0" type="line"/>
			<point x="332" y="76" type="line"/>
			<point x="240" y="76" type="line"/>
			<point x="132" y="76" type="line"/>
			<point x="24" y="76" type="line"/>
		</contour>
		<contour>
			<point x="20" y="521" type="line"/>
			<point x="400" y="521" type="line"/>
			<point x="400" y="585" type="line"/>
			<point x="20" y="585" type="line"/>
		</contour>
	</outline>
</glyph>
<glyph name="ieukran" format="2">
	<unicode hex="0454"/>
	<advance width="572"/>
	<outline>
		<contour>
			<point x="304" y="-16" type="curve" smooth="yes"/>
			<point x="427" y="-16"/>
			<point x="507" y="46"/>
			<point x="549" y="99" type="curve"/>
			<point x="500" y="156" type="line"/>
			<point x="472" y="128"/>
			<point x="440" y="96"/>
			<point x="376" y="96" type="curve" smooth="yes"/>
			<point x="289" y="96"/>
			<point x="236" y="128"/>
			<point x="236" y="268" type="curve" smooth="yes"/>
			<point x="236" y="423"/>
			<point x="300" y="468"/>
			<point x="374" y="468" type="curve" smooth="yes"/>
			<point x="420" y="468"/>
			<point x="454" y="458"/>
			<point x="480" y="448" type="curve"/>
			<point x="400" y="500" type="line"/>
			<point x="444" y="352" type="line"/>
			<point x="524" y="352" type="line"/>
			<point x="528" y="496" type="line"/>
			<point x="496" y="512"/>
			<point x="432" y="532"/>
			<point x="344" y="532" type="curve" smooth="yes"/>
			<point x="156" y="532"/>
			<point x="36" y="416"/>
			<point x="36" y="248" type="curve" smooth="yes"/>
			<point x="36" y="80"/>
			<point x="144" y="-16"/>
		</contour>
		<contour>
			<point x="164" y="248" type="line"/>
			<point x="420" y="232" type="line"/>
			<point x="420" y="312" type="line"/>
			<point x="164" y="296" type="line"/>
		</contour>
	</outline>
	<anchor name="aboveLC" x="349" y="536"/>
</glyph>
<glyph name="nje" format="2">
	<unicode hex="045A"/>
	<advance width="1016"/>
	<outline>
		<contour>
			<point x="636" y="0" type="line"/>
			<point x="700" y="0" type="line" smooth="yes"/>
			<point x="896" y="0"/>
			<point x="988" y="56"/>
			<point x="988" y="168" type="curve" smooth="yes"/>
			<point x="988" y="280"/>
			<point x="896" y="328"/>
			<point x="740" y="328" type="curve" smooth="yes"/>
			<point x="664" y="328"/>
			<point x="620" y="316"/>
			<point x="588" y="304" type="curve"/>
			<point x="588" y="240" type="line"/>
			<point x="612" y="248"/>
			<point x="644" y="256"/>
			<point x="676" y="256" type="curve" smooth="yes"/>
			<point x="752" y="256"/>
			<point x="784" y="224"/>
			<point x="784" y="164" type="curve" smooth="yes"/>
			<point x="784" y="104"/>
			<point x="752" y="72"/>
			<point x="684" y="72" type="curve" smooth="yes"/>
			<point x="636" y="72" type="line"/>
		</contour>
		<contour>
			<point x="84" y="0" type="curve"/>
			<point x="288" y="0" type="line"/>
			<point x="288" y="75"/>
			<point x="288" y="149"/>
			<point x="288" y="224" type="curve" smooth="yes"/>
			<point x="288" y="292" type="line" smooth="yes"/>
			<point x="288" y="367"/>
			<point x="288" y="441"/>
			<point x="288" y="516" type="curve"/>
			<point x="84" y="516" type="line"/>
			<point x="84" y="441"/>
			<point x="84" y="367"/>
			<point x="84" y="292" type="curve" smooth="yes"/>
			<point x="84" y="224" type="line" smooth="yes"/>
			<point x="84" y="149"/>
			<point x="84" y="75"/>
		</contour>
		<contour>
			<point x="448" y="0" type="curve"/>
			<point x="652" y="0" type="line"/>
			<point x="652" y="75"/>
			<point x="652" y="149"/>
			<point x="652" y="224" type="curve" smooth="yes"/>
			<point x="652" y="292" type="line" smooth="yes"/>
			<point x="652" y="367"/>
			<point x="652" y="441"/>
			<point x="652" y="516" type="curve"/>
			<point x="448" y="516" type="line"/>
			<point x="448" y="441"/>
			<point x="448" y="367"/>
			<point x="448" y="292" type="curve" smooth="yes"/>
			<point x="448" y="224" type="line" smooth="yes"/>
			<point x="448" y="149"/>
			<point x="448" y="75"/>
		</contour>
		<contour>
			<point x="24" y="0" type="line"/>
			<point x="340" y="0" type="line"/>
			<point x="340" y="76" type="line"/>
			<point x="240" y="76" type="line"/>
			<point x="132" y="76" type="line"/>
			<point x="24" y="76" type="line"/>
		</contour>
		<contour>
			<point x="24" y="440" type="line"/>
			<point x="132" y="440" type="line"/>
			<point x="240" y="440" type="line"/>
			<point x="340" y="440" type="line"/>
			<point x="340" y="516" type="line"/>
			<point x="24" y="516" type="line"/>
		</contour>
		<contour>
			<point x="396" y="440" type="line"/>
			<point x="496" y="440" type="line"/>
			<point x="604" y="440" type="line"/>
			<point x="728" y="440" type="line"/>
			<point x="728" y="516" type="line"/>
			<point x="396" y="516" type="line"/>
		</contour>
		<contour>
			<point x="396" y="0" type="line"/>
			<point x="512" y="0" type="line"/>
			<point x="512" y="76" type="line"/>
			<point x="496" y="76" type="line"/>
			<point x="396" y="76" type="line"/>
		</contour>
		<contour>
			<point x="272" y="228" type="line"/>
			<point x="480" y="228" type="line"/>
			<point x="480" y="304" type="line"/>
			<point x="272" y="304" type="line"/>
		</contour>
	</outline>
</glyph>
<glyph name="dzhe" format="2">
	<unicode hex="045F"/>
	<advance width="752"/>
	<outline>
		<contour>
			<point x="84" y="0" type="curve"/>
			<point x="288" y="0" type="line"/>
			<point x="288" y="75"/>
			<point x="288" y="149"/>
			<point x="288" y="224" type="curve" smooth="yes"/>
			<point x="288" y="292" type="line" smooth="yes"/>
			<point x="288" y="367"/>
			<point x="288" y="441"/>
			<point x="288" y="516" type="curve"/>
			<point x="84" y="516" type="line"/>
			<point x="84" y="441"/>
			<point x="84" y="367"/>
			<point x="84" y="292" type="curve" smooth="yes"/>
			<point x="84" y="224" type="line" smooth="yes"/>
			<point x="84" y="149"/>
			<point x="84" y="75"/>
		</contour>
		<contour>
			<point x="464" y="0" type="curve"/>
			<point x="668" y="0" type="line"/>
			<point x="668" y="75"/>
			<point x="668" y="149"/>
			<point x="668" y="224" type="curve" smooth="yes"/>
			<point x="668" y="292" type="line" smooth="yes"/>
			<point x="668" y="367"/>
			<point x="668" y="441"/>
			<point x="668" y="516" type="curve"/>
			<point x="464" y="516" type="line"/>
			<point x="464" y="441"/>
			<point x="464" y="367"/>
			<point x="464" y="292" type="curve" smooth="yes"/>
			<point x="464" y="224" type="line" smooth="yes"/>
			<point x="464" y="149"/>
			<point x="464" y="75"/>
		</contour>
		<contour>
			<point x="24" y="440" type="line"/>
			<point x="132" y="440" type="line"/>
			<point x="240" y="440" type="line"/>
			<point x="348" y="440" type="line"/>
			<point x="348" y="516" type="line"/>
			<point x="24" y="516" type="line"/>
		</contour>
		<contour>
			<point x="404" y="440" type="line"/>
			<point x="512" y="440" type="line"/>
			<point x="620" y="440" type="line"/>
			<point x="728" y="440" type="line"/>
			<point x="728" y="516" type="line"/>
			<point x="404" y="516" type="line"/>
		</contour>
		<contour>
			<point x="24" y="0" type="line"/>
			<point x="148" y="0" type="line"/>
			<point x="148" y="76" type="line"/>
			<point x="132" y="76" type="line"/>
			<point x="24" y="76" type="line"/>
		</contour>
		<contour>
			<point x="596" y="0" type="line"/>
			<point x="728" y="0" type="line"/>
			<point x="728" y="76" type="line"/>
			<point x="612" y="76" type="line"/>
			<point x="596" y="76" type="line"/>
		</contour>
		<contour>
			<point x="280" y="0" type="line"/>
			<point x="472" y="0" type="line"/>
			<point x="472" y="76" type="line"/>
			<point x="280" y="76" type="line"/>
		</contour>
		<contour>
			<point x="336" y="-162" type="line"/>
			<point x="416" y="-162" type="line"/>
			<point x="440" y="60" type="line"/>
			<point x="312" y="60" type="line"/>
		</contour>
	</outline>
</glyph>
<glyph name="Yat" format="2">
	<unicode hex="0462"/>
	<advance width="852"/>
	<outline>
		<contour>
			<point x="32" y="380" type="line"/>
			<point x="116" y="380" type="line"/>
			<point x="172" y="540" type="line"/>
			<point x="104" y="492" type="line"/>
			<point x="624" y="492" type="line"/>
			<point x="556" y="540" type="line"/>
			<point x="612" y="404" type="line"/>
			<point x="696" y="404" type="line"/>
			<point x="692" y="568" type="line"/>
			<point x="36" y="568" type="line"/>
		</contour>
		<contour>
			<point x="388" y="0" type="line"/>
			<point x="484" y="0" type="line" smooth="yes"/>
			<point x="712" y="0"/>
			<point x="812" y="72"/>
			<point x="812" y="188" type="curve" smooth="yes"/>
			<point x="812" y="300"/>
			<point x="712" y="364"/>
			<point x="508" y="364" type="curve" smooth="yes"/>
			<point x="460" y="364"/>
			<point x="412" y="356"/>
			<point x="388" y="348" type="curve"/>
			<point x="388" y="272" type="line"/>
			<point x="412" y="280"/>
			<point x="436" y="288"/>
			<point x="476" y="288" type="curve" smooth="yes"/>
			<point x="560" y="288"/>
			<point x="592" y="252"/>
			<point x="592" y="184" type="curve" smooth="yes"/>
			<point x="592" y="114"/>
			<point x="560" y="72"/>
			<point x="468" y="72" type="curve" smooth="yes"/>
			<point x="388" y="72" type="line"/>
		</contour>
		<contour>
			<point x="236" y="0" type="curve"/>
			<point x="452" y="0" type="line"/>
			<point x="452" y="95"/>
			<point x="452" y="189"/>
			<point x="452" y="301" type="curve" smooth="yes"/>
			<point x="452" y="352" type="line" smooth="yes"/>
			<point x="452" y="485"/>
			<point x="452" y="603"/>
			<point x="452" y="720" type="curve"/>
			<point x="236" y="720" type="line"/>
			<point x="236" y="603"/>
			<point x="236" y="485"/>
			<point x="236" y="368" type="curve" smooth="yes"/>
			<point x="236" y="284" type="line" smooth="yes"/>
			<point x="236" y="189"/>
			<point x="236" y="95"/>
		</contour>
		<contour>
			<point x="152" y="640" type="line"/>
			<point x="292" y="640" type="line"/>
			<point x="412" y="640" type="line"/>
			<point x="536" y="640" type="line"/>
			<point x="536" y="720" type="line"/>
			<point x="152" y="720" type="line"/>
		</contour>
		<contour>
			<point x="160" y="0" type="line"/>
			<point x="300" y="0" type="line"/>
			<point x="300" y="80" type="line"/>
			<point x="284" y="80" type="line"/>
			<point x="160" y="80" type="line"/>
		</contour>
	</outline>
	<anchor name="aboveUC" x="349" y="720"/>
</glyph>
<glyph name="yat" format="2">
	<unicode hex="0463"/>
	<advance width="812"/>
	<outline>
		<contour>
			<point x="32" y="340" type="line"/>
			<point x="112" y="340" type="line"/>
			<point x="160" y="512" type="line"/>
			<point x="96" y="452" type="line"/>
			<point x="612" y="452" type="line"/>
			<point x="548" y="512" type="line"/>
			<point x="596" y="368" type="line"/>
			<point x="676" y="368" type="line"/>
			<point x="676" y="528" type="line"/>
			<point x="32" y="528" type="line"/>
		</contour>
		<contour>
			<point x="184" y="0" type="line"/>
			<point x="308" y="0" type="line"/>
			<point x="308" y="76" type="line"/>
			<point x="292" y="76" type="line"/>
			<point x="184" y="76" type="line"/>
		</contour>
		<contour>
			<point x="244" y="0" type="curve"/>
			<point x="448" y="0" type="line"/>
			<point x="448" y="73"/>
			<point x="448" y="146"/>
			<point x="448" y="219" type="curve" smooth="yes"/>
			<point x="448" y="274" type="line"/>
			<point x="448" y="279" type="line"/>
			<point x="448" y="506" type="line"/>
			<point x="448" y="680" type="line"/>
			<point x="384" y="680" type="line"/>
			<point x="180" y="644" type="line"/>
			<point x="180" y="582" type="line"/>
			<point x="244" y="576" type="line"/>
			<point x="244" y="220" type="line" smooth="yes"/>
			<point x="244" y="147"/>
			<point x="244" y="73"/>
		</contour>
		<contour>
			<point x="432" y="0" type="line"/>
			<point x="496" y="0" type="line" smooth="yes"/>
			<point x="692" y="0"/>
			<point x="784" y="56"/>
			<point x="784" y="168" type="curve" smooth="yes"/>
			<point x="784" y="280"/>
			<point x="692" y="328"/>
			<point x="536" y="328" type="curve" smooth="yes"/>
			<point x="460" y="328"/>
			<point x="416" y="316"/>
			<point x="384" y="304" type="curve"/>
			<point x="384" y="240" type="line"/>
			<point x="408" y="248"/>
			<point x="440" y="256"/>
			<point x="472" y="256" type="curve" smooth="yes"/>
			<point x="548" y="256"/>
			<point x="580" y="224"/>
			<point x="580" y="164" type="curve" smooth="yes"/>
			<point x="580" y="104"/>
			<point x="548" y="72"/>
			<point x="480" y="72" type="curve" smooth="yes"/>
			<point x="432" y="72" type="line"/>
		</contour>
	</outline>
	<anchor name="aboveLC" x="347" y="680"/>
</glyph>
<glyph name="Kadescender" format="2">
	<unicode hex="049A"/>
	<advance width="792"/>
	<outline>
		<contour>
			<point x="617" y="0" type="line"/>
			<point x="714" y="0" type="line"/>
			<point x="662" y="48" type="line"/>
			<point x="702" y="-184" type="line"/>
			<point x="786" y="-184" type="line"/>
			<point x="790" y="76" type="line"/>
			<point x="617" y="90" type="line"/>
		</contour>
		<component base="Ka"/>
	</outline>
</glyph>
<glyph name="kadescender" format="2">
	<unicode hex="049B"/>
	<advance width="688"/>
	<outline>
		<contour>
			<point x="608" y="0" type="line"/>
			<point x="536" y="57" type="line"/>
			<point x="584" y="-160" type="line"/>
			<point x="662" y="-160" type="line"/>
			<point x="666" y="72" type="line"/>
			<point x="485" y="80" type="line"/>
			<point x="517" y="0" type="line"/>
		</contour>
		<component base="ka"/>
	</outline>
</glyph>
<glyph name="Ustraightstroke" format="2">
	<unicode hex="04B0"/>
	<advance width="712"/>
	<outline>
		<contour>
			<point x="593" y="225" type="line"/>
			<point x="593" y="294" type="line"/>
			<point x="119" y="294" type="line"/>
			<point x="119" y="225" type="line"/>
		</contour>
		<component base="Ustraight"/>
	</outline>
	<anchor name="aboveUC" x="435" y="672"/>
</glyph>
<glyph name="ustraightstroke" format="2">
	<unicode hex="04B1"/>
	<advance width="636"/>
	<outline>
		<contour>
			<point x="101" y="0" type="line"/>
			<point x="537" y="0" type="line"/>
			<point x="537" y="61" type="line"/>
			<point x="100" y="61" type="line"/>
		</contour>
		<component base="ustraight"/>
	</outline>
	<anchor name="aboveLC" x="344" y="536"/>
</glyph>
<glyph name="Shha" format="2">
	<unicode hex="04BA"/>
	<advance width="768"/>
	<outline>
		<contour>
			<point x="32" y="0" type="line"/>
			<point x="372" y="0" type="line"/>
			<point x="372" y="80" type="line"/>
			<point x="276" y="80" type="line"/>
			<point x="156" y="80" type="line"/>
			<point x="32" y="80" type="line"/>
		</contour>
		<contour>
			<point x="108" y="0" type="curve"/>
			<point x="324" y="0" type="line"/>
			<point x="324" y="95"/>
			<point x="324" y="189"/>
			<point x="324" y="284" type="curve" smooth="yes"/>
			<point x="324" y="368" type="line" smooth="yes"/>
			<point x="324" y="463"/>
			<point x="324" y="557"/>
			<point x="324" y="652" type="curve"/>
			<point x="108" y="652" type="line"/>
			<point x="108" y="557"/>
			<point x="108" y="463"/>
			<point x="108" y="368" type="curve" smooth="yes"/>
			<point x="108" y="284" type="line" smooth="yes"/>
			<point x="108" y="189"/>
			<point x="108" y="95"/>
		</contour>
		<contour>
			<point x="156" y="572" type="line"/>
			<point x="276" y="572" type="line"/>
			<point x="416" y="572" type="line"/>
			<point x="416" y="652" type="line"/>
			<point x="32" y="652" type="line"/>
			<point x="32" y="572" type="line"/>
		</contour>
		<contour>
			<point x="416" y="0" type="line"/>
			<point x="748" y="0" type="line"/>
			<point x="748" y="80" type="line"/>
			<point x="632" y="80" type="line"/>
			<point x="512" y="80" type="line"/>
			<point x="416" y="80" type="line"/>
		</contour>
		<contour>
			<point x="464" y="0" type="curve"/>
			<point x="684" y="0" type="line"/>
			<point x="684" y="240" type="line" smooth="yes"/>
			<point x="684" y="356"/>
			<point x="612" y="404"/>
			<point x="460" y="404" type="curve" smooth="yes"/>
			<point x="372" y="404"/>
			<point x="308" y="388"/>
			<point x="268" y="376" type="curve"/>
			<point x="268" y="304" type="line"/>
			<point x="300" y="320"/>
			<point x="332" y="328"/>
			<point x="372" y="328" type="curve" smooth="yes"/>
			<point x="440" y="328"/>
			<point x="464" y="296"/>
			<point x="464" y="232" type="curve" smooth="yes"/>
			<point x="464" y="155"/>
			<point x="464" y="77"/>
		</contour>
	</outline>
</glyph>
<glyph name="a.sups" format="2">
	<unicode hex="1D43"/>
	<advance width="451"/>
	<outline>
		<contour>
			<point x="350" y="393" type="curve" smooth="yes"/>
			<point x="390" y="393"/>
			<point x="427" y="415"/>
			<point x="444" y="438" type="curve"/>
			<point x="436" y="481" type="line"/>
			<point x="426" y="481"/>
			<point x="416" y="480"/>
			<point x="406" y="480" type="curve" smooth="yes"/>
			<point x="394" y="480"/>
			<point x="387" y="487"/>
			<point x="387" y="497" type="curve" smooth="yes"/>
			<point x="387" y="637" type="line" smooth="yes"/>
			<point x="387" y="720"/>
			<point x="331" y="765"/>
			<point x="217" y="765" type="curve" smooth="yes"/>
			<point x="120" y="765"/>
			<point x="55" y="731"/>
			<point x="45" y="663" type="curve"/>
			<point x="53" y="631"/>
			<point x="71" y="617"/>
			<point x="103" y="617" type="curve" smooth="yes"/>
			<point x="133" y="617"/>
			<point x="161" y="639"/>
			<point x="161" y="696" type="curve" smooth="yes"/>
			<point x="161" y="749" type="line"/>
			<point x="131" y="707" type="line"/>
			<point x="142" y="713"/>
			<point x="164" y="718"/>
			<point x="186" y="718" type="curve" smooth="yes"/>
			<point x="223" y="718"/>
			<point x="245" y="703"/>
			<point x="245" y="661" type="curve" smooth="yes"/>
			<point x="245" y="462" type="line"/>
			<point x="253" y="462" type="line" smooth="yes"/>
			<point x="265" y="420"/>
			<point x="292" y="393"/>
		</contour>
		<contour>
			<point x="129" y="393" type="curve" smooth="yes"/>
			<point x="189" y="393"/>
			<point x="214" y="425"/>
			<point x="232" y="452" type="curve" smooth="yes"/>
			<point x="267" y="452" type="line"/>
			<point x="267" y="484" type="line"/>
			<point x="251" y="482"/>
			<point x="232" y="482"/>
			<point x="214" y="482" type="curve" smooth="yes"/>
			<point x="178" y="482"/>
			<point x="159" y="497"/>
			<point x="159" y="523" type="curve" smooth="yes"/>
			<point x="159" y="539"/>
			<point x="167" y="558"/>
			<point x="195" y="566" type="curve" smooth="yes"/>
			<point x="222" y="573"/>
			<point x="248" y="578"/>
			<point x="267" y="583" type="curve"/>
			<point x="267" y="615" type="line"/>
			<point x="237" y="610"/>
			<point x="207" y="603"/>
			<point x="177" y="598" type="curve" smooth="yes"/>
			<point x="70" y="576"/>
			<point x="32" y="537"/>
			<point x="32" y="482" type="curve" smooth="yes"/>
			<point x="32" y="432"/>
			<point x="71" y="393"/>
		</contour>
	</outline>
</glyph>
<glyph name="b.sups" format="2">
	<unicode hex="1D47"/>
	<advance width="493"/>
	<outline>
		<contour>
			<point x="25" y="404" type="line"/>
			<point x="189" y="398" type="line"/>
			<point x="203" y="468" type="line"/>
			<point x="209" y="468" type="line"/>
			<point x="209" y="681" type="line"/>
			<point x="203" y="681" type="line"/>
			<point x="209" y="883" type="line"/>
			<point x="164" y="883" type="line"/>
			<point x="22" y="858" type="line"/>
			<point x="22" y="817" type="line"/>
			<point x="67" y="803" type="line"/>
			<point x="67" y="462" type="line"/>
			<point x="25" y="451" type="line"/>
		</contour>
		<contour>
			<point x="326" y="393" type="curve" smooth="yes"/>
			<point x="404" y="393"/>
			<point x="460" y="461"/>
			<point x="460" y="577" type="curve" smooth="yes"/>
			<point x="460" y="694"/>
			<point x="404" y="765"/>
			<point x="326" y="765" type="curve" smooth="yes"/>
			<point x="272" y="765"/>
			<point x="248" y="743"/>
			<point x="228" y="691" type="curve"/>
			<point x="186" y="691" type="line"/>
			<point x="186" y="653" type="line"/>
			<point x="208" y="663"/>
			<point x="229" y="668"/>
			<point x="251" y="668" type="curve" smooth="yes"/>
			<point x="292" y="668"/>
			<point x="315" y="643"/>
			<point x="315" y="575" type="curve" smooth="yes"/>
			<point x="315" y="506"/>
			<point x="292" y="481"/>
			<point x="251" y="481" type="curve" smooth="yes"/>
			<point x="229" y="481"/>
			<point x="207" y="485"/>
			<point x="186" y="496" type="curve"/>
			<point x="186" y="458" type="line"/>
			<point x="228" y="458" type="line"/>
			<point x="242" y="425"/>
			<point x="265" y="393"/>
		</contour>
	</outline>
</glyph>
<glyph name="d.sups" format="2">
	<unicode hex="1D48"/>
	<advance width="490"/>
	<outline>
		<contour>
			<point x="167" y="393" type="curve" smooth="yes"/>
			<point x="228" y="393"/>
			<point x="250" y="434"/>
			<point x="265" y="467" type="curve"/>
			<point x="306" y="467" type="line"/>
			<point x="306" y="503" type="line"/>
			<point x="288" y="492"/>
			<point x="265" y="486"/>
			<point x="242" y="486" type="curve" smooth="yes"/>
			<point x="200" y="486"/>
			<point x="178" y="512"/>
			<point x="178" y="580" type="curve" smooth="yes"/>
			<point x="178" y="648"/>
			<point x="200" y="674"/>
			<point x="242" y="674" type="curve" smooth="yes"/>
			<point x="268" y="674"/>
			<point x="291" y="667"/>
			<point x="306" y="658" type="curve"/>
			<point x="306" y="697" type="line"/>
			<point x="265" y="697" type="line"/>
			<point x="251" y="729"/>
			<point x="228" y="765"/>
			<point x="167" y="765" type="curve" smooth="yes"/>
			<point x="89" y="765"/>
			<point x="33" y="694"/>
			<point x="33" y="578" type="curve" smooth="yes"/>
			<point x="33" y="461"/>
			<point x="89" y="393"/>
		</contour>
		<contour>
			<point x="304" y="398" type="line"/>
			<point x="468" y="404" type="line"/>
			<point x="468" y="451" type="line"/>
			<point x="426" y="462" type="line"/>
			<point x="426" y="883" type="line"/>
			<point x="382" y="883" type="line"/>
			<point x="239" y="858" type="line"/>
			<point x="239" y="817" type="line"/>
			<point x="284" y="803" type="line"/>
			<point x="290" y="681" type="line"/>
			<point x="284" y="681" type="line"/>
			<point x="284" y="472" type="line"/>
			<point x="290" y="472" type="line"/>
		</contour>
	</outline>
</glyph>
<glyph name="g.sups" format="2">
	<unicode hex="1D4D"/>
	<advance width="473"/>
	<outline>
		<contour>
			<point x="209" y="258" type="curve" smooth="yes"/>
			<point x="320" y="258"/>
			<point x="432" y="306"/>
			<point x="432" y="407" type="curve" smooth="yes"/>
			<point x="432" y="466"/>
			<point x="396" y="502"/>
			<point x="292" y="502" type="curve" smooth="yes"/>
			<point x="209" y="502" type="line" smooth="yes"/>
			<point x="175" y="502"/>
			<point x="161" y="514"/>
			<point x="161" y="533" type="curve" smooth="yes"/>
			<point x="161" y="552"/>
			<point x="166" y="558"/>
			<point x="170" y="568" type="curve"/>
			<point x="133" y="568" type="line"/>
			<point x="133" y="527" type="line"/>
			<point x="80" y="528"/>
			<point x="44" y="514"/>
			<point x="44" y="475" type="curve" smooth="yes"/>
			<point x="44" y="435"/>
			<point x="80" y="422"/>
			<point x="133" y="423" type="curve"/>
			<point x="133" y="379" type="line"/>
			<point x="143" y="379"/>
			<point x="151" y="379"/>
			<point x="161" y="379" type="curve" smooth="yes"/>
			<point x="281" y="379" type="line" smooth="yes"/>
			<point x="312" y="379"/>
			<point x="323" y="369"/>
			<point x="323" y="353" type="curve" smooth="yes"/>
			<point x="323" y="322"/>
			<point x="284" y="305"/>
			<point x="228" y="305" type="curve" smooth="yes"/>
			<point x="172" y="305"/>
			<point x="139" y="320"/>
			<point x="139" y="350" type="curve" smooth="yes"/>
			<point x="139" y="368"/>
			<point x="147" y="384"/>
			<point x="152" y="392" type="curve"/>
			<point x="147" y="393" type="line"/>
			<point x="78" y="395"/>
			<point x="25" y="382"/>
			<point x="25" y="339" type="curve" smooth="yes"/>
			<point x="25" y="290"/>
			<point x="97" y="258"/>
		</contour>
		<contour>
			<point x="206" y="550" type="curve" smooth="yes"/>
			<point x="312" y="550"/>
			<point x="373" y="590"/>
			<point x="373" y="664" type="curve" smooth="yes"/>
			<point x="373" y="679"/>
			<point x="370" y="691"/>
			<point x="368" y="695" type="curve"/>
			<point x="345" y="695" type="line"/>
			<point x="334" y="740"/>
			<point x="295" y="776"/>
			<point x="200" y="776" type="curve" smooth="yes"/>
			<point x="100" y="776"/>
			<point x="33" y="732"/>
			<point x="33" y="661" type="curve" smooth="yes"/>
			<point x="33" y="585"/>
			<point x="100" y="550"/>
		</contour>
		<contour>
			<point x="206" y="593" type="curve" smooth="yes"/>
			<point x="178" y="593"/>
			<point x="170" y="614"/>
			<point x="170" y="663" type="curve" smooth="yes"/>
			<point x="170" y="712"/>
			<point x="178" y="733"/>
			<point x="206" y="733" type="curve" smooth="yes"/>
			<point x="234" y="733"/>
			<point x="242" y="712"/>
			<point x="242" y="663" type="curve" smooth="yes"/>
			<point x="242" y="614"/>
			<point x="234" y="593"/>
		</contour>
		<contour>
			<point x="329" y="679" type="line"/>
			<point x="449" y="679" type="line"/>
			<point x="449" y="787" type="line"/>
			<point x="398" y="787" type="line"/>
			<point x="362" y="706" type="line"/>
			<point x="329" y="706" type="line"/>
		</contour>
	</outline>
</glyph>
<glyph name="k.sups" format="2">
	<unicode hex="1D4F"/>
	<advance width="504"/>
	<outline>
		<contour>
			<point x="67" y="415" type="line"/>
			<point x="209" y="415" type="line"/>
			<point x="209" y="894" type="line"/>
			<point x="164" y="894" type="line"/>
			<point x="22" y="869" type="line"/>
			<point x="22" y="828" type="line"/>
			<point x="67" y="814" type="line"/>
		</contour>
		<contour>
			<point x="25" y="415" type="line"/>
			<point x="245" y="415" type="line"/>
			<point x="245" y="468" type="line"/>
			<point x="175" y="468" type="line"/>
			<point x="100" y="468" type="line"/>
			<point x="25" y="468" type="line"/>
		</contour>
		<contour>
			<point x="320" y="415" type="line"/>
			<point x="485" y="415" type="line"/>
			<point x="485" y="468" type="line"/>
			<point x="451" y="467" type="line"/>
			<point x="337" y="686" type="line"/>
			<point x="245" y="599" type="line"/>
		</contour>
		<contour>
			<point x="273" y="715" type="line"/>
			<point x="359" y="704" type="line"/>
			<point x="382" y="704" type="line"/>
			<point x="474" y="715" type="line"/>
			<point x="474" y="765" type="line"/>
			<point x="273" y="765" type="line"/>
		</contour>
		<contour>
			<point x="153" y="509" type="line"/>
			<point x="474" y="753" type="line"/>
			<point x="382" y="753" type="line"/>
			<point x="223" y="608" type="line"/>
			<point x="153" y="608" type="line"/>
		</contour>
	</outline>
</glyph>
<glyph name="m.sups" format="2">
	<unicode hex="1D50"/>
	<advance width="741"/>
	<outline>
		<contour>
			<point x="72" y="415" type="line"/>
			<point x="214" y="415" type="line"/>
			<point x="214" y="694" type="line"/>
			<point x="203" y="694" type="line"/>
			<point x="192" y="765" type="line"/>
			<point x="153" y="765" type="line"/>
			<point x="28" y="723" type="line"/>
			<point x="28" y="673" type="line"/>
			<point x="72" y="673" type="line"/>
		</contour>
		<contour>
			<point x="304" y="415" type="line"/>
			<point x="446" y="415" type="line"/>
			<point x="446" y="656" type="line" smooth="yes"/>
			<point x="446" y="735"/>
			<point x="407" y="776"/>
			<point x="338" y="776" type="curve" smooth="yes"/>
			<point x="276" y="776"/>
			<point x="248" y="731"/>
			<point x="225" y="699" type="curve"/>
			<point x="186" y="699" type="line"/>
			<point x="186" y="649" type="line"/>
			<point x="214" y="667"/>
			<point x="237" y="674"/>
			<point x="260" y="674" type="curve" smooth="yes"/>
			<point x="290" y="674"/>
			<point x="304" y="662"/>
			<point x="304" y="631" type="curve" smooth="yes"/>
		</contour>
		<contour>
			<point x="535" y="415" type="line"/>
			<point x="677" y="415" type="line"/>
			<point x="677" y="656" type="line" smooth="yes"/>
			<point x="677" y="735"/>
			<point x="638" y="776"/>
			<point x="570" y="776" type="curve" smooth="yes"/>
			<point x="507" y="776"/>
			<point x="479" y="731"/>
			<point x="457" y="699" type="curve"/>
			<point x="418" y="699" type="line"/>
			<point x="418" y="649" type="line"/>
			<point x="446" y="667"/>
			<point x="468" y="674"/>
			<point x="492" y="674" type="curve" smooth="yes"/>
			<point x="521" y="674"/>
			<point x="535" y="662"/>
			<point x="535" y="631" type="curve" smooth="yes"/>
		</contour>
		<contour>
			<point x="30" y="415" type="line"/>
			<point x="242" y="415" type="line"/>
			<point x="242" y="468" type="line"/>
			<point x="181" y="468" type="line"/>
			<point x="106" y="468" type="line"/>
			<point x="30" y="468" type="line"/>
		</contour>
		<contour>
			<point x="276" y="415" type="line"/>
			<point x="474" y="415" type="line"/>
			<point x="474" y="468" type="line"/>
			<point x="412" y="468" type="line"/>
			<point x="337" y="468" type="line"/>
			<point x="276" y="468" type="line"/>
		</contour>
		<contour>
			<point x="507" y="415" type="line"/>
			<point x="719" y="415" type="line"/>
			<point x="719" y="468" type="line"/>
			<point x="644" y="468" type="line"/>
			<point x="568" y="468" type="line"/>
			<point x="507" y="468" type="line"/>
		</contour>
	</outline>
</glyph>
<glyph name="o.sups" format="2">
	<unicode hex="1D52"/>
	<advance width="471"/>
	<outline>
		<contour>
			<point x="235" y="393" type="curve" smooth="yes"/>
			<point x="343" y="393"/>
			<point x="437" y="452"/>
			<point x="437" y="580" type="curve" smooth="yes"/>
			<point x="437" y="708"/>
			<point x="343" y="765"/>
			<point x="235" y="765" type="curve" smooth="yes"/>
			<point x="128" y="765"/>
			<point x="33" y="705"/>
			<point x="33" y="578" type="curve" smooth="yes"/>
			<point x="33" y="450"/>
			<point x="128" y="393"/>
		</contour>
		<contour>
			<point x="235" y="445" type="curve" smooth="yes"/>
			<point x="200" y="445"/>
			<point x="179" y="477"/>
			<point x="179" y="580" type="curve" smooth="yes"/>
			<point x="179" y="683"/>
			<point x="200" y="712"/>
			<point x="235" y="712" type="curve" smooth="yes"/>
			<point x="270" y="712"/>
			<point x="291" y="680"/>
			<point x="291" y="578" type="curve" smooth="yes"/>
			<point x="291" y="471"/>
			<point x="270" y="445"/>
		</contour>
	</outline>
</glyph>
<glyph name="u.sups" format="2">
	<unicode hex="1D58"/>
	<advance width="512"/>
	<outline>
		<contour>
			<point x="172" y="393" type="curve" smooth="yes"/>
			<point x="237" y="393"/>
			<point x="264" y="431"/>
			<point x="292" y="469" type="curve"/>
			<point x="326" y="469" type="line"/>
			<point x="326" y="520" type="line"/>
			<point x="298" y="501"/>
			<point x="276" y="494"/>
			<point x="251" y="494" type="curve" smooth="yes"/>
			<point x="220" y="494"/>
			<point x="206" y="507"/>
			<point x="206" y="538" type="curve" smooth="yes"/>
			<point x="206" y="754" type="line"/>
			<point x="161" y="754" type="line"/>
			<point x="19" y="733" type="line"/>
			<point x="19" y="688" type="line"/>
			<point x="97" y="668" type="line"/>
			<point x="67" y="706" type="line"/>
			<point x="64" y="513" type="line" smooth="yes"/>
			<point x="62" y="434"/>
			<point x="103" y="393"/>
		</contour>
		<contour>
			<point x="326" y="396" type="line"/>
			<point x="490" y="404" type="line"/>
			<point x="490" y="451" type="line"/>
			<point x="446" y="462" type="line"/>
			<point x="446" y="754" type="line"/>
			<point x="401" y="754" type="line"/>
			<point x="259" y="733" type="line"/>
			<point x="259" y="688" type="line"/>
			<point x="304" y="676" type="line"/>
			<point x="304" y="475" type="line"/>
			<point x="315" y="475" type="line"/>
		</contour>
	</outline>
</glyph>
<glyph name="v.sups" format="2">
	<unicode hex="1D5B"/>
	<advance width="459"/>
	<outline>
		<contour>
			<point x="182" y="415" type="line"/>
			<point x="277" y="415" type="line"/>
			<point x="421" y="765" type="line"/>
			<point x="348" y="765" type="line"/>
			<point x="303" y="633" type="line"/>
			<point x="275" y="505" type="line"/>
			<point x="269" y="505" type="line"/>
			<point x="195" y="765" type="line"/>
			<point x="41" y="765" type="line"/>
		</contour>
		<contour>
			<point x="22" y="715" type="line"/>
			<point x="89" y="704" type="line"/>
			<point x="189" y="704" type="line"/>
			<point x="253" y="715" type="line"/>
			<point x="253" y="765" type="line"/>
			<point x="22" y="765" type="line"/>
		</contour>
		<contour>
			<point x="287" y="715" type="line"/>
			<point x="354" y="704" type="line"/>
			<point x="370" y="704" type="line"/>
			<point x="437" y="715" type="line"/>
			<point x="437" y="765" type="line"/>
			<point x="287" y="765" type="line"/>
		</contour>
	</outline>
</glyph>
<glyph name="z.sups" format="2">
	<unicode hex="1DBB"/>
	<advance width="396"/>
	<outline>
		<contour>
			<point x="10" y="404" type="line"/>
			<point x="376" y="404" type="line"/>
			<point x="382" y="529" type="line"/>
			<point x="313" y="529" type="line"/>
			<point x="282" y="419" type="line"/>
			<point x="300" y="460" type="line"/>
			<point x="182" y="454" type="line"/>
			<point x="182" y="417" type="line"/>
			<point x="379" y="712" type="line"/>
			<point x="379" y="758" type="line"/>
			<point x="25" y="758" type="line"/>
			<point x="19" y="639" type="line"/>
			<point x="89" y="639" type="line"/>
			<point x="118" y="744" type="line"/>
			<point x="102" y="702" type="line"/>
			<point x="207" y="709" type="line"/>
			<point x="207" y="745" type="line"/>
			<point x="10" y="450" type="line"/>
		</contour>
	</outline>
</glyph>
<glyph name="endash" format="2">
	<unicode hex="2013"/>
	<advance width="560"/>
	<outline>
		<contour>
			<point x="50" y="218" type="line"/>
			<point x="510" y="218" type="line"/>
			<point x="510" y="338" type="line"/>
			<point x="50" y="338" type="line"/>
		</contour>
	</outline>
</glyph>
<glyph name="emdash" format="2">
	<unicode hex="2014"/>
	<advance width="860"/>
	<outline>
		<contour>
			<point x="50" y="218" type="line"/>
			<point x="810" y="218" type="line"/>
			<point x="810" y="338" type="line"/>
			<point x="50" y="338" type="line"/>
		</contour>
	</outline>
</glyph>
<glyph name="quoteleft" format="2">
	<unicode hex="2018"/>
	<unicode hex="02BB"/>
	<advance width="276"/>
	<outline>
		<contour>
			<point x="32" y="504" type="curve" smooth="yes"/>
			<point x="32" y="464"/>
			<point x="39" y="450"/>
			<point x="50" y="427" type="curve"/>
			<point x="70" y="410"/>
			<point x="87" y="404"/>
			<point x="122" y="404" type="curve" smooth="yes"/>
			<point x="184" y="404"/>
			<point x="224" y="440"/>
			<point x="224" y="494" type="curve" smooth="yes"/>
			<point x="224" y="548"/>
			<point x="172" y="572"/>
			<point x="136" y="588" type="curve" smooth="yes"/>
			<point x="80" y="612" type="line"/>
			<point x="128" y="552" type="line"/>
			<point x="144" y="608"/>
			<point x="192" y="648"/>
			<point x="244" y="676" type="curve"/>
			<point x="208" y="732" type="line"/>
			<point x="112" y="696"/>
			<point x="32" y="624"/>
		</contour>
	</outline>
</glyph>
<glyph name="daggerdbl" format="2">
	<unicode hex="2021"/>
	<advance width="540"/>
	<outline>
		<contour>
			<point x="104" y="94" type="curve" smooth="yes"/>
			<point x="140" y="94"/>
			<point x="167" y="111"/>
			<point x="212" y="142" type="curve" smooth="yes"/>
			<point x="239" y="161" type="line"/>
			<point x="239" y="191" type="line"/>
			<point x="212" y="210" type="line" smooth="yes"/>
			<point x="167" y="241"/>
			<point x="140" y="258"/>
			<point x="104" y="258" type="curve" smooth="yes"/>
			<point x="52" y="258"/>
			<point x="20" y="226"/>
			<point x="20" y="176" type="curve" smooth="yes"/>
			<point x="20" y="126"/>
			<point x="52" y="94"/>
		</contour>
		<contour>
			<point x="104" y="407" type="curve" smooth="yes"/>
			<point x="140" y="407"/>
			<point x="167" y="424"/>
			<point x="212" y="455" type="curve" smooth="yes"/>
			<point x="239" y="474" type="line"/>
			<point x="239" y="504" type="line"/>
			<point x="212" y="523" type="line" smooth="yes"/>
			<point x="167" y="554"/>
			<point x="140" y="571"/>
			<point x="104" y="571" type="curve" smooth="yes"/>
			<point x="52" y="571"/>
			<point x="20" y="539"/>
			<point x="20" y="489" type="curve" smooth="yes"/>
			<point x="20" y="439"/>
			<point x="52" y="407"/>
		</contour>
		<contour>
			<point x="256" y="520" type="line"/>
			<point x="286" y="520" type="line"/>
			<point x="308" y="551" type="line" smooth="yes"/>
			<point x="339" y="594"/>
			<point x="356" y="627"/>
			<point x="356" y="667" type="curve" smooth="yes"/>
			<point x="356" y="711"/>
			<point x="324" y="743"/>
			<point x="270" y="743" type="curve" smooth="yes"/>
			<point x="220" y="743"/>
			<point x="184" y="716"/>
			<point x="184" y="663" type="curve" smooth="yes"/>
			<point x="184" y="631"/>
			<point x="201" y="605"/>
			<point x="236" y="551" type="curve" smooth="yes"/>
		</contour>
		<contour>
			<point x="253" y="207" type="curve"/>
			<point x="287" y="207" type="line"/>
			<point x="339" y="265"/>
			<point x="352" y="296"/>
			<point x="352" y="333" type="curve" smooth="yes"/>
			<point x="352" y="370"/>
			<point x="339" y="400"/>
			<point x="287" y="458" type="curve"/>
			<point x="253" y="458" type="line"/>
			<point x="201" y="400"/>
			<point x="188" y="370"/>
			<point x="188" y="333" type="curve" smooth="yes"/>
			<point x="188" y="296"/>
			<point x="201" y="265"/>
		</contour>
		<contour>
			<point x="270" y="-78" type="curve" smooth="yes"/>
			<point x="320" y="-78"/>
			<point x="356" y="-51"/>
			<point x="356" y="2" type="curve" smooth="yes"/>
			<point x="356" y="34"/>
			<point x="339" y="60"/>
			<point x="304" y="114" type="curve" smooth="yes"/>
			<point x="284" y="145" type="line"/>
			<point x="254" y="145" type="line"/>
			<point x="232" y="114" type="line" smooth="yes"/>
			<point x="201" y="71"/>
			<point x="184" y="38"/>
			<point x="184" y="-2" type="curve" smooth="yes"/>
			<point x="184" y="-46"/>
			<point x="216" y="-78"/>
		</contour>
		<contour>
			<point x="436" y="94" type="curve" smooth="yes"/>
			<point x="488" y="94"/>
			<point x="520" y="126"/>
			<point x="520" y="176" type="curve" smooth="yes"/>
			<point x="520" y="226"/>
			<point x="488" y="258"/>
			<point x="436" y="258" type="curve" smooth="yes"/>
			<point x="400" y="258"/>
			<point x="373" y="241"/>
			<point x="328" y="210" type="curve" smooth="yes"/>
			<point x="301" y="191" type="line"/>
			<point x="301" y="161" type="line"/>
			<point x="328" y="142" type="line" smooth="yes"/>
			<point x="373" y="111"/>
			<point x="400" y="94"/>
		</contour>
		<contour>
			<point x="436" y="407" type="curve" smooth="yes"/>
			<point x="488" y="407"/>
			<point x="520" y="439"/>
			<point x="520" y="489" type="curve" smooth="yes"/>
			<point x="520" y="539"/>
			<point x="488" y="571"/>
			<point x="436" y="571" type="curve" smooth="yes"/>
			<point x="400" y="571"/>
			<point x="373" y="554"/>
			<point x="328" y="523" type="curve" smooth="yes"/>
			<point x="301" y="504" type="line"/>
			<point x="301" y="474" type="line"/>
			<point x="328" y="455" type="line" smooth="yes"/>
			<point x="373" y="424"/>
			<point x="400" y="407"/>
		</contour>
	</outline>
</glyph>
<glyph name="bullet" format="2">
	<unicode hex="2022"/>
	<advance width="360"/>
	<outline>
		<contour>
			<point x="180" y="178" type="curve" smooth="yes"/>
			<point x="258" y="178"/>
			<point x="320" y="234"/>
			<point x="320" y="320" type="curve" smooth="yes"/>
			<point x="320" y="407"/>
			<point x="258" y="462"/>
			<point x="180" y="462" type="curve" smooth="yes"/>
			<point x="102" y="462"/>
			<point x="40" y="407"/>
			<point x="40" y="320" type="curve" smooth="yes"/>
			<point x="40" y="234"/>
			<point x="102" y="178"/>
		</contour>
	</outline>
</glyph>
<glyph name="fraction" format="2">
	<unicode hex="2044"/>
	<unicode hex="2215"/>
	<advance width="200"/>
	<outline>
		<contour>
			<point x="-114" y="-28" type="line"/>
			<point x="366" y="624" type="line"/>
			<point x="314" y="660" type="line"/>
			<point x="-166" y="8" type="line"/>
		</contour>
	</outline>
</glyph>
<glyph name="zero.sups" format="2">
	<unicode hex="2070"/>
	<advance width="441"/>
	<outline>
		<contour>
			<point x="221" y="404" type="curve" smooth="yes"/>
			<point x="330" y="404"/>
			<point x="420" y="472"/>
			<point x="420" y="630" type="curve" smooth="yes"/>
			<point x="420" y="787"/>
			<point x="330" y="850"/>
			<point x="221" y="850" type="curve" smooth="yes"/>
			<point x="111" y="850"/>
			<point x="21" y="782"/>
			<point x="21" y="624" type="curve" smooth="yes"/>
			<point x="21" y="466"/>
			<point x="111" y="404"/>
		</contour>
		<contour>
			<point x="221" y="457" type="curve" smooth="yes"/>
			<point x="178" y="457"/>
			<point x="166" y="487"/>
			<point x="166" y="627" type="curve" smooth="yes"/>
			<point x="166" y="767"/>
			<point x="178" y="797"/>
			<point x="221" y="797" type="curve" smooth="yes"/>
			<point x="263" y="797"/>
			<point x="276" y="767"/>
			<point x="276" y="627" type="curve" smooth="yes"/>
			<point x="276" y="487"/>
			<point x="263" y="457"/>
		</contour>
	</outline>
</glyph>
<glyph name="i.sups" format="2">
	<unicode hex="2071"/>
	<advance width="278"/>
	<outline>
		<contour>
			<point x="69" y="415" type="line"/>
			<point x="212" y="415" type="line"/>
			<point x="212" y="765" type="line"/>
			<point x="167" y="765" type="line"/>
			<point x="25" y="723" type="line"/>
			<point x="25" y="673" type="line"/>
			<point x="69" y="673" type="line"/>
		</contour>
		<contour>
			<point x="28" y="415" type="line"/>
			<point x="253" y="415" type="line"/>
			<point x="253" y="468" type="line"/>
			<point x="178" y="468" type="line"/>
			<point x="103" y="468" type="line"/>
			<point x="28" y="468" type="line"/>
		</contour>
		<contour>
			<point x="139" y="801" type="curve" smooth="yes"/>
			<point x="180" y="801"/>
			<point x="208" y="828"/>
			<point x="208" y="867" type="curve" smooth="yes"/>
			<point x="208" y="905"/>
			<point x="180" y="932"/>
			<point x="139" y="932" type="curve" smooth="yes"/>
			<point x="98" y="932"/>
			<point x="69" y="905"/>
			<point x="69" y="867" type="curve" smooth="yes"/>
			<point x="69" y="828"/>
			<point x="98" y="801"/>
		</contour>
	</outline>
</glyph>
<glyph name="four.sups" format="2">
	<unicode hex="2074"/>
	<advance width="459"/>
	<outline>
		<contour>
			<point x="219" y="404" type="line"/>
			<point x="353" y="404" type="line"/>
			<point x="353" y="843" type="line"/>
			<point x="224" y="843" type="line"/>
			<point x="34" y="549" type="line"/>
			<point x="34" y="466" type="line"/>
			<point x="439" y="466" type="line"/>
			<point x="439" y="554" type="line"/>
			<point x="105" y="554" type="line"/>
			<point x="105" y="595" type="line"/>
			<point x="90" y="554" type="line"/>
			<point x="211" y="737" type="line"/>
			<point x="179" y="717" type="line"/>
			<point x="224" y="717" type="line"/>
			<point x="224" y="522" type="line"/>
			<point x="219" y="503" type="line"/>
		</contour>
	</outline>
</glyph>
<glyph name="five.sups" format="2">
	<unicode hex="2075"/>
	<advance width="441"/>
	<outline>
		<contour>
			<point x="198" y="404" type="curve" smooth="yes"/>
			<point x="338" y="404"/>
			<point x="404" y="464"/>
			<point x="404" y="542" type="curve" smooth="yes"/>
			<point x="404" y="629"/>
			<point x="345" y="677"/>
			<point x="241" y="677" type="curve" smooth="yes"/>
			<point x="192" y="677"/>
			<point x="159" y="660"/>
			<point x="146" y="641" type="curve"/>
			<point x="129" y="647" type="line"/>
			<point x="140" y="817" type="line"/>
			<point x="99" y="737" type="line"/>
			<point x="383" y="737" type="line"/>
			<point x="383" y="839" type="line"/>
			<point x="90" y="839" type="line"/>
			<point x="76" y="628" type="line"/>
			<point x="119" y="612" type="line"/>
			<point x="131" y="617"/>
			<point x="144" y="622"/>
			<point x="168" y="622" type="curve" smooth="yes"/>
			<point x="223" y="622"/>
			<point x="255" y="590"/>
			<point x="255" y="536" type="curve" smooth="yes"/>
			<point x="255" y="485"/>
			<point x="221" y="449"/>
			<point x="165" y="449" type="curve" smooth="yes"/>
			<point x="147" y="449"/>
			<point x="129" y="452"/>
			<point x="116" y="454" type="curve"/>
			<point x="154" y="426" type="line"/>
			<point x="149" y="499" type="line" smooth="yes"/>
			<point x="147" y="536"/>
			<point x="127" y="559"/>
			<point x="90" y="559" type="curve" smooth="yes"/>
			<point x="62" y="559"/>
			<point x="44" y="543"/>
			<point x="37" y="521" type="curve"/>
			<point x="47" y="438"/>
			<point x="102" y="404"/>
		</contour>
	</outline>
</glyph>
<glyph name="six.sups" format="2">
	<unicode hex="2076"/>
	<advance width="441"/>
	<outline>
		<contour>
			<point x="226" y="393" type="curve" smooth="yes"/>
			<point x="359" y="393"/>
			<point x="418" y="454"/>
			<point x="418" y="551" type="curve" smooth="yes"/>
			<point x="418" y="621"/>
			<point x="370" y="673"/>
			<point x="291" y="673" type="curve" smooth="yes"/>
			<point x="247" y="673"/>
			<point x="216" y="654"/>
			<point x="201" y="635" type="curve"/>
			<point x="147" y="635" type="line"/>
			<point x="161" y="597" type="line"/>
			<point x="175" y="605"/>
			<point x="193" y="610"/>
			<point x="217" y="610" type="curve" smooth="yes"/>
			<point x="255" y="610"/>
			<point x="273" y="582"/>
			<point x="273" y="528" type="curve" smooth="yes"/>
			<point x="273" y="473"/>
			<point x="256" y="446"/>
			<point x="230" y="446" type="curve" smooth="yes"/>
			<point x="199" y="446"/>
			<point x="174" y="468"/>
			<point x="174" y="570" type="curve" smooth="yes"/>
			<point x="174" y="703"/>
			<point x="221" y="759"/>
			<point x="380" y="787" type="curve"/>
			<point x="373" y="839" type="line"/>
			<point x="153" y="825"/>
			<point x="24" y="725"/>
			<point x="24" y="580" type="curve" smooth="yes"/>
			<point x="24" y="456"/>
			<point x="107" y="393"/>
		</contour>
	</outline>
</glyph>
<glyph name="seven.sups" format="2">
	<unicode hex="2077"/>
	<advance width="459"/>
	<outline>
		<contour>
			<point x="87" y="404" type="line"/>
			<point x="250" y="404" type="line"/>
			<point x="414" y="769" type="line"/>
			<point x="414" y="844" type="line"/>
			<point x="49" y="844" type="line"/>
			<point x="49" y="738" type="line"/>
			<point x="335" y="738" type="line"/>
			<point x="335" y="706" type="line"/>
			<point x="344" y="731" type="line"/>
			<point x="87" y="437" type="line"/>
		</contour>
	</outline>
</glyph>
<glyph name="nine.sups" format="2">
	<unicode hex="2079"/>
	<advance width="441"/>
	<outline>
		<contour>
			<point x="73" y="404" type="line"/>
			<point x="292" y="421"/>
			<point x="419" y="516"/>
			<point x="419" y="664" type="curve" smooth="yes"/>
			<point x="419" y="783"/>
			<point x="342" y="850"/>
			<point x="219" y="850" type="curve" smooth="yes"/>
			<point x="89" y="850"/>
			<point x="22" y="785"/>
			<point x="22" y="699" type="curve" smooth="yes"/>
			<point x="22" y="625"/>
			<point x="76" y="574"/>
			<point x="154" y="574" type="curve" smooth="yes"/>
			<point x="198" y="574"/>
			<point x="222" y="589"/>
			<point x="239" y="611" type="curve"/>
			<point x="279" y="612" type="line"/>
			<point x="279" y="643" type="line"/>
			<point x="266" y="639"/>
			<point x="251" y="636"/>
			<point x="229" y="636" type="curve" smooth="yes"/>
			<point x="186" y="636"/>
			<point x="167" y="666"/>
			<point x="167" y="715" type="curve" smooth="yes"/>
			<point x="167" y="768"/>
			<point x="184" y="797"/>
			<point x="217" y="797" type="curve" smooth="yes"/>
			<point x="251" y="797"/>
			<point x="267" y="768"/>
			<point x="267" y="655" type="curve" smooth="yes"/>
			<point x="267" y="546"/>
			<point x="203" y="477"/>
			<point x="63" y="456" type="curve"/>
		</contour>
	</outline>
</glyph>
<glyph name="parenright.sups" format="2">
	<unicode hex="207E"/>
	<advance width="338"/>
	<outline>
		<contour>
			<point x="136" y="601" type="curve" smooth="yes"/>
			<point x="136" y="493"/>
			<point x="106" y="418"/>
			<point x="39" y="342" type="curve"/>
			<point x="82" y="299" type="line"/>
			<point x="207" y="379"/>
			<point x="273" y="471"/>
			<point x="273" y="601" type="curve" smooth="yes"/>
			<point x="273" y="732"/>
			<point x="207" y="824"/>
			<point x="82" y="903" type="curve"/>
			<point x="39" y="860" type="line"/>
			<point x="106" y="784"/>
			<point x="136" y="709"/>
		</contour>
	</outline>
</glyph>
<glyph name="naira" format="2">
	<unicode hex="20A6"/>
	<advance width="600"/>
	<outline>
		<contour>
			<point x="240" y="0" type="line"/>
			<point x="240" y="76" type="line"/>
			<point x="170" y="76" type="line"/>
			<point x="170" y="237" type="line"/>
			<point x="150" y="506" type="line"/>
			<point x="164" y="506" type="line"/>
			<point x="310" y="0" type="line"/>
			<point x="504" y="0" type="line"/>
			<point x="504" y="552" type="line"/>
			<point x="564" y="552" type="line"/>
			<point x="564" y="628" type="line"/>
			<point x="360" y="628" type="line"/>
			<point x="360" y="552" type="line"/>
			<point x="430" y="552" type="line"/>
			<point x="430" y="392" type="line"/>
			<point x="450" y="123" type="line"/>
			<point x="435" y="123" type="line"/>
			<point x="300" y="628" type="line"/>
			<point x="36" y="628" type="line"/>
			<point x="36" y="552" type="line"/>
			<point x="96" y="552" type="line"/>
			<point x="96" y="76" type="line"/>
			<point x="36" y="76" type="line"/>
			<point x="36" y="0" type="line"/>
		</contour>
		<contour>
			<point x="36" y="212" type="line"/>
			<point x="320" y="212" type="line"/>
			<point x="320" y="224" type="line"/>
			<point x="472" y="224" type="line"/>
			<point x="472" y="208" type="line"/>
			<point x="564" y="208" type="line"/>
			<point x="564" y="264" type="line"/>
			<point x="36" y="264" type="line"/>
		</contour>
		<contour>
			<point x="36" y="364" type="line"/>
			<point x="564" y="364" type="line"/>
			<point x="564" y="416" type="line"/>
			<point x="256" y="416" type="line"/>
			<point x="256" y="404" type="line"/>
			<point x="128" y="404" type="line"/>
			<point x="128" y="420" type="line"/>
			<point x="36" y="420" type="line"/>
		</contour>
	</outline>
</glyph>
<glyph name="peseta" format="2">
	<unicode hex="20A7"/>
	<advance width="600"/>
	<outline>
		<contour>
			<point x="192" y="232" type="line"/>
			<point x="280" y="232" type="line" smooth="yes"/>
			<point x="460" y="232"/>
			<point x="544" y="308"/>
			<point x="544" y="436" type="curve" smooth="yes"/>
			<point x="544" y="562"/>
			<point x="460" y="628"/>
			<point x="280" y="628" type="curve" smooth="yes"/>
			<point x="208" y="628" type="line"/>
			<point x="208" y="564" type="line"/>
			<point x="280" y="564" type="line" smooth="yes"/>
			<point x="343" y="564"/>
			<point x="368" y="523"/>
			<point x="368" y="432" type="curve" smooth="yes"/>
			<point x="368" y="344"/>
			<point x="343" y="296"/>
			<point x="272" y="296" type="curve" smooth="yes"/>
			<point x="192" y="296" type="line"/>
		</contour>
		<contour>
			<point x="80" y="0" type="curve"/>
			<point x="272" y="0" type="line"/>
			<point x="272" y="87"/>
			<point x="272" y="173"/>
			<point x="272" y="260" type="curve" smooth="yes"/>
			<point x="272" y="344" type="line" smooth="yes"/>
			<point x="272" y="439"/>
			<point x="272" y="533"/>
			<point x="272" y="628" type="curve"/>
			<point x="80" y="628" type="line"/>
			<point x="80" y="533"/>
			<point x="80" y="439"/>
			<point x="80" y="344" type="curve" smooth="yes"/>
			<point x="80" y="260" type="line" smooth="yes"/>
			<point x="80" y="173"/>
			<point x="80" y="87"/>
		</contour>
		<contour>
			<point x="28" y="0" type="line"/>
			<point x="348" y="0" type="line"/>
			<point x="348" y="76" type="line"/>
			<point x="224" y="76" type="line"/>
			<point x="128" y="76" type="line"/>
			<point x="28" y="76" type="line"/>
		</contour>
		<contour>
			<point x="28" y="552" type="line"/>
			<point x="112" y="552" type="line"/>
			<point x="128" y="552" type="line"/>
			<point x="128" y="628" type="line"/>
			<point x="28" y="628" type="line"/>
		</contour>
		<contour>
			<point x="28" y="392" type="line"/>
			<point x="162" y="392" type="line"/>
			<point x="162" y="412" type="line"/>
			<point x="455" y="412" type="line"/>
			<point x="455" y="392" type="line"/>
			<point x="584" y="392" type="line"/>
			<point x="584" y="456" type="line"/>
			<point x="28" y="456" type="line"/>
		</contour>
	</outline>
</glyph>
